{
copyright = "Copyright (c) 2015, Cadson Demak (info@cadsondemak.com)";
customParameters = (
{
name = vendorID;
value = CDK;
},
{
name = description;
value = "Copyright (c) 2015, Cadson Demak (info@cadsondemak.com)";
},
{
name = license;

glyphs = (
{
glyphname = A;
lastChange = "2015-10-23 14:03:17 +0000";
layers = (
{
layerId = "47126D52-4795-4BAD-A976-8664E9644ACA";
name = Bold;
paths = (
{
closed = 1;
nodes = (
"221 0 LINE",
"274 137 LINE",
"468 137 LINE",
"522 0 LINE",
"718 0 LINE",
"471 644 LINE",
"272 644 LINE",
"25 0 LINE"
);
},
{
closed = 1;
nodes = (
"371 461 LINE",
"443 272 LINE",
"299 272 LINE"
);
}
);
width = 743;
}
);
leftKerningGroup = A;
note = A;
rightKerningGroup = A;
unicode = 0041;
},
{
glyphname = Aacute;
lastChange = "2015-10-23 14:03:17 +0000";
layers = (
{
layerId = "47126D52-4795-4BAD-A976-8664E9644ACA";
name = Bold;
paths = (
{
closed = 1;
nodes = (
"221 0 LINE",
"274 137 LINE",
"468 137 LINE",
"522 0 LINE",
"718 0 LINE",
"471 644 LINE",
"272 644 LINE",
"25 0 LINE"
);
},
{
closed = 1;
nodes = (
"371 461 LINE",
"443 272 LINE",
"299 272 LINE"
);
},
{
closed = 1;
nodes = (
"437 688 LINE",
"533 894 LINE",
"387 894 LINE",
"299 688 LINE"
);
}
);
width = 743;
}
);
leftKerningGroup = A;
note = Aacute;
rightKerningGroup = A;
unicode = 00C1;
},
{
glyphname = Abreve;
lastChange = "2015-10-23 14:03:17 +0000";
layers = (
{
layerId = "47126D52-4795-4BAD-A976-8664E9644ACA";
name = Bold;
paths = (
{
closed = 1;
nodes = (
"221 0 LINE",
"274 137 LINE",
"468 137 LINE",
"522 0 LINE",
"718 0 LINE",
"471 644 LINE",
"272 644 LINE",
"25 0 LINE"
);
},
{
closed = 1;
nodes = (
"371 461 LINE",
"443 272 LINE",
"299 272 LINE"
);
},
{
closed = 1;
nodes = (
"485 689 OFFCURVE",
"561 755 OFFCURVE",
"561 876 CURVE",
"439 876 LINE",
"439 827 OFFCURVE",
"422 792 OFFCURVE",
"371 792 CURVE SMOOTH",
"320 792 OFFCURVE",
"304 827 OFFCURVE",
"304 876 CURVE",
"182 876 LINE",
"182 755 OFFCURVE",
"258 689 OFFCURVE",
"371 689 CURVE SMOOTH"
);
}
);
width = 743;
}
);
leftKerningGroup = A;
note = Abreve;
rightKerningGroup = A;
unicode = 0102;
},
{
glyphname = Abreveacute;
lastChange = "2015-10-23 14:03:17 +0000";
layers = (
{
layerId = "47126D52-4795-4BAD-A976-8664E9644ACA";
name = Bold;
paths = (
{
closed = 1;
nodes = (
"221 0 LINE",
"274 137 LINE",
"468 137 LINE",
"522 0 LINE",
"718 0 LINE",
"471 644 LINE",
"272 644 LINE",
"25 0 LINE"
);
},
{
closed = 1;
nodes = (
"371 461 LINE",
"443 272 LINE",
"299 272 LINE"
);
},
{
closed = 1;
nodes = (
"479 688 OFFCURVE",
"553 740 OFFCURVE",
"553 860 CURVE",
"448 860 LINE",
"448 812 OFFCURVE",
"422 780 OFFCURVE",
"372 780 CURVE SMOOTH",
"322 780 OFFCURVE",
"295 812 OFFCURVE",
"295 860 CURVE",
"190 860 LINE",
"190 740 OFFCURVE",
"265 688 OFFCURVE",
"372 688 CURVE SMOOTH"
);
},
{
closed = 1;
nodes = (
"425 856 LINE",
"508 1013 LINE",
"383 1013 LINE",
"317 856 LINE"
);
}
);
width = 743;
}
);
leftKerningGroup = A;
note = Abreveacute;
rightKerningGroup = A;
unicode = 1EAE;
},
{
glyphname = Abrevedotbelow;
lastChange = "2015-10-23 14:03:17 +0000";
layers = (
{
layerId = "47126D52-4795-4BAD-A976-8664E9644ACA";
name = Bold;
paths = (
{
closed = 1;
nodes = (
"221 0 LINE",
"274 137 LINE",
"468 137 LINE",
"522 0 LINE",
"718 0 LINE",
"471 644 LINE",
"272 644 LINE",
"25 0 LINE"
);
},
{
closed = 1;
nodes = (
"436 -176 LINE",
"436 -56 LINE",
"306 -56 LINE",
"306 -176 LINE"
);
},
{
closed = 1;
nodes = (
"371 461 LINE",
"443 272 LINE",
"299 272 LINE"
);
},
{
closed = 1;
nodes = (
"485 688 OFFCURVE",
"561 754 OFFCURVE",
"561 875 CURVE",
"439 875 LINE",
"439 826 OFFCURVE",
"422 791 OFFCURVE",
"371 791 CURVE SMOOTH",
"320 791 OFFCURVE",
"304 826 OFFCURVE",
"304 875 CURVE",
"182 875 LINE",
"182 754 OFFCURVE",
"258 688 OFFCURVE",
"371 688 CURVE SMOOTH"
);
}
);
width = 743;
}
);
leftKerningGroup = A;
note = Abrevedotbelow;
rightKerningGroup = A;
unicode = 1EB6;
},
{
glyphname = Abrevegrave;
lastChange = "2015-10-23 14:03:17 +0000";
layers = (
{
layerId = "47126D52-4795-4BAD-A976-8664E9644ACA";
name = Bold;
paths = (
{
closed = 1;
nodes = (
"221 0 LINE",
"274 137 LINE",
"468 137 LINE",
"522 0 LINE",
"718 0 LINE",
"471 644 LINE",
"272 644 LINE",
"25 0 LINE"
);
},
{
closed = 1;
nodes = (
"371 461 LINE",
"443 272 LINE",
"299 272 LINE"
);
},
{
closed = 1;
nodes = (
"477 688 OFFCURVE",
"552 740 OFFCURVE",
"552 860 CURVE",
"447 860 LINE",
"447 812 OFFCURVE",
"420 780 OFFCURVE",
"370 780 CURVE SMOOTH",
"320 780 OFFCURVE",
"294 812 OFFCURVE",
"294 860 CURVE",
"189 860 LINE",
"189 740 OFFCURVE",
"263 688 OFFCURVE",
"370 688 CURVE SMOOTH"
);
},
{
closed = 1;
nodes = (
"425 856 LINE",
"359 1013 LINE",
"234 1013 LINE",
"317 856 LINE"
);
}
);
width = 743;
}
);
leftKerningGroup = A;
note = Abrevegrave;
rightKerningGroup = A;
unicode = 1EB0;
},
{
glyphname = Abrevehookabove;
lastChange = "2015-10-23 14:03:17 +0000";
layers = (
{
layerId = "47126D52-4795-4BAD-A976-8664E9644ACA";
name = Bold;
paths = (
{
closed = 1;
nodes = (
"221 0 LINE",
"274 137 LINE",
"468 137 LINE",
"522 0 LINE",
"718 0 LINE",
"471 644 LINE",
"272 644 LINE",
"25 0 LINE"
);
},
{
closed = 1;
nodes = (
"371 461 LINE",
"443 272 LINE",
"299 272 LINE"
);
},
{
closed = 1;
nodes = (
"477 688 OFFCURVE",
"552 740 OFFCURVE",
"552 860 CURVE",
"447 860 LINE",
"447 812 OFFCURVE",
"420 780 OFFCURVE",
"370 780 CURVE SMOOTH",
"320 780 OFFCURVE",
"294 812 OFFCURVE",
"294 860 CURVE",
"189 860 LINE",
"189 740 OFFCURVE",
"263 688 OFFCURVE",
"370 688 CURVE SMOOTH"
);
},
{
closed = 1;
nodes = (
"430 861 LINE",
"430 891 LINE",
"483 904 OFFCURVE",
"505 928 OFFCURVE",
"505 973 CURVE SMOOTH",
"505 1022 OFFCURVE",
"463 1059 OFFCURVE",
"388 1059 CURVE SMOOTH",
"348 1059 OFFCURVE",
"310 1054 OFFCURVE",
"286 1046 CURVE",
"286 979 LINE",
"299 984 OFFCURVE",
"318 988 OFFCURVE",
"337 988 CURVE SMOOTH",
"368 988 OFFCURVE",
"384 982 OFFCURVE",
"384 960 CURVE SMOOTH",
"384 939 OFFCURVE",
"365 925 OFFCURVE",
"309 923 CURVE",
"309 861 LINE"
);
}
);
width = 743;
}
);
leftKerningGroup = A;
note = Abrevehookabove;
rightKerningGroup = A;
unicode = 1EB2;
},
{
glyphname = Abrevetilde;
lastChange = "2015-10-23 14:03:17 +0000";
layers = (
{
layerId = "47126D52-4795-4BAD-A976-8664E9644ACA";
name = Bold;
paths = (
{
closed = 1;
nodes = (
"221 0 LINE",
"274 137 LINE",
"468 137 LINE",
"522 0 LINE",
"718 0 LINE",
"471 644 LINE",
"272 644 LINE",
"25 0 LINE"
);
},
{
closed = 1;
nodes = (
"371 461 LINE",
"443 272 LINE",
"299 272 LINE"
);
},
{
closed = 1;
nodes = (
"477 688 OFFCURVE",
"552 740 OFFCURVE",
"552 860 CURVE",
"447 860 LINE",
"447 812 OFFCURVE",
"420 780 OFFCURVE",
"370 780 CURVE SMOOTH",
"320 780 OFFCURVE",
"294 812 OFFCURVE",
"294 860 CURVE",
"189 860 LINE",
"189 740 OFFCURVE",
"263 688 OFFCURVE",
"370 688 CURVE SMOOTH"
);
},
{
closed = 1;
nodes = (
"504 878 OFFCURVE",
"538 893 OFFCURVE",
"551 910 CURVE",
"551 1013 LINE",
"535 990 OFFCURVE",
"503 974 OFFCURVE",
"462 974 CURVE SMOOTH",
"402 974 OFFCURVE",
"351 1015 OFFCURVE",
"286 1015 CURVE SMOOTH",
"248 1015 OFFCURVE",
"212 1001 OFFCURVE",
"194 983 CURVE",
"194 881 LINE",
"217 905 OFFCURVE",
"248 919 OFFCURVE",
"289 919 CURVE SMOOTH",
"343 919 OFFCURVE",
"402 878 OFFCURVE",
"465 878 CURVE SMOOTH"
);
}
);
width = 743;
}
);
leftKerningGroup = A;
note = Abrevetilde;
rightKerningGroup = A;
unicode = 1EB4;
},
{
glyphname = Acaron;
lastChange = "2015-10-23 14:03:17 +0000";
layers = (
{
layerId = "47126D52-4795-4BAD-A976-8664E9644ACA";
name = Bold;
paths = (
{
closed = 1;
nodes = (
"221 0 LINE",
"274 137 LINE",
"468 137 LINE",
"522 0 LINE",
"718 0 LINE",
"471 644 LINE",
"272 644 LINE",
"25 0 LINE"
);
},
{
closed = 1;
nodes = (
"371 461 LINE",
"443 272 LINE",
"299 272 LINE"
);
},
{
closed = 1;
nodes = (
"428 688 LINE",
"583 888 LINE",
"447 888 LINE",
"371 779 LINE",
"299 888 LINE",
"159 888 LINE",
"314 688 LINE"
);
}
);
width = 743;
}
);
leftKerningGroup = A;
note = Acaron;
rightKerningGroup = A;
unicode = 01CD;
},
{
glyphname = Acircumflex;
lastChange = "2015-10-23 14:03:17 +0000";
layers = (
{
layerId = "47126D52-4795-4BAD-A976-8664E9644ACA";
name = Bold;
paths = (
{
closed = 1;
nodes = (
"221 0 LINE",
"274 137 LINE",
"468 137 LINE",
"522 0 LINE",
"718 0 LINE",
"471 644 LINE",
"272 644 LINE",
"25 0 LINE"
);
},
{
closed = 1;
nodes = (
"371 461 LINE",
"443 272 LINE",
"299 272 LINE"
);
},
{
closed = 1;
nodes = (
"299 688 LINE",
"371 796 LINE",
"447 688 LINE",
"583 688 LINE",
"428 888 LINE",
"314 888 LINE",
"159 688 LINE"
);
}
);
width = 743;
}
);
leftKerningGroup = A;
note = Acircumflex;
rightKerningGroup = A;
unicode = 00C2;
},
{
glyphname = Acircumflexacute;
lastChange = "2015-10-23 14:03:17 +0000";
layers = (
{
layerId = "47126D52-4795-4BAD-A976-8664E9644ACA";
name = Bold;
paths = (
{
closed = 1;
nodes = (
"221 0 LINE",
"274 137 LINE",
"468 137 LINE",
"522 0 LINE",
"718 0 LINE",
"471 644 LINE",
"272 644 LINE",
"25 0 LINE"
);
},
{
closed = 1;
nodes = (
"371 461 LINE",
"443 272 LINE",
"299 272 LINE"
);
},
{
closed = 1;
nodes = (
"308 688 LINE",
"370 767 LINE",
"432 688 LINE",
"581 688 LINE",
"439 840 LINE",
"301 840 LINE",
"159 688 LINE"
);
},
{
closed = 1;
nodes = (
"624 813 LINE",
"702 969 LINE",
"563 969 LINE",
"492 813 LINE"
);
}
);
width = 743;
}
);
leftKerningGroup = A;
note = Acircumflexacute;
rightKerningGroup = A;
unicode = 1EA4;
},
{
glyphname = Acircumflexdotbelow;
lastChange = "2015-10-23 14:03:17 +0000";
layers = (
{
layerId = "47126D52-4795-4BAD-A976-8664E9644ACA";
name = Bold;
paths = (
{
closed = 1;
nodes = (
"221 0 LINE",
"274 137 LINE",
"468 137 LINE",
"522 0 LINE",
"718 0 LINE",
"471 644 LINE",
"272 644 LINE",
"25 0 LINE"
);
},
{
closed = 1;
nodes = (
"436 -176 LINE",
"436 -56 LINE",
"306 -56 LINE",
"306 -176 LINE"
);
},
{
closed = 1;
nodes = (
"371 461 LINE",
"443 272 LINE",
"299 272 LINE"
);
},
{
closed = 1;
nodes = (
"299 688 LINE",
"371 796 LINE",
"447 688 LINE",
"583 688 LINE",
"428 888 LINE",
"314 888 LINE",
"159 688 LINE"
);
}
);
width = 743;
}
);
leftKerningGroup = A;
note = Acircumflexdotbelow;
rightKerningGroup = A;
unicode = 1EAC;
},
{
glyphname = Acircumflexgrave;
lastChange = "2015-10-23 14:03:17 +0000";
layers = (
{
layerId = "47126D52-4795-4BAD-A976-8664E9644ACA";
name = Bold;
paths = (
{
closed = 1;
nodes = (
"221 0 LINE",
"274 137 LINE",
"468 137 LINE",
"522 0 LINE",
"718 0 LINE",
"471 644 LINE",
"272 644 LINE",
"25 0 LINE"
);
},
{
closed = 1;
nodes = (
"371 461 LINE",
"443 272 LINE",
"299 272 LINE"
);
},
{
closed = 1;
nodes = (
"252 812 LINE",
"181 968 LINE",
"42 968 LINE",
"120 812 LINE"
);
},
{
closed = 1;
nodes = (
"312 687 LINE",
"374 766 LINE",
"436 687 LINE",
"585 687 LINE",
"443 839 LINE",
"305 839 LINE",
"163 687 LINE"
);
}
);
width = 743;
}
);
leftKerningGroup = A;
note = Acircumflexgrave;
rightKerningGroup = A;
unicode = 1EA6;
},
{
glyphname = Acircumflexhookabove;
lastChange = "2015-10-23 14:03:17 +0000";
layers = (
{
layerId = "47126D52-4795-4BAD-A976-8664E9644ACA";
name = Bold;
paths = (
{
closed = 1;
nodes = (
"221 0 LINE",
"274 137 LINE",
"468 137 LINE",
"522 0 LINE",
"718 0 LINE",
"471 644 LINE",
"272 644 LINE",
"25 0 LINE"
);
},
{
closed = 1;
nodes = (
"371 461 LINE",
"443 272 LINE",
"299 272 LINE"
);
},
{
closed = 1;
nodes = (
"308 688 LINE",
"370 767 LINE",
"432 688 LINE",
"581 688 LINE",
"439 840 LINE",
"301 840 LINE",
"159 688 LINE"
);
},
{
closed = 1;
nodes = (
"627 790 LINE",
"627 823 LINE",
"677 831 OFFCURVE",
"700 862 OFFCURVE",
"700 907 CURVE SMOOTH",
"700 960 OFFCURVE",
"661 993 OFFCURVE",
"580 993 CURVE SMOOTH",
"541 993 OFFCURVE",
"505 988 OFFCURVE",
"481 981 CURVE",
"481 909 LINE",
"496 913 OFFCURVE",
"513 916 OFFCURVE",
"532 916 CURVE SMOOTH",
"558 916 OFFCURVE",
"574 910 OFFCURVE",
"574 894 CURVE SMOOTH",
"574 877 OFFCURVE",
"561 864 OFFCURVE",
"502 863 CURVE",
"502 790 LINE"
);
}
);
width = 743;
}
);
leftKerningGroup = A;
note = Acircumflexhookabove;
rightKerningGroup = A;
unicode = 1EA8;
},
{
glyphname = Acircumflextilde;
lastChange = "2015-10-23 14:03:17 +0000";
layers = (
{
layerId = "47126D52-4795-4BAD-A976-8664E9644ACA";
name = Bold;
paths = (
{
closed = 1;
nodes = (
"221 0 LINE",
"274 137 LINE",
"468 137 LINE",
"522 0 LINE",
"718 0 LINE",
"471 644 LINE",
"272 644 LINE",
"25 0 LINE"
);
},
{
closed = 1;
nodes = (
"371 461 LINE",
"443 272 LINE",
"299 272 LINE"
);
},
{
closed = 1;
nodes = (
"309 688 LINE",
"371 767 LINE",
"433 688 LINE",
"582 688 LINE",
"440 840 LINE",
"302 840 LINE",
"160 688 LINE"
);
},
{
closed = 1;
nodes = (
"510 855 OFFCURVE",
"544 870 OFFCURVE",
"557 887 CURVE",
"557 993 LINE",
"541 970 OFFCURVE",
"509 954 OFFCURVE",
"468 954 CURVE SMOOTH",
"408 954 OFFCURVE",
"357 995 OFFCURVE",
"292 995 CURVE SMOOTH",
"254 995 OFFCURVE",
"218 981 OFFCURVE",
"200 963 CURVE",
"200 858 LINE",
"223 882 OFFCURVE",
"254 896 OFFCURVE",
"295 896 CURVE SMOOTH",
"349 896 OFFCURVE",
"408 855 OFFCURVE",
"471 855 CURVE SMOOTH"
);
}
);
width = 743;
}
);
leftKerningGroup = A;
note = Acircumflextilde;
rightKerningGroup = A;
unicode = 1EAA;
},
{
glyphname = Adieresis;
lastChange = "2015-10-23 14:03:17 +0000";
layers = (
{
layerId = "47126D52-4795-4BAD-A976-8664E9644ACA";
name = Bold;
paths = (
{
closed = 1;
nodes = (
"221 0 LINE",
"274 137 LINE",
"468 137 LINE",
"522 0 LINE",
"718 0 LINE",
"471 644 LINE",
"272 644 LINE",
"25 0 LINE"
);
},
{
closed = 1;
nodes = (
"371 461 LINE",
"443 272 LINE",
"299 272 LINE"
);
},
{
closed = 1;
nodes = (
"329 714 LINE",
"329 834 LINE",
"198 834 LINE",
"198 714 LINE"
);
},
{
closed = 1;
nodes = (
"545 714 LINE",
"545 834 LINE",
"414 834 LINE",
"414 714 LINE"
);
}
);
width = 743;
}
);
leftKerningGroup = A;
note = Adieresis;
rightKerningGroup = A;
unicode = 00C4;
},
{
glyphname = Adotbelow;
lastChange = "2015-10-23 14:03:17 +0000";
layers = (
{
layerId = "47126D52-4795-4BAD-A976-8664E9644ACA";
name = Bold;
paths = (
{
closed = 1;
nodes = (
"221 0 LINE",
"274 137 LINE",
"468 137 LINE",
"522 0 LINE",
"718 0 LINE",
"471 644 LINE",
"272 644 LINE",
"25 0 LINE"
);
},
{
closed = 1;
nodes = (
"435 -176 LINE",
"435 -56 LINE",
"305 -56 LINE",
"305 -176 LINE"
);
},
{
closed = 1;
nodes = (
"371 461 LINE",
"443 272 LINE",
"299 272 LINE"
);
}
);
width = 743;
}
);
note = Adotbelow;
unicode = 1EA0;
},
{
glyphname = Agrave;
lastChange = "2015-10-23 14:03:17 +0000";
layers = (
{
layerId = "47126D52-4795-4BAD-A976-8664E9644ACA";
name = Bold;
paths = (
{
closed = 1;
nodes = (
"221 0 LINE",
"274 137 LINE",
"468 137 LINE",
"522 0 LINE",
"718 0 LINE",
"471 644 LINE",
"272 644 LINE",
"25 0 LINE"
);
},
{
closed = 1;
nodes = (
"371 461 LINE",
"443 272 LINE",
"299 272 LINE"
);
},
{
closed = 1;
nodes = (
"439 688 LINE",
"351 894 LINE",
"204 894 LINE",
"301 688 LINE"
);
}
);
width = 743;
}
);
leftKerningGroup = A;
note = Agrave;
rightKerningGroup = A;
unicode = 00C0;
},
{
glyphname = Ahookabove;
lastChange = "2015-10-23 14:03:17 +0000";
layers = (
{
layerId = "47126D52-4795-4BAD-A976-8664E9644ACA";
name = Bold;
paths = (
{
closed = 1;
nodes = (
"221 0 LINE",
"274 137 LINE",
"468 137 LINE",
"522 0 LINE",
"718 0 LINE",
"471 644 LINE",
"272 644 LINE",
"25 0 LINE"
);
},
{
closed = 1;
nodes = (
"371 461 LINE",
"443 272 LINE",
"299 272 LINE"
);
},
{
closed = 1;
nodes = (
"441 688 LINE",
"441 729 LINE",
"496 745 OFFCURVE",
"525 771 OFFCURVE",
"525 829 CURVE SMOOTH",
"525 888 OFFCURVE",
"475 930 OFFCURVE",
"384 930 CURVE SMOOTH",
"336 930 OFFCURVE",
"297 925 OFFCURVE",
"269 916 CURVE",
"269 838 LINE",
"285 842 OFFCURVE",
"309 846 OFFCURVE",
"328 846 CURVE SMOOTH",
"367 846 OFFCURVE",
"388 836 OFFCURVE",
"388 813 CURVE SMOOTH",
"388 788 OFFCURVE",
"369 773 OFFCURVE",
"300 769 CURVE",
"300 688 LINE"
);
}
);
width = 743;
}
);
leftKerningGroup = A;
note = Ahookabove;
rightKerningGroup = A;
unicode = 1EA2;
},
{
glyphname = Amacron;
lastChange = "2015-10-23 14:03:17 +0000";
layers = (
{
layerId = "47126D52-4795-4BAD-A976-8664E9644ACA";
name = Bold;
paths = (
{
closed = 1;
nodes = (
"221 0 LINE",
"274 137 LINE",
"468 137 LINE",
"522 0 LINE",
"718 0 LINE",
"471 644 LINE",
"272 644 LINE",
"25 0 LINE"
);
},
{
closed = 1;
nodes = (
"371 461 LINE",
"443 272 LINE",
"299 272 LINE"
);
},
{
closed = 1;
nodes = (
"535 702 LINE",
"535 814 LINE",
"207 814 LINE",
"207 702 LINE"
);
}
);
width = 743;
}
);
leftKerningGroup = A;
note = Amacron;
rightKerningGroup = A;
unicode = 0100;
},
{
glyphname = Aogonek;
lastChange = "2015-11-25 11:09:57 +0000";
layers = (
{
layerId = "47126D52-4795-4BAD-A976-8664E9644ACA";
name = Bold;
paths = (
{
closed = 1;
nodes = (
"221 0 LINE",
"274 137 LINE",
"468 137 LINE",
"522 0 LINE",
"718 0 LINE",
"471 644 LINE",
"272 644 LINE",
"25 0 LINE"
);
},
{
closed = 1;
nodes = (
"646 -220 OFFCURVE",
"687 -212 OFFCURVE",
"707 -204 CURVE",
"707 -118 LINE",
"695 -125 OFFCURVE",
"674 -129 OFFCURVE",
"657 -129 CURVE SMOOTH",
"629 -129 OFFCURVE",
"614 -115 OFFCURVE",
"614 -89 CURVE SMOOTH",
"614 -55 OFFCURVE",
"638 -26 OFFCURVE",
"672 0 CURVE",
"547 0 LINE",
"503 -28 OFFCURVE",
"473 -72 OFFCURVE",
"473 -123 CURVE SMOOTH",
"473 -190 OFFCURVE",
"529 -220 OFFCURVE",
"605 -220 CURVE SMOOTH"
);
},
{
closed = 1;
nodes = (
"371 461 LINE",
"443 272 LINE",
"299 272 LINE"
);
}
);
width = 743;
}
);
leftKerningGroup = A;
note = Aogonek;
rightKerningGroup = A;
unicode = 0104;
},
{
glyphname = Aring;
lastChange = "2015-10-23 14:03:17 +0000";
layers = (
{
layerId = "47126D52-4795-4BAD-A976-8664E9644ACA";
name = Bold;
paths = (
{
closed = 1;
nodes = (
"221 0 LINE",
"274 137 LINE",
"468 137 LINE",
"522 0 LINE",
"718 0 LINE",
"471 644 LINE",
"272 644 LINE",
"25 0 LINE"
);
},
{
closed = 1;
nodes = (
"371 461 LINE",
"443 272 LINE",
"299 272 LINE"
);
},
{
closed = 1;
nodes = (
"460 591 OFFCURVE",
"510 648 OFFCURVE",
"510 722 CURVE SMOOTH",
"510 796 OFFCURVE",
"460 854 OFFCURVE",
"371 854 CURVE SMOOTH",
"283 854 OFFCURVE",
"232 796 OFFCURVE",
"232 722 CURVE SMOOTH",
"232 648 OFFCURVE",
"283 591 OFFCURVE",
"371 591 CURVE SMOOTH"
);
},
{
closed = 1;
nodes = (
"335 668 OFFCURVE",
"315 692 OFFCURVE",
"315 722 CURVE SMOOTH",
"315 751 OFFCURVE",
"335 776 OFFCURVE",
"371 776 CURVE SMOOTH",
"408 776 OFFCURVE",
"427 751 OFFCURVE",
"427 722 CURVE SMOOTH",
"427 692 OFFCURVE",
"408 668 OFFCURVE",
"371 668 CURVE SMOOTH"
);
}
);
width = 743;
}
);
leftKerningGroup = A;
note = Aring;
rightKerningGroup = A;
unicode = 00C5;
},
{
glyphname = Aringacute;
lastChange = "2015-10-23 14:03:17 +0000";
layers = (
{
layerId = "47126D52-4795-4BAD-A976-8664E9644ACA";
name = Bold;
paths = (
{
closed = 1;
nodes = (
"221 0 LINE",
"274 137 LINE",
"468 137 LINE",
"522 0 LINE",
"718 0 LINE",
"471 644 LINE",
"272 644 LINE",
"25 0 LINE"
);
},
{
closed = 1;
nodes = (
"371 461 LINE",
"443 272 LINE",
"299 272 LINE"
);
},
{
closed = 1;
nodes = (
"460 591 OFFCURVE",
"510 648 OFFCURVE",
"510 722 CURVE SMOOTH",
"510 796 OFFCURVE",
"460 854 OFFCURVE",
"371 854 CURVE SMOOTH",
"283 854 OFFCURVE",
"232 796 OFFCURVE",
"232 722 CURVE SMOOTH",
"232 648 OFFCURVE",
"283 591 OFFCURVE",
"371 591 CURVE SMOOTH"
);
},
{
closed = 1;
nodes = (
"335 668 OFFCURVE",
"315 692 OFFCURVE",
"315 722 CURVE SMOOTH",
"315 751 OFFCURVE",
"335 776 OFFCURVE",
"371 776 CURVE SMOOTH",
"408 776 OFFCURVE",
"427 751 OFFCURVE",
"427 722 CURVE SMOOTH",
"427 692 OFFCURVE",
"408 668 OFFCURVE",
"371 668 CURVE SMOOTH"
);
},
{
closed = 1;
nodes = (
"428 880 LINE",
"524 1065 LINE",
"378 1065 LINE",
"290 880 LINE"
);
}
);
width = 743;
}
);
leftKerningGroup = A;
note = Aringacute;
rightKerningGroup = A;
unicode = 01FA;
},
{
glyphname = Atilde;
lastChange = "2015-10-23 14:03:17 +0000";
layers = (
{
layerId = "47126D52-4795-4BAD-A976-8664E9644ACA";
name = Bold;
paths = (
{
closed = 1;
nodes = (
"221 0 LINE",
"274 137 LINE",
"468 137 LINE",
"522 0 LINE",
"718 0 LINE",
"471 644 LINE",
"272 644 LINE",
"25 0 LINE"
);
},
{
closed = 1;
nodes = (
"371 461 LINE",
"443 272 LINE",
"299 272 LINE"
);
},
{
closed = 1;
nodes = (
"507 691 OFFCURVE",
"542 706 OFFCURVE",
"555 724 CURVE",
"555 843 LINE",
"539 820 OFFCURVE",
"507 803 OFFCURVE",
"465 803 CURVE SMOOTH",
"402 803 OFFCURVE",
"351 845 OFFCURVE",
"284 845 CURVE SMOOTH",
"245 845 OFFCURVE",
"208 830 OFFCURVE",
"189 812 CURVE",
"189 694 LINE",
"213 718 OFFCURVE",
"245 733 OFFCURVE",
"287 733 CURVE SMOOTH",
"342 733 OFFCURVE",
"402 691 OFFCURVE",
"468 691 CURVE SMOOTH"
);
}
);
width = 743;
}
);
leftKerningGroup = A;
note = Atilde;
rightKerningGroup = A;
unicode = 00C3;
},
{
glyphname = AE;
lastChange = "2015-10-23 14:03:17 +0000";
layers = (
{
layerId = "47126D52-4795-4BAD-A976-8664E9644ACA";
name = Bold;
paths = (
{
closed = 1;
nodes = (
"224 0 LINE",
"277 138 LINE",
"402 138 LINE",
"402 0 LINE",
"834 0 LINE",
"834 144 LINE",
"586 144 LINE",
"586 249 LINE",
"797 249 LINE",
"797 395 LINE",
"586 395 LINE",
"586 500 LINE",
"834 500 LINE",
"834 644 LINE",
"272 644 LINE",
"25 0 LINE"
);
},
{
closed = 1;
nodes = (
"396 500 LINE",
"402 500 LINE",
"402 284 LINE",
"313 284 LINE"
);
}
);
width = 859;
}
);
leftKerningGroup = A;
note = AE;
rightKerningGroup = E;
unicode = 00C6;
},
{
glyphname = AEacute;
lastChange = "2015-10-23 14:03:17 +0000";
layers = (
{
layerId = "47126D52-4795-4BAD-A976-8664E9644ACA";
name = Bold;
paths = (
{
closed = 1;
nodes = (
"224 0 LINE",
"277 138 LINE",
"402 138 LINE",
"402 0 LINE",
"834 0 LINE",
"834 144 LINE",
"586 144 LINE",
"586 249 LINE",
"797 249 LINE",
"797 395 LINE",
"586 395 LINE",
"586 500 LINE",
"834 500 LINE",
"834 644 LINE",
"272 644 LINE",
"25 0 LINE"
);
},
{
closed = 1;
nodes = (
"396 500 LINE",
"402 500 LINE",
"402 284 LINE",
"313 284 LINE"
);
},
{
closed = 1;
nodes = (
"555 688 LINE",
"651 894 LINE",
"505 894 LINE",
"417 688 LINE"
);
}
);
width = 859;
}
);
leftKerningGroup = A;
note = AEacute;
rightKerningGroup = E;
unicode = 01FC;
},
{
glyphname = B;
lastChange = "2015-10-23 14:03:17 +0000";
layers = (
{
layerId = "47126D52-4795-4BAD-A976-8664E9644ACA";
name = Bold;
paths = (
{
closed = 1;
nodes = (
"407 0 LINE SMOOTH",
"544 0 OFFCURVE",
"622 69 OFFCURVE",
"622 191 CURVE SMOOTH",
"622 271 OFFCURVE",
"587 306 OFFCURVE",
"532 328 CURVE",
"572 354 OFFCURVE",
"599 399 OFFCURVE",
"599 466 CURVE SMOOTH",
"599 580 OFFCURVE",
"529 644 OFFCURVE",
"399 644 CURVE SMOOTH",
"45 644 LINE",
"45 0 LINE"
);
},
{
closed = 1;
nodes = (
"226 263 LINE",
"352 263 LINE SMOOTH",
"408 263 OFFCURVE",
"430 241 OFFCURVE",
"430 200 CURVE SMOOTH",
"430 150 OFFCURVE",
"406 131 OFFCURVE",
"356 131 CURVE SMOOTH",
"226 131 LINE"
);
},
{
closed = 1;
nodes = (
"226 512 LINE",
"343 512 LINE SMOOTH",
"397 512 OFFCURVE",
"417 490 OFFCURVE",
"417 449 CURVE SMOOTH",
"417 409 OFFCURVE",
"396 387 OFFCURVE",
"348 387 CURVE SMOOTH",
"226 387 LINE"
);
}
);
width = 647;
}
);
note = B;
unicode = 0042;
},
{
glyphname = C;
lastChange = "2015-10-23 14:03:17 +0000";
layers = (
{
layerId = "47126D52-4795-4BAD-A976-8664E9644ACA";
name = Bold;
paths = (
{
closed = 1;
nodes = (
"464 -10 OFFCURVE",
"524 2 OFFCURVE",
"582 22 CURVE",
"582 187 LINE",
"522 161 OFFCURVE",
"462 150 OFFCURVE",
"398 150 CURVE SMOOTH",
"281 150 OFFCURVE",
"217 199 OFFCURVE",
"217 319 CURVE SMOOTH",
"217 442 OFFCURVE",
"275 494 OFFCURVE",
"396 494 CURVE SMOOTH",
"462 494 OFFCURVE",
"521 482 OFFCURVE",
"580 456 CURVE",
"580 620 LINE",
"522 641 OFFCURVE",
"463 654 OFFCURVE",
"383 654 CURVE SMOOTH",
"145 654 OFFCURVE",
"25 535 OFFCURVE",
"25 319 CURVE SMOOTH",
"25 109 OFFCURVE",
"150 -10 OFFCURVE",
"384 -10 CURVE SMOOTH"
);
}
);
width = 607;
}
);
leftKerningGroup = C;
note = C;
unicode = 0043;
},
{
glyphname = Cacute;
lastChange = "2015-10-23 14:03:17 +0000";
layers = (
{
layerId = "47126D52-4795-4BAD-A976-8664E9644ACA";
name = Bold;
paths = (
{
closed = 1;
nodes = (
"464 -10 OFFCURVE",
"524 2 OFFCURVE",
"582 22 CURVE",
"582 187 LINE",
"522 161 OFFCURVE",
"462 150 OFFCURVE",
"398 150 CURVE SMOOTH",
"281 150 OFFCURVE",
"217 199 OFFCURVE",
"217 319 CURVE SMOOTH",
"217 442 OFFCURVE",
"275 494 OFFCURVE",
"396 494 CURVE SMOOTH",
"462 494 OFFCURVE",
"521 482 OFFCURVE",
"580 456 CURVE",
"580 620 LINE",
"522 641 OFFCURVE",
"463 654 OFFCURVE",
"383 654 CURVE SMOOTH",
"145 654 OFFCURVE",
"25 535 OFFCURVE",
"25 319 CURVE SMOOTH",
"25 109 OFFCURVE",
"150 -10 OFFCURVE",
"384 -10 CURVE SMOOTH"
);
},
{
closed = 1;
nodes = (
"436 688 LINE",
"532 894 LINE",
"386 894 LINE",
"298 688 LINE"
);
}
);
width = 607;
}
);
leftKerningGroup = C;
note = Cacute;
unicode = 0106;
},
{
glyphname = Ccaron;
lastChange = "2015-10-23 14:03:17 +0000";
layers = (
{
layerId = "47126D52-4795-4BAD-A976-8664E9644ACA";
name = Bold;
paths = (
{
closed = 1;
nodes = (
"464 -10 OFFCURVE",
"524 2 OFFCURVE",
"582 22 CURVE",
"582 187 LINE",
"522 161 OFFCURVE",
"462 150 OFFCURVE",
"398 150 CURVE SMOOTH",
"281 150 OFFCURVE",
"217 199 OFFCURVE",
"217 319 CURVE SMOOTH",
"217 442 OFFCURVE",
"275 494 OFFCURVE",
"396 494 CURVE SMOOTH",
"462 494 OFFCURVE",
"521 482 OFFCURVE",
"580 456 CURVE",
"580 620 LINE",
"522 641 OFFCURVE",
"463 654 OFFCURVE",
"383 654 CURVE SMOOTH",
"145 654 OFFCURVE",
"25 535 OFFCURVE",
"25 319 CURVE SMOOTH",
"25 109 OFFCURVE",
"150 -10 OFFCURVE",
"384 -10 CURVE SMOOTH"
);
},
{
closed = 1;
nodes = (
"420 688 LINE",
"575 888 LINE",
"439 888 LINE",
"363 779 LINE",
"291 888 LINE",
"151 888 LINE",
"306 688 LINE"
);
}
);
width = 607;
}
);
leftKerningGroup = C;
note = Ccaron;
unicode = 010C;
},
{
glyphname = Ccedilla;
lastChange = "2015-10-23 14:03:17 +0000";
layers = (
{
layerId = "47126D52-4795-4BAD-A976-8664E9644ACA";
name = Bold;
paths = (
{
closed = 1;
nodes = (
"464 -10 OFFCURVE",
"524 2 OFFCURVE",
"582 22 CURVE",
"582 187 LINE",
"522 161 OFFCURVE",
"462 150 OFFCURVE",
"398 150 CURVE SMOOTH",
"281 150 OFFCURVE",
"217 199 OFFCURVE",
"217 319 CURVE SMOOTH",
"217 442 OFFCURVE",
"275 494 OFFCURVE",
"396 494 CURVE SMOOTH",
"462 494 OFFCURVE",
"521 482 OFFCURVE",
"580 456 CURVE",
"580 620 LINE",
"522 641 OFFCURVE",
"463 654 OFFCURVE",
"383 654 CURVE SMOOTH",
"145 654 OFFCURVE",
"25 535 OFFCURVE",
"25 319 CURVE SMOOTH",
"25 109 OFFCURVE",
"150 -10 OFFCURVE",
"384 -10 CURVE SMOOTH"
);
},
{
closed = 1;
nodes = (
"477 -240 OFFCURVE",
"529 -201 OFFCURVE",
"529 -135 CURVE SMOOTH",
"529 -80 OFFCURVE",
"496 -41 OFFCURVE",
"417 -41 CURVE",
"432 0 LINE",
"329 0 LINE",
"300 -101 LINE",
"363 -101 LINE SMOOTH",
"395 -101 OFFCURVE",
"417 -105 OFFCURVE",
"417 -132 CURVE SMOOTH",
"417 -158 OFFCURVE",
"396 -166 OFFCURVE",
"345 -166 CURVE SMOOTH",
"325 -166 OFFCURVE",
"304 -163 OFFCURVE",
"286 -158 CURVE",
"286 -232 LINE",
"301 -236 OFFCURVE",
"344 -240 OFFCURVE",
"368 -240 CURVE SMOOTH"
);
}
);
width = 607;
}
);
leftKerningGroup = C;
note = Ccedilla;
unicode = 00C7;
},
{
glyphname = Ccircumflex;
lastChange = "2015-10-23 14:03:17 +0000";
layers = (
{
layerId = "47126D52-4795-4BAD-A976-8664E9644ACA";
name = Bold;
paths = (
{
closed = 1;
nodes = (
"464 -10 OFFCURVE",
"524 2 OFFCURVE",
"582 22 CURVE",
"582 187 LINE",
"522 161 OFFCURVE",
"462 150 OFFCURVE",
"398 150 CURVE SMOOTH",
"281 150 OFFCURVE",
"217 199 OFFCURVE",
"217 319 CURVE SMOOTH",
"217 442 OFFCURVE",
"275 494 OFFCURVE",
"396 494 CURVE SMOOTH",
"462 494 OFFCURVE",
"521 482 OFFCURVE",
"580 456 CURVE",
"580 620 LINE",
"522 641 OFFCURVE",
"463 654 OFFCURVE",
"383 654 CURVE SMOOTH",
"145 654 OFFCURVE",
"25 535 OFFCURVE",
"25 319 CURVE SMOOTH",
"25 109 OFFCURVE",
"150 -10 OFFCURVE",
"384 -10 CURVE SMOOTH"
);
},
{
closed = 1;
nodes = (
"276 688 LINE",
"348 796 LINE",
"424 688 LINE",
"560 688 LINE",
"405 888 LINE",
"291 888 LINE",
"136 688 LINE"
);
}
);
width = 607;
}
);
leftKerningGroup = C;
note = Ccircumflex;
unicode = 0108;
},
{
glyphname = Cdotaccent;
lastChange = "2015-10-23 14:03:17 +0000";
layers = (
{
layerId = "47126D52-4795-4BAD-A976-8664E9644ACA";
name = Bold;
paths = (
{
closed = 1;
nodes = (
"464 -10 OFFCURVE",
"524 2 OFFCURVE",
"582 22 CURVE",
"582 187 LINE",
"522 161 OFFCURVE",
"462 150 OFFCURVE",
"398 150 CURVE SMOOTH",
"281 150 OFFCURVE",
"217 199 OFFCURVE",
"217 319 CURVE SMOOTH",
"217 442 OFFCURVE",
"275 494 OFFCURVE",
"396 494 CURVE SMOOTH",
"462 494 OFFCURVE",
"521 482 OFFCURVE",
"580 456 CURVE",
"580 620 LINE",
"522 641 OFFCURVE",
"463 654 OFFCURVE",
"383 654 CURVE SMOOTH",
"145 654 OFFCURVE",
"25 535 OFFCURVE",
"25 319 CURVE SMOOTH",
"25 109 OFFCURVE",
"150 -10 OFFCURVE",
"384 -10 CURVE SMOOTH"
);
},
{
closed = 1;
nodes = (
"426 715 LINE",
"426 835 LINE",
"296 835 LINE",
"296 715 LINE"
);
}
);
width = 607;
}
);
leftKerningGroup = C;
note = Cdotaccent;
unicode = 010A;
},
{
glyphname = D;
lastChange = "2015-10-23 14:03:17 +0000";
layers = (
{
layerId = "47126D52-4795-4BAD-A976-8664E9644ACA";
name = Bold;
paths = (
{
closed = 1;
nodes = (
"333 0 LINE SMOOTH",
"534 0 OFFCURVE",
"646 96 OFFCURVE",
"646 318 CURVE SMOOTH",
"646 553 OFFCURVE",
"531 644 OFFCURVE",
"333 644 CURVE SMOOTH",
"45 644 LINE",
"45 0 LINE"
);
},
{
closed = 1;
nodes = (
"233 500 LINE",
"309 500 LINE SMOOTH",
"409 500 OFFCURVE",
"454 461 OFFCURVE",
"454 318 CURVE SMOOTH",
"454 175 OFFCURVE",
"402 144 OFFCURVE",
"309 144 CURVE SMOOTH",
"233 144 LINE"
);
}
);
width = 671;
}
);
note = D;
rightKerningGroup = D;
unicode = 0044;
},
{
glyphname = Eth;
lastChange = "2015-10-23 14:03:17 +0000";
layers = (
{
layerId = "47126D52-4795-4BAD-A976-8664E9644ACA";
name = Bold;
paths = (
{
closed = 1;
nodes = (
"372 0 LINE SMOOTH",
"573 0 OFFCURVE",
"685 96 OFFCURVE",
"685 318 CURVE SMOOTH",
"685 553 OFFCURVE",
"570 644 OFFCURVE",
"372 644 CURVE SMOOTH",
"84 644 LINE",
"84 0 LINE"
);
},
{
closed = 1;
nodes = (
"374 251 LINE",
"374 380 LINE",
"5 380 LINE",
"5 251 LINE"
);
},
{
closed = 1;
nodes = (
"272 500 LINE",
"348 500 LINE SMOOTH",
"448 500 OFFCURVE",
"493 461 OFFCURVE",
"493 318 CURVE SMOOTH",
"493 175 OFFCURVE",
"441 144 OFFCURVE",
"348 144 CURVE SMOOTH",
"272 144 LINE"
);
}
);
width = 710;
}
);
note = Eth;
rightKerningGroup = D;
unicode = 00D0;
},
{
glyphname = Dcaron;
lastChange = "2015-10-23 14:03:17 +0000";
layers = (
{
layerId = "47126D52-4795-4BAD-A976-8664E9644ACA";
name = Bold;
paths = (
{
closed = 1;
nodes = (
"333 0 LINE SMOOTH",
"534 0 OFFCURVE",
"646 96 OFFCURVE",
"646 318 CURVE SMOOTH",
"646 553 OFFCURVE",
"531 644 OFFCURVE",
"333 644 CURVE SMOOTH",
"45 644 LINE",
"45 0 LINE"
);
},
{
closed = 1;
nodes = (
"233 500 LINE",
"309 500 LINE SMOOTH",
"409 500 OFFCURVE",
"454 461 OFFCURVE",
"454 318 CURVE SMOOTH",
"454 175 OFFCURVE",
"402 144 OFFCURVE",
"309 144 CURVE SMOOTH",
"233 144 LINE"
);
},
{
closed = 1;
nodes = (
"353 688 LINE",
"508 888 LINE",
"372 888 LINE",
"296 779 LINE",
"224 888 LINE",
"84 888 LINE",
"239 688 LINE"
);
}
);
width = 671;
}
);
note = Dcaron;
rightKerningGroup = D;
unicode = 010E;
},
{
glyphname = Dcroat;
lastChange = "2015-10-23 14:03:17 +0000";
layers = (
{
layerId = "47126D52-4795-4BAD-A976-8664E9644ACA";
name = Bold;
paths = (
{
closed = 1;
nodes = (
"362 0 LINE SMOOTH",
"563 0 OFFCURVE",
"675 96 OFFCURVE",
"675 318 CURVE SMOOTH",
"675 553 OFFCURVE",
"560 644 OFFCURVE",
"362 644 CURVE SMOOTH",
"74 644 LINE",
"74 0 LINE"
);
},
{
closed = 1;
nodes = (
"364 251 LINE",
"364 380 LINE",
"-5 380 LINE",
"-5 251 LINE"
);
},
{
closed = 1;
nodes = (
"262 500 LINE",
"338 500 LINE SMOOTH",
"438 500 OFFCURVE",
"483 461 OFFCURVE",
"483 318 CURVE SMOOTH",
"483 175 OFFCURVE",
"431 144 OFFCURVE",
"338 144 CURVE SMOOTH",
"262 144 LINE"
);
}
);
width = 700;
}
);
note = Dcroat;
rightKerningGroup = D;
unicode = 0110;
},
{
glyphname = Ddotbelow;
lastChange = "2015-10-23 14:03:17 +0000";
layers = (
{
layerId = "47126D52-4795-4BAD-A976-8664E9644ACA";
name = Bold;
paths = (
{
closed = 1;
nodes = (
"333 0 LINE SMOOTH",
"534 0 OFFCURVE",
"646 96 OFFCURVE",
"646 318 CURVE SMOOTH",
"646 553 OFFCURVE",
"531 644 OFFCURVE",
"333 644 CURVE SMOOTH",
"45 644 LINE",
"45 0 LINE"
);
},
{
closed = 1;
nodes = (
"345 -197 LINE",
"345 -77 LINE",
"215 -77 LINE",
"215 -197 LINE"
);
},
{
closed = 1;
nodes = (
"233 500 LINE",
"309 500 LINE SMOOTH",
"409 500 OFFCURVE",
"454 461 OFFCURVE",
"454 318 CURVE SMOOTH",
"454 175 OFFCURVE",
"402 144 OFFCURVE",
"309 144 CURVE SMOOTH",
"233 144 LINE"
);
}
);
width = 671;
}
);
note = Ddotbelow;
rightKerningGroup = D;
unicode = 1E0C;
},
{
glyphname = Dlinebelow;
lastChange = "2015-10-23 14:03:17 +0000";
layers = (
{
layerId = "47126D52-4795-4BAD-A976-8664E9644ACA";
name = Bold;
paths = (
{
closed = 1;
nodes = (
"333 0 LINE SMOOTH",
"534 0 OFFCURVE",
"646 96 OFFCURVE",
"646 318 CURVE SMOOTH",
"646 553 OFFCURVE",
"531 644 OFFCURVE",
"333 644 CURVE SMOOTH",
"45 644 LINE",
"45 0 LINE"
);
},
{
closed = 1;
nodes = (
"491 -176 LINE",
"491 -64 LINE",
"163 -64 LINE",
"163 -176 LINE"
);
},
{
closed = 1;
nodes = (
"233 500 LINE",
"309 500 LINE SMOOTH",
"409 500 OFFCURVE",
"454 461 OFFCURVE",
"454 318 CURVE SMOOTH",
"454 175 OFFCURVE",
"402 144 OFFCURVE",
"309 144 CURVE SMOOTH",
"233 144 LINE"
);
}
);
width = 671;
}
);
note = Dlinebelow;
rightKerningGroup = D;
unicode = 1E0E;
},
{
glyphname = E;
lastChange = "2015-11-25 11:11:27 +0000";
layers = (
{
layerId = "47126D52-4795-4BAD-A976-8664E9644ACA";
name = Bold;
paths = (
{
closed = 1;
nodes = (
"533 0 LINE",
"533 144 LINE",
"233 144 LINE",
"233 249 LINE",
"496 249 LINE",
"496 395 LINE",
"233 395 LINE",
"233 500 LINE",
"533 500 LINE",
"533 644 LINE",
"45 644 LINE",
"45 0 LINE"
);
}
);
width = 548;
}
);
note = E;
unicode = 0045;
},
{
glyphname = Eacute;
lastChange = "2015-11-25 11:11:27 +0000";
layers = (
{
layerId = "47126D52-4795-4BAD-A976-8664E9644ACA";
name = Bold;
paths = (
{
closed = 1;
nodes = (
"533 0 LINE",
"533 144 LINE",
"233 144 LINE",
"233 249 LINE",
"496 249 LINE",
"496 395 LINE",
"233 395 LINE",
"233 500 LINE",
"533 500 LINE",
"533 644 LINE",
"45 644 LINE",
"45 0 LINE"
);
},
{
closed = 1;
nodes = (
"339 688 LINE",
"435 894 LINE",
"289 894 LINE",
"201 688 LINE"
);
}
);
width = 548;
}
);
note = Eacute;
unicode = 00C9;
},
{
glyphname = Ebreve;
lastChange = "2015-11-25 11:11:27 +0000";
layers = (
{
layerId = "47126D52-4795-4BAD-A976-8664E9644ACA";
name = Bold;
paths = (
{
closed = 1;
nodes = (
"533 0 LINE",
"533 144 LINE",
"233 144 LINE",
"233 249 LINE",
"496 249 LINE",
"496 395 LINE",
"233 395 LINE",
"233 500 LINE",
"533 500 LINE",
"533 644 LINE",
"45 644 LINE",
"45 0 LINE"
);
},
{
closed = 1;
nodes = (
"406 689 OFFCURVE",
"482 755 OFFCURVE",
"482 876 CURVE",
"360 876 LINE",
"360 827 OFFCURVE",
"343 792 OFFCURVE",
"292 792 CURVE SMOOTH",
"241 792 OFFCURVE",
"225 827 OFFCURVE",
"225 876 CURVE",
"103 876 LINE",
"103 755 OFFCURVE",
"179 689 OFFCURVE",
"292 689 CURVE SMOOTH"
);
}
);
width = 548;
}
);
note = Ebreve;
unicode = 0114;
},
{
glyphname = Ecaron;
lastChange = "2015-11-25 11:11:27 +0000";
layers = (
{
layerId = "47126D52-4795-4BAD-A976-8664E9644ACA";
name = Bold;
paths = (
{
closed = 1;
nodes = (
"533 0 LINE",
"533 144 LINE",
"233 144 LINE",
"233 249 LINE",
"496 249 LINE",
"496 395 LINE",
"233 395 LINE",
"233 500 LINE",
"533 500 LINE",
"533 644 LINE",
"45 644 LINE",
"45 0 LINE"
);
},
{
closed = 1;
nodes = (
"353 688 LINE",
"508 888 LINE",
"372 888 LINE",
"296 779 LINE",
"224 888 LINE",
"84 888 LINE",
"239 688 LINE"
);
}
);
width = 548;
}
);
note = Ecaron;
unicode = 011A;
},
{
glyphname = Ecircumflex;
lastChange = "2015-11-25 11:11:27 +0000";
layers = (
{
layerId = "47126D52-4795-4BAD-A976-8664E9644ACA";
name = Bold;
paths = (
{
closed = 1;
nodes = (
"533 0 LINE",
"533 144 LINE",
"233 144 LINE",
"233 249 LINE",
"496 249 LINE",
"496 395 LINE",
"233 395 LINE",
"233 500 LINE",
"533 500 LINE",
"533 644 LINE",
"45 644 LINE",
"45 0 LINE"
);
},
{
closed = 1;
nodes = (
"218 688 LINE",
"290 796 LINE",
"366 688 LINE",
"502 688 LINE",
"347 888 LINE",
"233 888 LINE",
"78 688 LINE"
);
}
);
width = 548;
}
);
note = Ecircumflex;
unicode = 00CA;
},
{
glyphname = Ecircumflexacute;
lastChange = "2015-10-23 14:03:17 +0000";
layers = (
{
layerId = "47126D52-4795-4BAD-A976-8664E9644ACA";
name = Bold;
paths = (
{
closed = 1;
nodes = (
"533 0 LINE",
"533 144 LINE",
"233 144 LINE",
"233 249 LINE",
"496 249 LINE",
"496 395 LINE",
"233 395 LINE",
"233 500 LINE",
"533 500 LINE",
"533 644 LINE",
"45 644 LINE",
"45 0 LINE"
);
},
{
closed = 1;
nodes = (
"207 688 LINE",
"269 767 LINE",
"331 688 LINE",
"480 688 LINE",
"338 840 LINE",
"200 840 LINE",
"58 688 LINE"
);
},
{
closed = 1;
nodes = (
"523 813 LINE",
"601 969 LINE",
"462 969 LINE",
"391 813 LINE"
);
}
);
width = 548;
}
);
note = Ecircumflexacute;
unicode = 1EBE;
},
{
glyphname = Ecircumflexdotbelow;
lastChange = "2015-11-25 11:11:27 +0000";
layers = (
{
layerId = "47126D52-4795-4BAD-A976-8664E9644ACA";
name = Bold;
paths = (
{
closed = 1;
nodes = (
"533 0 LINE",
"533 144 LINE",
"233 144 LINE",
"233 249 LINE",
"496 249 LINE",
"496 395 LINE",
"233 395 LINE",
"233 500 LINE",
"533 500 LINE",
"533 644 LINE",
"45 644 LINE",
"45 0 LINE"
);
},
{
closed = 1;
nodes = (
"346 -176 LINE",
"346 -56 LINE",
"216 -56 LINE",
"216 -176 LINE"
);
},
{
closed = 1;
nodes = (
"209 688 LINE",
"281 796 LINE",
"357 688 LINE",
"493 688 LINE",
"338 888 LINE",
"224 888 LINE",
"69 688 LINE"
);
}
);
width = 548;
}
);
note = Ecircumflexdotbelow;
unicode = 1EC6;
},
{
glyphname = Ecircumflexgrave;
lastChange = "2015-10-23 14:03:17 +0000";
layers = (
{
layerId = "47126D52-4795-4BAD-A976-8664E9644ACA";
name = Bold;
paths = (
{
closed = 1;
nodes = (
"533 0 LINE",
"533 144 LINE",
"233 144 LINE",
"233 249 LINE",
"496 249 LINE",
"496 395 LINE",
"233 395 LINE",
"233 500 LINE",
"533 500 LINE",
"533 644 LINE",
"45 644 LINE",
"45 0 LINE"
);
},
{
closed = 1;
nodes = (
"161 813 LINE",
"90 969 LINE",
"-49 969 LINE",
"29 813 LINE"
);
},
{
closed = 1;
nodes = (
"221 688 LINE",
"283 767 LINE",
"345 688 LINE",
"494 688 LINE",
"352 840 LINE",
"214 840 LINE",
"72 688 LINE"
);
}
);
width = 548;
}
);
note = Ecircumflexgrave;
unicode = 1EC0;
},
{
glyphname = Ecircumflexhookabove;
lastChange = "2015-10-23 14:03:17 +0000";
layers = (
{
layerId = "47126D52-4795-4BAD-A976-8664E9644ACA";
name = Bold;
paths = (
{
closed = 1;
nodes = (
"533 0 LINE",
"533 144 LINE",
"233 144 LINE",
"233 249 LINE",
"496 249 LINE",
"496 395 LINE",
"233 395 LINE",
"233 500 LINE",
"533 500 LINE",
"533 644 LINE",
"45 644 LINE",
"45 0 LINE"
);
},
{
closed = 1;
nodes = (
"214 688 LINE",
"276 767 LINE",
"338 688 LINE",
"487 688 LINE",
"345 840 LINE",
"207 840 LINE",
"65 688 LINE"
);
},
{
closed = 1;
nodes = (
"533 790 LINE",
"533 823 LINE",
"583 831 OFFCURVE",
"606 862 OFFCURVE",
"606 907 CURVE SMOOTH",
"606 960 OFFCURVE",
"567 993 OFFCURVE",
"486 993 CURVE SMOOTH",
"447 993 OFFCURVE",
"411 988 OFFCURVE",
"387 981 CURVE",
"387 909 LINE",
"402 913 OFFCURVE",
"419 916 OFFCURVE",
"438 916 CURVE SMOOTH",
"464 916 OFFCURVE",
"480 910 OFFCURVE",
"480 894 CURVE SMOOTH",
"480 877 OFFCURVE",
"467 864 OFFCURVE",
"408 863 CURVE",
"408 790 LINE"
);
}
);
width = 548;
}
);
note = Ecircumflexhookabove;
unicode = 1EC2;
},
{
glyphname = Ecircumflextilde;
lastChange = "2015-11-25 11:11:39 +0000";
layers = (
{
layerId = "47126D52-4795-4BAD-A976-8664E9644ACA";
name = Bold;
paths = (
{
closed = 1;
nodes = (
"533 0 LINE",
"533 144 LINE",
"233 144 LINE",
"233 249 LINE",
"496 249 LINE",
"496 395 LINE",
"233 395 LINE",
"233 500 LINE",
"533 500 LINE",
"533 644 LINE",
"45 644 LINE",
"45 0 LINE"
);
},
{
closed = 1;
nodes = (
"224 688 LINE",
"286 767 LINE",
"348 688 LINE",
"497 688 LINE",
"355 840 LINE",
"217 840 LINE",
"75 688 LINE"
);
},
{
closed = 1;
nodes = (
"425 855 OFFCURVE",
"459 870 OFFCURVE",
"472 887 CURVE",
"472 993 LINE",
"456 970 OFFCURVE",
"424 954 OFFCURVE",
"383 954 CURVE SMOOTH",
"323 954 OFFCURVE",
"272 995 OFFCURVE",
"207 995 CURVE SMOOTH",
"169 995 OFFCURVE",
"133 981 OFFCURVE",
"115 963 CURVE",
"115 858 LINE",
"138 882 OFFCURVE",
"169 896 OFFCURVE",
"210 896 CURVE SMOOTH",
"264 896 OFFCURVE",
"323 855 OFFCURVE",
"386 855 CURVE SMOOTH"
);
}
);
width = 548;
}
);
note = Ecircumflextilde;
unicode = 1EC4;
},
{
glyphname = Edieresis;
lastChange = "2015-11-25 11:11:44 +0000";
layers = (
{
layerId = "47126D52-4795-4BAD-A976-8664E9644ACA";
name = Bold;
paths = (
{
closed = 1;
nodes = (
"533 0 LINE",
"533 144 LINE",
"233 144 LINE",
"233 249 LINE",
"496 249 LINE",
"496 395 LINE",
"233 395 LINE",
"233 500 LINE",
"533 500 LINE",
"533 644 LINE",
"45 644 LINE",
"45 0 LINE"
);
},
{
closed = 1;
nodes = (
"251 715 LINE",
"251 835 LINE",
"120 835 LINE",
"120 715 LINE"
);
},
{
closed = 1;
nodes = (
"467 715 LINE",
"467 835 LINE",
"336 835 LINE",
"336 715 LINE"
);
}
);
width = 548;
}
);
note = Edieresis;
unicode = 00CB;
},
{
glyphname = Edotaccent;
lastChange = "2015-11-25 11:11:47 +0000";
layers = (
{
layerId = "47126D52-4795-4BAD-A976-8664E9644ACA";
name = Bold;
paths = (
{
closed = 1;
nodes = (
"533 0 LINE",
"533 144 LINE",
"233 144 LINE",
"233 249 LINE",
"496 249 LINE",
"496 395 LINE",
"233 395 LINE",
"233 500 LINE",
"533 500 LINE",
"533 644 LINE",
"45 644 LINE",
"45 0 LINE"
);
},
{
closed = 1;
nodes = (
"352 715 LINE",
"352 835 LINE",
"222 835 LINE",
"222 715 LINE"
);
}
);
width = 548;
}
);
note = Edotaccent;
unicode = 0116;
},
{
glyphname = Edotbelow;
lastChange = "2015-11-25 11:11:50 +0000";
layers = (
{
layerId = "47126D52-4795-4BAD-A976-8664E9644ACA";
name = Bold;
paths = (
{
closed = 1;
nodes = (
"533 0 LINE",
"533 144 LINE",
"233 144 LINE",
"233 249 LINE",
"496 249 LINE",
"496 395 LINE",
"233 395 LINE",
"233 500 LINE",
"533 500 LINE",
"533 644 LINE",
"45 644 LINE",
"45 0 LINE"
);
},
{
closed = 1;
nodes = (
"344 -176 LINE",
"344 -56 LINE",
"214 -56 LINE",
"214 -176 LINE"
);
}
);
width = 548;
}
);
note = Edotbelow;
unicode = 1EB8;
},
{
glyphname = Egrave;
lastChange = "2015-11-25 11:11:53 +0000";
layers = (
{
layerId = "47126D52-4795-4BAD-A976-8664E9644ACA";
name = Bold;
paths = (
{
closed = 1;
nodes = (
"533 0 LINE",
"533 144 LINE",
"233 144 LINE",
"233 249 LINE",
"496 249 LINE",
"496 395 LINE",
"233 395 LINE",
"233 500 LINE",
"533 500 LINE",
"533 644 LINE",
"45 644 LINE",
"45 0 LINE"
);
},
{
closed = 1;
nodes = (
"376 688 LINE",
"288 894 LINE",
"141 894 LINE",
"238 688 LINE"
);
}
);
width = 548;
}
);
note = Egrave;
unicode = 00C8;
},
{
glyphname = Ehookabove;
lastChange = "2015-11-25 11:11:56 +0000";
layers = (
{
layerId = "47126D52-4795-4BAD-A976-8664E9644ACA";
name = Bold;
paths = (
{
closed = 1;
nodes = (
"533 0 LINE",
"533 144 LINE",
"233 144 LINE",
"233 249 LINE",
"496 249 LINE",
"496 395 LINE",
"233 395 LINE",
"233 500 LINE",
"533 500 LINE",
"533 644 LINE",
"45 644 LINE",
"45 0 LINE"
);
},
{
closed = 1;
nodes = (
"354 687 LINE",
"354 728 LINE",
"409 744 OFFCURVE",
"438 770 OFFCURVE",
"438 828 CURVE SMOOTH",
"438 887 OFFCURVE",
"388 929 OFFCURVE",
"297 929 CURVE SMOOTH",
"249 929 OFFCURVE",
"210 924 OFFCURVE",
"182 915 CURVE",
"182 837 LINE",
"198 841 OFFCURVE",
"222 845 OFFCURVE",
"241 845 CURVE SMOOTH",
"280 845 OFFCURVE",
"301 835 OFFCURVE",
"301 812 CURVE SMOOTH",
"301 787 OFFCURVE",
"282 772 OFFCURVE",
"213 768 CURVE",
"213 687 LINE"
);
}
);
width = 548;
}
);
note = Ehookabove;
unicode = 1EBA;
},
{
glyphname = Emacron;
lastChange = "2015-11-25 11:11:59 +0000";
layers = (
{
layerId = "47126D52-4795-4BAD-A976-8664E9644ACA";
name = Bold;
paths = (
{
closed = 1;
nodes = (
"533 0 LINE",
"533 144 LINE",
"233 144 LINE",
"233 249 LINE",
"496 249 LINE",
"496 395 LINE",
"233 395 LINE",
"233 500 LINE",
"533 500 LINE",
"533 644 LINE",
"45 644 LINE",
"45 0 LINE"
);
},
{
closed = 1;
nodes = (
"443 724 LINE",
"443 836 LINE",
"115 836 LINE",
"115 724 LINE"
);
}
);
width = 548;
}
);
note = Emacron;
unicode = 0112;
},
{
glyphname = Eogonek;
lastChange = "2015-11-25 11:12:02 +0000";
layers = (
{
layerId = "47126D52-4795-4BAD-A976-8664E9644ACA";
name = Bold;
paths = (
{
closed = 1;
nodes = (
"533 0 LINE",
"533 144 LINE",
"233 144 LINE",
"233 249 LINE",
"496 249 LINE",
"496 395 LINE",
"233 395 LINE",
"233 500 LINE",
"533 500 LINE",
"533 644 LINE",
"45 644 LINE",
"45 0 LINE"
);
},
{
closed = 1;
nodes = (
"472 -220 OFFCURVE",
"513 -212 OFFCURVE",
"533 -204 CURVE",
"533 -118 LINE",
"521 -125 OFFCURVE",
"500 -129 OFFCURVE",
"483 -129 CURVE SMOOTH",
"455 -129 OFFCURVE",
"440 -115 OFFCURVE",
"440 -89 CURVE SMOOTH",
"440 -55 OFFCURVE",
"464 -26 OFFCURVE",
"498 0 CURVE",
"373 0 LINE",
"329 -28 OFFCURVE",
"299 -72 OFFCURVE",
"299 -123 CURVE SMOOTH",
"299 -190 OFFCURVE",
"355 -220 OFFCURVE",
"431 -220 CURVE SMOOTH"
);
}
);
width = 548;
}
);
note = Eogonek;
unicode = 0118;
},
{
glyphname = Etilde;
lastChange = "2015-11-25 11:12:05 +0000";
layers = (
{
layerId = "47126D52-4795-4BAD-A976-8664E9644ACA";
name = Bold;
paths = (
{
closed = 1;
nodes = (
"533 0 LINE",
"533 144 LINE",
"233 144 LINE",
"233 249 LINE",
"496 249 LINE",
"496 395 LINE",
"233 395 LINE",
"233 500 LINE",
"533 500 LINE",
"533 644 LINE",
"45 644 LINE",
"45 0 LINE"
);
},
{
closed = 1;
nodes = (
"429 696 OFFCURVE",
"464 711 OFFCURVE",
"477 729 CURVE",
"477 848 LINE",
"461 825 OFFCURVE",
"429 808 OFFCURVE",
"387 808 CURVE SMOOTH",
"324 808 OFFCURVE",
"273 850 OFFCURVE",
"206 850 CURVE SMOOTH",
"167 850 OFFCURVE",
"130 835 OFFCURVE",
"111 817 CURVE",
"111 699 LINE",
"135 723 OFFCURVE",
"167 738 OFFCURVE",
"209 738 CURVE SMOOTH",
"264 738 OFFCURVE",
"324 696 OFFCURVE",
"390 696 CURVE SMOOTH"
);
}
);
width = 548;
}
);
note = Etilde;
unicode = 1EBC;
},
{
glyphname = F;
lastChange = "2015-10-23 14:03:17 +0000";
layers = (
{
layerId = "47126D52-4795-4BAD-A976-8664E9644ACA";
name = Bold;
paths = (
{
closed = 1;
nodes = (
"233 0 LINE",
"233 251 LINE",
"491 251 LINE",
"491 393 LINE",
"233 393 LINE",
"233 504 LINE",
"529 504 LINE",
"529 644 LINE",
"45 644 LINE",
"45 0 LINE"
);
}
);
width = 534;
}
);
note = F;
unicode = 0046;
},
{
glyphname = G;
lastChange = "2015-10-23 14:03:17 +0000";
layers = (
{
layerId = "47126D52-4795-4BAD-A976-8664E9644ACA";
name = Bold;
paths = (
{
closed = 1;
nodes = (
"496 -10 OFFCURVE",
"577 18 OFFCURVE",
"626 49 CURVE",
"626 373 LINE",
"341 373 LINE",
"341 257 LINE",
"469 257 LINE",
"469 163 LINE",
"442 155 OFFCURVE",
"411 150 OFFCURVE",
"377 150 CURVE SMOOTH",
"271 150 OFFCURVE",
"217 199 OFFCURVE",
"217 316 CURVE SMOOTH",
"217 441 OFFCURVE",
"279 494 OFFCURVE",
"403 494 CURVE SMOOTH",
"468 494 OFFCURVE",
"531 487 OFFCURVE",
"590 465 CURVE",
"590 626 LINE",
"532 645 OFFCURVE",
"470 654 OFFCURVE",
"390 654 CURVE SMOOTH",
"151 654 OFFCURVE",
"25 532 OFFCURVE",
"25 316 CURVE SMOOTH",
"25 106 OFFCURVE",
"148 -10 OFFCURVE",
"377 -10 CURVE SMOOTH"
);
}
);
width = 651;
}
);
leftKerningGroup = C;
note = G;
unicode = 0047;
},
{
glyphname = Gbreve;
lastChange = "2015-10-23 14:03:17 +0000";
layers = (
{
layerId = "47126D52-4795-4BAD-A976-8664E9644ACA";
name = Bold;
paths = (
{
closed = 1;
nodes = (
"496 -10 OFFCURVE",
"577 18 OFFCURVE",
"626 49 CURVE",
"626 373 LINE",
"341 373 LINE",
"341 257 LINE",
"469 257 LINE",
"469 163 LINE",
"442 155 OFFCURVE",
"411 150 OFFCURVE",
"377 150 CURVE SMOOTH",
"271 150 OFFCURVE",
"217 199 OFFCURVE",
"217 316 CURVE SMOOTH",
"217 441 OFFCURVE",
"279 494 OFFCURVE",
"403 494 CURVE SMOOTH",
"468 494 OFFCURVE",
"531 487 OFFCURVE",
"590 465 CURVE",
"590 626 LINE",
"532 645 OFFCURVE",
"470 654 OFFCURVE",
"390 654 CURVE SMOOTH",
"151 654 OFFCURVE",
"25 532 OFFCURVE",
"25 316 CURVE SMOOTH",
"25 106 OFFCURVE",
"148 -10 OFFCURVE",
"377 -10 CURVE SMOOTH"
);
},
{
closed = 1;
nodes = (
"491 689 OFFCURVE",
"567 755 OFFCURVE",
"567 876 CURVE",
"445 876 LINE",
"445 827 OFFCURVE",
"428 792 OFFCURVE",
"377 792 CURVE SMOOTH",
"326 792 OFFCURVE",
"310 827 OFFCURVE",
"310 876 CURVE",
"188 876 LINE",
"188 755 OFFCURVE",
"264 689 OFFCURVE",
"377 689 CURVE SMOOTH"
);
}
);
width = 651;
}
);
leftKerningGroup = C;
note = Gbreve;
unicode = 011E;
},
{
glyphname = Gcaron;
lastChange = "2015-10-23 14:03:17 +0000";
layers = (
{
layerId = "47126D52-4795-4BAD-A976-8664E9644ACA";
name = Bold;
paths = (
{
closed = 1;
nodes = (
"496 -10 OFFCURVE",
"577 18 OFFCURVE",
"626 49 CURVE",
"626 373 LINE",
"341 373 LINE",
"341 257 LINE",
"469 257 LINE",
"469 163 LINE",
"442 155 OFFCURVE",
"411 150 OFFCURVE",
"377 150 CURVE SMOOTH",
"271 150 OFFCURVE",
"217 199 OFFCURVE",
"217 316 CURVE SMOOTH",
"217 441 OFFCURVE",
"279 494 OFFCURVE",
"403 494 CURVE SMOOTH",
"468 494 OFFCURVE",
"531 487 OFFCURVE",
"590 465 CURVE",
"590 626 LINE",
"532 645 OFFCURVE",
"470 654 OFFCURVE",
"390 654 CURVE SMOOTH",
"151 654 OFFCURVE",
"25 532 OFFCURVE",
"25 316 CURVE SMOOTH",
"25 106 OFFCURVE",
"148 -10 OFFCURVE",
"377 -10 CURVE SMOOTH"
);
},
{
closed = 1;
nodes = (
"430 688 LINE",
"585 888 LINE",
"449 888 LINE",
"373 779 LINE",
"301 888 LINE",
"161 888 LINE",
"316 688 LINE"
);
}
);
width = 651;
}
);
leftKerningGroup = C;
note = Gcaron;
unicode = 01E6;
},
{
glyphname = Gcircumflex;
lastChange = "2015-10-23 14:03:17 +0000";
layers = (
{
layerId = "47126D52-4795-4BAD-A976-8664E9644ACA";
name = Bold;
paths = (
{
closed = 1;
nodes = (
"496 -10 OFFCURVE",
"577 18 OFFCURVE",
"626 49 CURVE",
"626 373 LINE",
"341 373 LINE",
"341 257 LINE",
"469 257 LINE",
"469 163 LINE",
"442 155 OFFCURVE",
"411 150 OFFCURVE",
"377 150 CURVE SMOOTH",
"271 150 OFFCURVE",
"217 199 OFFCURVE",
"217 316 CURVE SMOOTH",
"217 441 OFFCURVE",
"279 494 OFFCURVE",
"403 494 CURVE SMOOTH",
"468 494 OFFCURVE",
"531 487 OFFCURVE",
"590 465 CURVE",
"590 626 LINE",
"532 645 OFFCURVE",
"470 654 OFFCURVE",
"390 654 CURVE SMOOTH",
"151 654 OFFCURVE",
"25 532 OFFCURVE",
"25 316 CURVE SMOOTH",
"25 106 OFFCURVE",
"148 -10 OFFCURVE",
"377 -10 CURVE SMOOTH"
);
},
{
closed = 1;
nodes = (
"292 688 LINE",
"364 796 LINE",
"440 688 LINE",
"576 688 LINE",
"421 888 LINE",
"307 888 LINE",
"152 688 LINE"
);
}
);
width = 651;
}
);
leftKerningGroup = C;
note = Gcircumflex;
unicode = 011C;
},
{
glyphname = Gcommaaccent;
lastChange = "2015-10-23 14:03:17 +0000";
layers = (
{
layerId = "47126D52-4795-4BAD-A976-8664E9644ACA";
name = Bold;
paths = (
{
closed = 1;
nodes = (
"496 -10 OFFCURVE",
"577 18 OFFCURVE",
"626 49 CURVE",
"626 373 LINE",
"341 373 LINE",
"341 257 LINE",
"469 257 LINE",
"469 163 LINE",
"442 155 OFFCURVE",
"411 150 OFFCURVE",
"377 150 CURVE SMOOTH",
"271 150 OFFCURVE",
"217 199 OFFCURVE",
"217 316 CURVE SMOOTH",
"217 441 OFFCURVE",
"279 494 OFFCURVE",
"403 494 CURVE SMOOTH",
"468 494 OFFCURVE",
"531 487 OFFCURVE",
"590 465 CURVE",
"590 626 LINE",
"532 645 OFFCURVE",
"470 654 OFFCURVE",
"390 654 CURVE SMOOTH",
"151 654 OFFCURVE",
"25 532 OFFCURVE",
"25 316 CURVE SMOOTH",
"25 106 OFFCURVE",
"148 -10 OFFCURVE",
"377 -10 CURVE SMOOTH"
);
},
{
closed = 1;
nodes = (
"407 -262 LINE",
"464 -37 LINE",
"311 -37 LINE",
"277 -262 LINE"
);
}
);
width = 651;
}
);
leftKerningGroup = C;
note = Gcommaaccent;
unicode = 0122;
},
{
glyphname = Gdotaccent;
lastChange = "2015-10-23 14:03:17 +0000";
layers = (
{
layerId = "47126D52-4795-4BAD-A976-8664E9644ACA";
name = Bold;
paths = (
{
closed = 1;
nodes = (
"496 -10 OFFCURVE",
"577 18 OFFCURVE",
"626 49 CURVE",
"626 373 LINE",
"341 373 LINE",
"341 257 LINE",
"469 257 LINE",
"469 163 LINE",
"442 155 OFFCURVE",
"411 150 OFFCURVE",
"377 150 CURVE SMOOTH",
"271 150 OFFCURVE",
"217 199 OFFCURVE",
"217 316 CURVE SMOOTH",
"217 441 OFFCURVE",
"279 494 OFFCURVE",
"403 494 CURVE SMOOTH",
"468 494 OFFCURVE",
"531 487 OFFCURVE",
"590 465 CURVE",
"590 626 LINE",
"532 645 OFFCURVE",
"470 654 OFFCURVE",
"390 654 CURVE SMOOTH",
"151 654 OFFCURVE",
"25 532 OFFCURVE",
"25 316 CURVE SMOOTH",
"25 106 OFFCURVE",
"148 -10 OFFCURVE",
"377 -10 CURVE SMOOTH"
);
},
{
closed = 1;
nodes = (
"451 715 LINE",
"451 835 LINE",
"321 835 LINE",
"321 715 LINE"
);
}
);
width = 651;
}
);
leftKerningGroup = C;
note = Gdotaccent;
unicode = 0120;
},
{
glyphname = Gmacron;
lastChange = "2015-10-23 14:03:17 +0000";
layers = (
{
layerId = "47126D52-4795-4BAD-A976-8664E9644ACA";
name = Bold;
paths = (
{
closed = 1;
nodes = (
"496 -10 OFFCURVE",
"577 18 OFFCURVE",
"626 49 CURVE",
"626 373 LINE",
"341 373 LINE",
"341 257 LINE",
"469 257 LINE",
"469 163 LINE",
"442 155 OFFCURVE",
"411 150 OFFCURVE",
"377 150 CURVE SMOOTH",
"271 150 OFFCURVE",
"217 199 OFFCURVE",
"217 316 CURVE SMOOTH",
"217 441 OFFCURVE",
"279 494 OFFCURVE",
"403 494 CURVE SMOOTH",
"468 494 OFFCURVE",
"531 487 OFFCURVE",
"590 465 CURVE",
"590 626 LINE",
"532 645 OFFCURVE",
"470 654 OFFCURVE",
"390 654 CURVE SMOOTH",
"151 654 OFFCURVE",
"25 532 OFFCURVE",
"25 316 CURVE SMOOTH",
"25 106 OFFCURVE",
"148 -10 OFFCURVE",
"377 -10 CURVE SMOOTH"
);
},
{
closed = 1;
nodes = (
"541 717 LINE",
"541 829 LINE",
"213 829 LINE",
"213 717 LINE"
);
}
);
width = 651;
}
);
leftKerningGroup = C;
note = Gmacron;
unicode = 1E20;
},
{
glyphname = H;
lastChange = "2015-10-23 14:03:17 +0000";
layers = (
{
layerId = "47126D52-4795-4BAD-A976-8664E9644ACA";
name = Bold;
paths = (
{
closed = 1;
nodes = (
"233 0 LINE",
"233 240 LINE",
"455 240 LINE",
"455 0 LINE",
"643 0 LINE",
"643 644 LINE",
"455 644 LINE",
"455 404 LINE",
"233 404 LINE",
"233 644 LINE",
"45 644 LINE",
"45 0 LINE"
);
}
);
width = 688;
}
);
note = H;
unicode = 0048;
},
{
glyphname = Hbar;
lastChange = "2015-10-23 14:03:17 +0000";
layers = (
{
layerId = "47126D52-4795-4BAD-A976-8664E9644ACA";
name = Bold;
paths = (
{
closed = 1;
nodes = (
"233 0 LINE",
"233 240 LINE",
"455 240 LINE",
"455 0 LINE",
"643 0 LINE",
"643 644 LINE",
"455 644 LINE",
"455 404 LINE",
"233 404 LINE",
"233 644 LINE",
"45 644 LINE",
"45 0 LINE"
);
},
{
closed = 1;
nodes = (
"683 458 LINE",
"683 583 LINE",
"5 583 LINE",
"5 458 LINE"
);
}
);
width = 688;
}
);
note = Hbar;
unicode = 0126;
},
{
glyphname = Hbrevebelow;
lastChange = "2015-10-23 14:03:17 +0000";
layers = (
{
layerId = "47126D52-4795-4BAD-A976-8664E9644ACA";
name = Bold;
paths = (
{
closed = 1;
nodes = (
"233 0 LINE",
"233 240 LINE",
"455 240 LINE",
"455 0 LINE",
"643 0 LINE",
"643 644 LINE",
"455 644 LINE",
"455 404 LINE",
"233 404 LINE",
"233 644 LINE",
"45 644 LINE",
"45 0 LINE"
);
},
{
closed = 1;
nodes = (
"459 -237 OFFCURVE",
"535 -171 OFFCURVE",
"535 -50 CURVE",
"413 -50 LINE",
"413 -99 OFFCURVE",
"396 -134 OFFCURVE",
"345 -134 CURVE SMOOTH",
"294 -134 OFFCURVE",
"278 -99 OFFCURVE",
"278 -50 CURVE",
"156 -50 LINE",
"156 -171 OFFCURVE",
"232 -237 OFFCURVE",
"345 -237 CURVE SMOOTH"
);
}
);
width = 688;
}
);
note = Hbrevebelow;
unicode = 1E2A;
},
{
glyphname = Hcircumflex;
lastChange = "2015-10-23 14:03:17 +0000";
layers = (
{
layerId = "47126D52-4795-4BAD-A976-8664E9644ACA";
name = Bold;
paths = (
{
closed = 1;
nodes = (
"233 0 LINE",
"233 240 LINE",
"455 240 LINE",
"455 0 LINE",
"643 0 LINE",
"643 644 LINE",
"455 644 LINE",
"455 404 LINE",
"233 404 LINE",
"233 644 LINE",
"45 644 LINE",
"45 0 LINE"
);
},
{
closed = 1;
nodes = (
"272 688 LINE",
"344 796 LINE",
"420 688 LINE",
"556 688 LINE",
"401 888 LINE",
"287 888 LINE",
"132 688 LINE"
);
}
);
width = 688;
}
);
note = Hcircumflex;
unicode = 0124;
},
{
glyphname = Hdotbelow;
lastChange = "2015-10-23 14:03:17 +0000";
layers = (
{
layerId = "47126D52-4795-4BAD-A976-8664E9644ACA";
name = Bold;
paths = (
{
closed = 1;
nodes = (
"233 0 LINE",
"233 240 LINE",
"455 240 LINE",
"455 0 LINE",
"643 0 LINE",
"643 644 LINE",
"455 644 LINE",
"455 404 LINE",
"233 404 LINE",
"233 644 LINE",
"45 644 LINE",
"45 0 LINE"
);
},
{
closed = 1;
nodes = (
"410 -197 LINE",
"410 -77 LINE",
"280 -77 LINE",
"280 -197 LINE"
);
}
);
width = 688;
}
);
note = Hdotbelow;
unicode = 1E24;
},
{
glyphname = I;
lastChange = "2015-10-23 14:03:17 +0000";
layers = (
{
layerId = "47126D52-4795-4BAD-A976-8664E9644ACA";
name = Bold;
paths = (
{
closed = 1;
nodes = (
"233 0 LINE",
"233 644 LINE",
"45 644 LINE",
"45 0 LINE"
);
}
);
width = 278;
}
);
note = I;
unicode = 0049;
},
{
glyphname = IJ;
lastChange = "2015-10-23 14:03:17 +0000";
layers = (
{
layerId = "47126D52-4795-4BAD-A976-8664E9644ACA";
name = Bold;
paths = (
{
closed = 1;
nodes = (
"592 -10 OFFCURVE",
"679 74 OFFCURVE",
"679 214 CURVE SMOOTH",
"679 644 LINE",
"491 644 LINE",
"491 244 LINE SMOOTH",
"491 176 OFFCURVE",
"463 149 OFFCURVE",
"391 149 CURVE SMOOTH",
"351 149 OFFCURVE",
"309 156 OFFCURVE",
"277 169 CURVE",
"277 13 LINE",
"323 -3 OFFCURVE",
"374 -10 OFFCURVE",
"430 -10 CURVE SMOOTH"
);
},
{
closed = 1;
nodes = (
"233 0 LINE",
"233 644 LINE",
"45 644 LINE",
"45 0 LINE"
);
}
);
width = 719;
}
);
note = IJ;
rightKerningGroup = J;
unicode = 0132;
},
{
glyphname = Iacute;
lastChange = "2015-10-23 14:03:17 +0000";
layers = (
{
layerId = "47126D52-4795-4BAD-A976-8664E9644ACA";
name = Bold;
paths = (
{
closed = 1;
nodes = (
"233 0 LINE",
"233 644 LINE",
"45 644 LINE",
"45 0 LINE"
);
},
{
closed = 1;
nodes = (
"203 688 LINE",
"299 894 LINE",
"153 894 LINE",
"65 688 LINE"
);
}
);
width = 278;
}
);
note = Iacute;
unicode = 00CD;
},
{
glyphname = Ibreve;
lastChange = "2015-10-23 14:03:17 +0000";
layers = (
{
layerId = "47126D52-4795-4BAD-A976-8664E9644ACA";
name = Bold;
paths = (
{
closed = 1;
nodes = (
"233 0 LINE",
"233 644 LINE",
"45 644 LINE",
"45 0 LINE"
);
},
{
closed = 1;
nodes = (
"253 709 OFFCURVE",
"329 775 OFFCURVE",
"329 896 CURVE",
"207 896 LINE",
"207 847 OFFCURVE",
"190 812 OFFCURVE",
"139 812 CURVE SMOOTH",
"88 812 OFFCURVE",
"72 847 OFFCURVE",
"72 896 CURVE",
"-50 896 LINE",
"-50 775 OFFCURVE",
"26 709 OFFCURVE",
"139 709 CURVE SMOOTH"
);
}
);
width = 278;
}
);
note = Ibreve;
unicode = 012C;
},
{
glyphname = Icaron;
lastChange = "2015-10-23 14:03:17 +0000";
layers = (
{
layerId = "47126D52-4795-4BAD-A976-8664E9644ACA";
name = Bold;
paths = (
{
closed = 1;
nodes = (
"233 0 LINE",
"233 644 LINE",
"45 644 LINE",
"45 0 LINE"
);
},
{
closed = 1;
nodes = (
"196 688 LINE",
"351 888 LINE",
"215 888 LINE",
"139 779 LINE",
"67 888 LINE",
"-73 888 LINE",
"82 688 LINE"
);
}
);
width = 278;
}
);
note = Icaron;
unicode = 01CF;
},
{
glyphname = Icircumflex;
lastChange = "2015-10-23 14:03:17 +0000";
layers = (
{
layerId = "47126D52-4795-4BAD-A976-8664E9644ACA";
name = Bold;
paths = (
{
closed = 1;
nodes = (
"233 0 LINE",
"233 644 LINE",
"45 644 LINE",
"45 0 LINE"
);
},
{
closed = 1;
nodes = (
"67 688 LINE",
"139 796 LINE",
"215 688 LINE",
"351 688 LINE",
"196 888 LINE",
"82 888 LINE",
"-73 688 LINE"
);
}
);
width = 278;
}
);
note = Icircumflex;
unicode = 00CE;
},
{
glyphname = Idieresis;
lastChange = "2015-10-23 14:03:17 +0000";
layers = (
{
layerId = "47126D52-4795-4BAD-A976-8664E9644ACA";
name = Bold;
paths = (
{
closed = 1;
nodes = (
"233 0 LINE",
"233 644 LINE",
"45 644 LINE",
"45 0 LINE"
);
},
{
closed = 1;
nodes = (
"97 722 LINE",
"97 842 LINE",
"-34 842 LINE",
"-34 722 LINE"
);
},
{
closed = 1;
nodes = (
"313 722 LINE",
"313 842 LINE",
"182 842 LINE",
"182 722 LINE"
);
}
);
width = 278;
}
);
note = Idieresis;
unicode = 00CF;
},
{
glyphname = Idotaccent;
lastChange = "2015-10-23 14:03:17 +0000";
layers = (
{
layerId = "47126D52-4795-4BAD-A976-8664E9644ACA";
name = Bold;
paths = (
{
closed = 1;
nodes = (
"233 0 LINE",
"233 644 LINE",
"45 644 LINE",
"45 0 LINE"
);
},
{
closed = 1;
nodes = (
"204 722 LINE",
"204 842 LINE",
"74 842 LINE",
"74 722 LINE"
);
}
);
width = 278;
}
);
note = Idotaccent;
unicode = 0130;
},
{
glyphname = Idotbelow;
lastChange = "2015-10-23 14:03:17 +0000";
layers = (
{
layerId = "47126D52-4795-4BAD-A976-8664E9644ACA";
name = Bold;
paths = (
{
closed = 1;
nodes = (
"233 0 LINE",
"233 644 LINE",
"45 644 LINE",
"45 0 LINE"
);
},
{
closed = 1;
nodes = (
"204 -176 LINE",
"204 -56 LINE",
"74 -56 LINE",
"74 -176 LINE"
);
}
);
width = 278;
}
);
note = Idotbelow;
unicode = 1ECA;
},
{
glyphname = Igrave;
lastChange = "2015-10-23 14:03:17 +0000";
layers = (
{
layerId = "47126D52-4795-4BAD-A976-8664E9644ACA";
name = Bold;
paths = (
{
closed = 1;
nodes = (
"233 0 LINE",
"233 644 LINE",
"45 644 LINE",
"45 0 LINE"
);
},
{
closed = 1;
nodes = (
"211 688 LINE",
"123 894 LINE",
"-24 894 LINE",
"73 688 LINE"
);
}
);
width = 278;
}
);
note = Igrave;
unicode = 00CC;
},
{
glyphname = Ihookabove;
lastChange = "2015-10-23 14:03:17 +0000";
layers = (
{
layerId = "47126D52-4795-4BAD-A976-8664E9644ACA";
name = Bold;
paths = (
{
closed = 1;
nodes = (
"233 0 LINE",
"233 644 LINE",
"45 644 LINE",
"45 0 LINE"
);
},
{
closed = 1;
nodes = (
"202 688 LINE",
"202 729 LINE",
"257 745 OFFCURVE",
"286 771 OFFCURVE",
"286 829 CURVE SMOOTH",
"286 888 OFFCURVE",
"236 930 OFFCURVE",
"145 930 CURVE SMOOTH",
"97 930 OFFCURVE",
"58 925 OFFCURVE",
"30 916 CURVE",
"30 838 LINE",
"46 842 OFFCURVE",
"70 846 OFFCURVE",
"89 846 CURVE SMOOTH",
"128 846 OFFCURVE",
"149 836 OFFCURVE",
"149 813 CURVE SMOOTH",
"149 788 OFFCURVE",
"130 773 OFFCURVE",
"61 769 CURVE",
"61 688 LINE"
);
}
);
width = 278;
}
);
note = Ihookabove;
unicode = 1EC8;
},
{
glyphname = Imacron;
lastChange = "2015-10-23 14:03:17 +0000";
layers = (
{
layerId = "47126D52-4795-4BAD-A976-8664E9644ACA";
name = Bold;
paths = (
{
closed = 1;
nodes = (
"233 0 LINE",
"233 644 LINE",
"45 644 LINE",
"45 0 LINE"
);
},
{
closed = 1;
nodes = (
"303 724 LINE",
"303 836 LINE",
"-25 836 LINE",
"-25 724 LINE"
);
}
);
width = 278;
}
);
note = Imacron;
unicode = 012A;
},
{
glyphname = Iogonek;
lastChange = "2015-10-23 14:03:17 +0000";
layers = (
{
layerId = "47126D52-4795-4BAD-A976-8664E9644ACA";
name = Bold;
paths = (
{
closed = 1;
nodes = (
"233 0 LINE",
"233 644 LINE",
"45 644 LINE",
"45 0 LINE"
);
},
{
closed = 1;
nodes = (
"176 -220 OFFCURVE",
"217 -212 OFFCURVE",
"237 -204 CURVE",
"237 -118 LINE",
"225 -125 OFFCURVE",
"204 -129 OFFCURVE",
"187 -129 CURVE SMOOTH",
"159 -129 OFFCURVE",
"144 -115 OFFCURVE",
"144 -89 CURVE SMOOTH",
"144 -55 OFFCURVE",
"168 -26 OFFCURVE",
"202 0 CURVE",
"77 0 LINE",
"33 -28 OFFCURVE",
"3 -72 OFFCURVE",
"3 -123 CURVE SMOOTH",
"3 -190 OFFCURVE",
"59 -220 OFFCURVE",
"135 -220 CURVE SMOOTH"
);
}
);
width = 278;
}
);
note = Iogonek;
unicode = 012E;
},
{
glyphname = Itilde;
lastChange = "2015-10-23 14:03:17 +0000";
layers = (
{
layerId = "47126D52-4795-4BAD-A976-8664E9644ACA";
name = Bold;
paths = (
{
closed = 1;
nodes = (
"233 0 LINE",
"233 644 LINE",
"45 644 LINE",
"45 0 LINE"
);
},
{
closed = 1;
nodes = (
"274 711 OFFCURVE",
"309 726 OFFCURVE",
"322 744 CURVE",
"322 863 LINE",
"306 840 OFFCURVE",
"274 823 OFFCURVE",
"232 823 CURVE SMOOTH",
"169 823 OFFCURVE",
"118 865 OFFCURVE",
"51 865 CURVE SMOOTH",
"12 865 OFFCURVE",
"-25 850 OFFCURVE",
"-44 832 CURVE",
"-44 714 LINE",
"-20 738 OFFCURVE",
"12 753 OFFCURVE",
"54 753 CURVE SMOOTH",
"109 753 OFFCURVE",
"169 711 OFFCURVE",
"235 711 CURVE SMOOTH"
);
}
);
width = 278;
}
);
note = Itilde;
unicode = 0128;
},
{
glyphname = J;
lastChange = "2015-10-23 14:03:17 +0000";
layers = (
{
layerId = "47126D52-4795-4BAD-A976-8664E9644ACA";
name = Bold;
paths = (
{
closed = 1;
nodes = (
"320 -10 OFFCURVE",
"407 74 OFFCURVE",
"407 214 CURVE SMOOTH",
"407 644 LINE",
"219 644 LINE",
"219 244 LINE SMOOTH",
"219 176 OFFCURVE",
"191 149 OFFCURVE",
"119 149 CURVE SMOOTH",
"79 149 OFFCURVE",
"37 156 OFFCURVE",
"5 169 CURVE",
"5 13 LINE",
"51 -3 OFFCURVE",
"102 -10 OFFCURVE",
"158 -10 CURVE SMOOTH"
);
}
);
width = 447;
}
);
leftKerningGroup = J;
note = J;
rightKerningGroup = J;
unicode = 004A;
},
{
glyphname = Jcircumflex;
lastChange = "2015-10-23 14:03:17 +0000";
layers = (
{
layerId = "47126D52-4795-4BAD-A976-8664E9644ACA";
name = Bold;
paths = (
{
closed = 1;
nodes = (
"320 -10 OFFCURVE",
"407 74 OFFCURVE",
"407 214 CURVE SMOOTH",
"407 644 LINE",
"219 644 LINE",
"219 244 LINE SMOOTH",
"219 176 OFFCURVE",
"191 149 OFFCURVE",
"119 149 CURVE SMOOTH",
"79 149 OFFCURVE",
"37 156 OFFCURVE",
"5 169 CURVE",
"5 13 LINE",
"51 -3 OFFCURVE",
"102 -10 OFFCURVE",
"158 -10 CURVE SMOOTH"
);
},
{
closed = 1;
nodes = (
"230 688 LINE",
"302 796 LINE",
"378 688 LINE",
"514 688 LINE",
"359 888 LINE",
"245 888 LINE",
"90 688 LINE"
);
}
);
width = 447;
}
);
leftKerningGroup = J;
note = Jcircumflex;
rightKerningGroup = J;
unicode = 0134;
},
{
glyphname = K;
lastChange = "2015-10-23 14:03:17 +0000";
layers = (
{
layerId = "47126D52-4795-4BAD-A976-8664E9644ACA";
name = Bold;
paths = (
{
closed = 1;
nodes = (
"233 0 LINE",
"233 186 LINE",
"299 260 LINE",
"458 0 LINE",
"658 0 LINE",
"415 380 LINE",
"642 644 LINE",
"428 644 LINE",
"233 417 LINE",
"233 644 LINE",
"45 644 LINE",
"45 0 LINE"
);
}
);
width = 683;
}
);
note = K;
rightKerningGroup = K;
unicode = 004B;
},
{
glyphname = Kcommaaccent;
lastChange = "2015-10-23 14:03:17 +0000";
layers = (
{
layerId = "47126D52-4795-4BAD-A976-8664E9644ACA";
name = Bold;
paths = (
{
closed = 1;
nodes = (
"233 0 LINE",
"233 186 LINE",
"299 260 LINE",
"458 0 LINE",
"658 0 LINE",
"415 380 LINE",
"642 644 LINE",
"428 644 LINE",
"233 417 LINE",
"233 644 LINE",
"45 644 LINE",
"45 0 LINE"
);
},
{
closed = 1;
nodes = (
"367 -262 LINE",
"424 -37 LINE",
"271 -37 LINE",
"237 -262 LINE"
);
}
);
width = 683;
}
);
note = Kcommaaccent;
rightKerningGroup = K;
unicode = 0136;
},
{
glyphname = L;
lastChange = "2015-10-23 14:03:17 +0000";
layers = (
{
layerId = "47126D52-4795-4BAD-A976-8664E9644ACA";
name = Bold;
paths = (
{
closed = 1;
nodes = (
"523 0 LINE",
"523 144 LINE",
"233 144 LINE",
"233 644 LINE",
"45 644 LINE",
"45 0 LINE"
);
}
);
width = 528;
}
);
note = L;
rightKerningGroup = L;
unicode = 004C;
},
{
glyphname = Lacute;
lastChange = "2015-10-23 14:03:17 +0000";
layers = (
{
layerId = "47126D52-4795-4BAD-A976-8664E9644ACA";
name = Bold;
paths = (
{
closed = 1;
nodes = (
"523 0 LINE",
"523 144 LINE",
"233 144 LINE",
"233 644 LINE",
"45 644 LINE",
"45 0 LINE"
);
},
{
closed = 1;
nodes = (
"203 688 LINE",
"299 894 LINE",
"153 894 LINE",
"65 688 LINE"
);
}
);
width = 528;
}
);
note = Lacute;
rightKerningGroup = L;
unicode = 0139;
},
{
glyphname = Lcaron;
lastChange = "2015-10-23 14:03:17 +0000";
layers = (
{
layerId = "47126D52-4795-4BAD-A976-8664E9644ACA";
name = Bold;
paths = (
{
closed = 1;
nodes = (
"523 0 LINE",
"523 144 LINE",
"233 144 LINE",
"233 644 LINE",
"45 644 LINE",
"45 0 LINE"
);
},
{
closed = 1;
nodes = (
"421 626 LINE",
"478 851 LINE",
"325 851 LINE",
"291 626 LINE"
);
}
);
width = 528;
}
);
note = Lcaron;
rightKerningGroup = L;
unicode = 013D;
},
{
glyphname = Lcommaaccent;
lastChange = "2015-10-23 14:03:17 +0000";
layers = (
{
layerId = "47126D52-4795-4BAD-A976-8664E9644ACA";
name = Bold;
paths = (
{
closed = 1;
nodes = (
"523 0 LINE",
"523 144 LINE",
"233 144 LINE",
"233 644 LINE",
"45 644 LINE",
"45 0 LINE"
);
},
{
closed = 1;
nodes = (
"320 -262 LINE",
"377 -37 LINE",
"224 -37 LINE",
"190 -262 LINE"
);
}
);
width = 528;
}
);
note = Lcommaaccent;
rightKerningGroup = L;
unicode = 013B;
},
{
glyphname = Ldot;
lastChange = "2015-10-23 14:03:17 +0000";
layers = (
{
layerId = "47126D52-4795-4BAD-A976-8664E9644ACA";
name = Bold;
paths = (
{
closed = 1;
nodes = (
"523 0 LINE",
"523 144 LINE",
"233 144 LINE",
"233 644 LINE",
"45 644 LINE",
"45 0 LINE"
);
},
{
closed = 1;
nodes = (
"494 292 LINE",
"494 412 LINE",
"364 412 LINE",
"364 292 LINE"
);
}
);
width = 528;
}
);
note = Ldot;
rightKerningGroup = L;
unicode = 013F;
},
{
glyphname = Ldotbelow;
lastChange = "2015-10-23 14:03:17 +0000";
layers = (
{
layerId = "47126D52-4795-4BAD-A976-8664E9644ACA";
name = Bold;
paths = (
{
closed = 1;
nodes = (
"523 0 LINE",
"523 144 LINE",
"233 144 LINE",
"233 644 LINE",
"45 644 LINE",
"45 0 LINE"
);
},
{
closed = 1;
nodes = (
"342 -176 LINE",
"342 -56 LINE",
"212 -56 LINE",
"212 -176 LINE"
);
}
);
width = 528;
}
);
note = Ldotbelow;
rightKerningGroup = L;
unicode = 1E36;
},
{
glyphname = Ldotbelowmacron;
lastChange = "2015-10-23 14:03:17 +0000";
layers = (
{
layerId = "47126D52-4795-4BAD-A976-8664E9644ACA";
name = Bold;
paths = (
{
closed = 1;
nodes = (
"523 0 LINE",
"523 144 LINE",
"233 144 LINE",
"233 644 LINE",
"45 644 LINE",
"45 0 LINE"
);
},
{
closed = 1;
nodes = (
"342 -176 LINE",
"342 -56 LINE",
"212 -56 LINE",
"212 -176 LINE"
);
},
{
closed = 1;
nodes = (
"305 717 LINE",
"305 829 LINE",
"-23 829 LINE",
"-23 717 LINE"
);
}
);
width = 528;
}
);
note = Ldotbelowmacron;
rightKerningGroup = L;
unicode = 1E38;
},
{
glyphname = Llinebelow;
lastChange = "2015-10-23 14:03:17 +0000";
layers = (
{
layerId = "47126D52-4795-4BAD-A976-8664E9644ACA";
name = Bold;
paths = (
{
closed = 1;
nodes = (
"523 0 LINE",
"523 144 LINE",
"233 144 LINE",
"233 644 LINE",
"45 644 LINE",
"45 0 LINE"
);
},
{
closed = 1;
nodes = (
"446 -176 LINE",
"446 -64 LINE",
"118 -64 LINE",
"118 -176 LINE"
);
}
);
width = 528;
}
);
note = Llinebelow;
rightKerningGroup = L;
unicode = 1E3A;
},
{
glyphname = Lslash;
lastChange = "2015-10-23 14:03:17 +0000";
layers = (
{
layerId = "47126D52-4795-4BAD-A976-8664E9644ACA";
name = Bold;
paths = (
{
closed = 1;
nodes = (
"523 0 LINE",
"523 144 LINE",
"233 144 LINE",
"233 644 LINE",
"45 644 LINE",
"45 0 LINE"
);
},
{
closed = 1;
nodes = (
"319 361 LINE",
"319 494 LINE",
"-35 339 LINE",
"-35 206 LINE"
);
}
);
width = 528;
}
);
note = Lslash;
rightKerningGroup = L;
unicode = 0141;
},
{
glyphname = M;
lastChange = "2015-10-23 14:03:17 +0000";
layers = (
{
layerId = "47126D52-4795-4BAD-A976-8664E9644ACA";
name = Bold;
paths = (
{
closed = 1;
nodes = (
"233 0 LINE",
"233 322 LINE",
"337 110 LINE",
"438 110 LINE",
"541 322 LINE",
"541 0 LINE",
"729 0 LINE",
"729 644 LINE",
"547 644 LINE",
"388 317 LINE",
"228 644 LINE",
"45 644 LINE",
"45 0 LINE"
);
}
);
width = 774;
}
);
note = M;
unicode = 004D;
},
{
glyphname = Mdotbelow;
lastChange = "2015-10-23 14:03:17 +0000";
layers = (
{
layerId = "47126D52-4795-4BAD-A976-8664E9644ACA";
name = Bold;
paths = (
{
closed = 1;
nodes = (
"233 0 LINE",
"233 322 LINE",
"337 110 LINE",
"438 110 LINE",
"541 322 LINE",
"541 0 LINE",
"729 0 LINE",
"729 644 LINE",
"547 644 LINE",
"388 317 LINE",
"228 644 LINE",
"45 644 LINE",
"45 0 LINE"
);
},
{
closed = 1;
nodes = (
"453 -176 LINE",
"453 -56 LINE",
"323 -56 LINE",
"323 -176 LINE"
);
}
);
width = 774;
}
);
note = Mdotbelow;
unicode = 1E42;
},
{
glyphname = N;
lastChange = "2015-10-23 14:03:17 +0000";
layers = (
{
layerId = "47126D52-4795-4BAD-A976-8664E9644ACA";
name = Bold;
paths = (
{
closed = 1;
nodes = (
"233 0 LINE",
"233 340 LINE",
"475 0 LINE",
"636 0 LINE",
"636 644 LINE",
"448 644 LINE",
"448 303 LINE",
"205 644 LINE",
"45 644 LINE",
"45 0 LINE"
);
}
);
width = 681;
}
);
note = N;
unicode = 004E;
},
{
glyphname = Nacute;
lastChange = "2015-10-23 14:03:17 +0000";
layers = (
{
layerId = "47126D52-4795-4BAD-A976-8664E9644ACA";
name = Bold;
paths = (
{
closed = 1;
nodes = (
"233 0 LINE",
"233 340 LINE",
"475 0 LINE",
"636 0 LINE",
"636 644 LINE",
"448 644 LINE",
"448 303 LINE",
"205 644 LINE",
"45 644 LINE",
"45 0 LINE"
);
},
{
closed = 1;
nodes = (
"388 688 LINE",
"484 894 LINE",
"338 894 LINE",
"250 688 LINE"
);
}
);
width = 681;
}
);
note = Nacute;
unicode = 0143;
},
{
glyphname = Ncaron;
lastChange = "2015-10-23 14:03:17 +0000";
layers = (
{
layerId = "47126D52-4795-4BAD-A976-8664E9644ACA";
name = Bold;
paths = (
{
closed = 1;
nodes = (
"233 0 LINE",
"233 340 LINE",
"475 0 LINE",
"636 0 LINE",
"636 644 LINE",
"448 644 LINE",
"448 303 LINE",
"205 644 LINE",
"45 644 LINE",
"45 0 LINE"
);
},
{
closed = 1;
nodes = (
"396 688 LINE",
"551 888 LINE",
"415 888 LINE",
"339 779 LINE",
"267 888 LINE",
"127 888 LINE",
"282 688 LINE"
);
}
);
width = 681;
}
);
note = Ncaron;
unicode = 0147;
},
{
glyphname = Ncommaaccent;
lastChange = "2015-10-23 14:03:17 +0000";
layers = (
{
layerId = "47126D52-4795-4BAD-A976-8664E9644ACA";
name = Bold;
paths = (
{
closed = 1;
nodes = (
"233 0 LINE",
"233 340 LINE",
"475 0 LINE",
"636 0 LINE",
"636 644 LINE",
"448 644 LINE",
"448 303 LINE",
"205 644 LINE",
"45 644 LINE",
"45 0 LINE"
);
},
{
closed = 1;
nodes = (
"371 -262 LINE",
"428 -37 LINE",
"275 -37 LINE",
"241 -262 LINE"
);
}
);
width = 681;
}
);
note = Ncommaaccent;
unicode = 0145;
},
{
glyphname = Ndotaccent;
lastChange = "2015-10-23 14:03:17 +0000";
layers = (
{
layerId = "47126D52-4795-4BAD-A976-8664E9644ACA";
name = Bold;
paths = (
{
closed = 1;
nodes = (
"233 0 LINE",
"233 340 LINE",
"475 0 LINE",
"636 0 LINE",
"636 644 LINE",
"448 644 LINE",
"448 303 LINE",
"205 644 LINE",
"45 644 LINE",
"45 0 LINE"
);
},
{
closed = 1;
nodes = (
"404 715 LINE",
"404 835 LINE",
"274 835 LINE",
"274 715 LINE"
);
}
);
width = 681;
}
);
note = Ndotaccent;
unicode = 1E44;
},
{
glyphname = Ndotbelow;
lastChange = "2015-10-23 14:03:17 +0000";
layers = (
{
layerId = "47126D52-4795-4BAD-A976-8664E9644ACA";
name = Bold;
paths = (
{
closed = 1;
nodes = (
"233 0 LINE",
"233 340 LINE",
"475 0 LINE",
"636 0 LINE",
"636 644 LINE",
"448 644 LINE",
"448 303 LINE",
"205 644 LINE",
"45 644 LINE",
"45 0 LINE"
);
},
{
closed = 1;
nodes = (
"406 -176 LINE",
"406 -56 LINE",
"276 -56 LINE",
"276 -176 LINE"
);
}
);
width = 681;
}
);
note = Ndotbelow;
unicode = 1E46;
},
{
glyphname = Eng;
lastChange = "2015-10-23 14:03:17 +0000";
layers = (
{
layerId = "47126D52-4795-4BAD-A976-8664E9644ACA";
name = Bold;
paths = (
{
closed = 1;
nodes = (
"580 -234 OFFCURVE",
"636 -162 OFFCURVE",
"636 -60 CURVE SMOOTH",
"636 644 LINE",
"447 644 LINE",
"447 303 LINE",
"205 644 LINE",
"45 644 LINE",
"45 0 LINE",
"233 0 LINE",
"233 340 LINE",
"447 39 LINE",
"447 -46 LINE SMOOTH",
"447 -82 OFFCURVE",
"428 -100 OFFCURVE",
"385 -100 CURVE SMOOTH",
"366 -100 OFFCURVE",
"346 -97 OFFCURVE",
"325 -90 CURVE",
"325 -212 LINE",
"361 -227 OFFCURVE",
"401 -234 OFFCURVE",
"453 -234 CURVE SMOOTH"
);
}
);
width = 681;
}
);
note = Eng;
unicode = 014A;
},
{
glyphname = Nlinebelow;
lastChange = "2015-10-23 14:03:17 +0000";
layers = (
{
layerId = "47126D52-4795-4BAD-A976-8664E9644ACA";
name = Bold;
paths = (
{
closed = 1;
nodes = (
"233 0 LINE",
"233 340 LINE",
"475 0 LINE",
"636 0 LINE",
"636 644 LINE",
"448 644 LINE",
"448 303 LINE",
"205 644 LINE",
"45 644 LINE",
"45 0 LINE"
);
},
{
closed = 1;
nodes = (
"511 -175 LINE",
"511 -63 LINE",
"183 -63 LINE",
"183 -175 LINE"
);
}
);
width = 681;
}
);
note = Nlinebelow;
unicode = 1E48;
},
{
glyphname = Ntilde;
lastChange = "2015-10-23 14:03:17 +0000";
layers = (
{
layerId = "47126D52-4795-4BAD-A976-8664E9644ACA";
name = Bold;
paths = (
{
closed = 1;
nodes = (
"233 0 LINE",
"233 340 LINE",
"475 0 LINE",
"636 0 LINE",
"636 644 LINE",
"448 644 LINE",
"448 303 LINE",
"205 644 LINE",
"45 644 LINE",
"45 0 LINE"
);
},
{
closed = 1;
nodes = (
"486 696 OFFCURVE",
"521 711 OFFCURVE",
"534 729 CURVE",
"534 848 LINE",
"518 825 OFFCURVE",
"486 808 OFFCURVE",
"444 808 CURVE SMOOTH",
"381 808 OFFCURVE",
"330 850 OFFCURVE",
"263 850 CURVE SMOOTH",
"224 850 OFFCURVE",
"187 835 OFFCURVE",
"168 817 CURVE",
"168 699 LINE",
"192 723 OFFCURVE",
"224 738 OFFCURVE",
"266 738 CURVE SMOOTH",
"321 738 OFFCURVE",
"381 696 OFFCURVE",
"447 696 CURVE SMOOTH"
);
}
);
width = 681;
}
);
note = Ntilde;
unicode = 00D1;
},
{
glyphname = O;
lastChange = "2015-10-23 14:03:17 +0000";
layers = (
{
layerId = "47126D52-4795-4BAD-A976-8664E9644ACA";
name = Bold;
paths = (
{
closed = 1;
nodes = (
"566 -10 OFFCURVE",
"683 88 OFFCURVE",
"683 320 CURVE SMOOTH",
"683 560 OFFCURVE",
"566 654 OFFCURVE",
"354 654 CURVE SMOOTH",
"141 654 OFFCURVE",
"25 560 OFFCURVE",
"25 320 CURVE SMOOTH",
"25 88 OFFCURVE",
"141 -10 OFFCURVE",
"354 -10 CURVE SMOOTH"
);
},
{
closed = 1;
nodes = (
"258 150 OFFCURVE",
"217 201 OFFCURVE",
"217 320 CURVE SMOOTH",
"217 447 OFFCURVE",
"258 494 OFFCURVE",
"354 494 CURVE SMOOTH",
"450 494 OFFCURVE",
"491 447 OFFCURVE",
"491 320 CURVE SMOOTH",
"491 201 OFFCURVE",
"450 150 OFFCURVE",
"354 150 CURVE SMOOTH"
);
}
);
width = 708;
}
);
leftKerningGroup = O;
note = O;
rightKerningGroup = O;
unicode = 004F;
},
{
glyphname = Oacute;
lastChange = "2015-10-23 14:03:17 +0000";
layers = (
{
layerId = "47126D52-4795-4BAD-A976-8664E9644ACA";
name = Bold;
paths = (
{
closed = 1;
nodes = (
"566 -10 OFFCURVE",
"683 88 OFFCURVE",
"683 320 CURVE SMOOTH",
"683 560 OFFCURVE",
"566 654 OFFCURVE",
"354 654 CURVE SMOOTH",
"141 654 OFFCURVE",
"25 560 OFFCURVE",
"25 320 CURVE SMOOTH",
"25 88 OFFCURVE",
"141 -10 OFFCURVE",
"354 -10 CURVE SMOOTH"
);
},
{
closed = 1;
nodes = (
"258 150 OFFCURVE",
"217 201 OFFCURVE",
"217 320 CURVE SMOOTH",
"217 447 OFFCURVE",
"258 494 OFFCURVE",
"354 494 CURVE SMOOTH",
"450 494 OFFCURVE",
"491 447 OFFCURVE",
"491 320 CURVE SMOOTH",
"491 201 OFFCURVE",
"450 150 OFFCURVE",
"354 150 CURVE SMOOTH"
);
},
{
closed = 1;
nodes = (
"410 688 LINE",
"506 894 LINE",
"360 894 LINE",
"272 688 LINE"
);
}
);
width = 708;
}
);
leftKerningGroup = O;
note = Oacute;
rightKerningGroup = O;
unicode = 00D3;
},
{
glyphname = Obreve;
lastChange = "2015-10-23 14:03:17 +0000";
layers = (
{
layerId = "47126D52-4795-4BAD-A976-8664E9644ACA";
name = Bold;
paths = (
{
closed = 1;
nodes = (
"566 -10 OFFCURVE",
"683 88 OFFCURVE",
"683 320 CURVE SMOOTH",
"683 560 OFFCURVE",
"566 654 OFFCURVE",
"354 654 CURVE SMOOTH",
"141 654 OFFCURVE",
"25 560 OFFCURVE",
"25 320 CURVE SMOOTH",
"25 88 OFFCURVE",
"141 -10 OFFCURVE",
"354 -10 CURVE SMOOTH"
);
},
{
closed = 1;
nodes = (
"258 150 OFFCURVE",
"217 201 OFFCURVE",
"217 320 CURVE SMOOTH",
"217 447 OFFCURVE",
"258 494 OFFCURVE",
"354 494 CURVE SMOOTH",
"450 494 OFFCURVE",
"491 447 OFFCURVE",
"491 320 CURVE SMOOTH",
"491 201 OFFCURVE",
"450 150 OFFCURVE",
"354 150 CURVE SMOOTH"
);
},
{
closed = 1;
nodes = (
"468 688 OFFCURVE",
"544 754 OFFCURVE",
"544 875 CURVE",
"422 875 LINE",
"422 826 OFFCURVE",
"405 791 OFFCURVE",
"354 791 CURVE SMOOTH",
"303 791 OFFCURVE",
"287 826 OFFCURVE",
"287 875 CURVE",
"165 875 LINE",
"165 754 OFFCURVE",
"241 688 OFFCURVE",
"354 688 CURVE SMOOTH"
);
}
);
width = 708;
}
);
leftKerningGroup = O;
note = Obreve;
rightKerningGroup = O;
unicode = 014E;
},
{
glyphname = Ocaron;
lastChange = "2015-10-23 14:03:17 +0000";
layers = (
{
layerId = "47126D52-4795-4BAD-A976-8664E9644ACA";
name = Bold;
paths = (
{
closed = 1;
nodes = (
"566 -10 OFFCURVE",
"683 88 OFFCURVE",
"683 320 CURVE SMOOTH",
"683 560 OFFCURVE",
"566 654 OFFCURVE",
"354 654 CURVE SMOOTH",
"141 654 OFFCURVE",
"25 560 OFFCURVE",
"25 320 CURVE SMOOTH",
"25 88 OFFCURVE",
"141 -10 OFFCURVE",
"354 -10 CURVE SMOOTH"
);
},
{
closed = 1;
nodes = (
"258 150 OFFCURVE",
"217 201 OFFCURVE",
"217 320 CURVE SMOOTH",
"217 447 OFFCURVE",
"258 494 OFFCURVE",
"354 494 CURVE SMOOTH",
"450 494 OFFCURVE",
"491 447 OFFCURVE",
"491 320 CURVE SMOOTH",
"491 201 OFFCURVE",
"450 150 OFFCURVE",
"354 150 CURVE SMOOTH"
);
},
{
closed = 1;
nodes = (
"411 688 LINE",
"566 888 LINE",
"430 888 LINE",
"354 779 LINE",
"282 888 LINE",
"142 888 LINE",
"297 688 LINE"
);
}
);
width = 708;
}
);
leftKerningGroup = O;
note = Ocaron;
rightKerningGroup = O;
unicode = 01D1;
},
{
glyphname = Ocircumflex;
lastChange = "2015-10-23 14:03:17 +0000";
layers = (
{
layerId = "47126D52-4795-4BAD-A976-8664E9644ACA";
name = Bold;
paths = (
{
closed = 1;
nodes = (
"566 -10 OFFCURVE",
"683 88 OFFCURVE",
"683 320 CURVE SMOOTH",
"683 560 OFFCURVE",
"566 654 OFFCURVE",
"354 654 CURVE SMOOTH",
"141 654 OFFCURVE",
"25 560 OFFCURVE",
"25 320 CURVE SMOOTH",
"25 88 OFFCURVE",
"141 -10 OFFCURVE",
"354 -10 CURVE SMOOTH"
);
},
{
closed = 1;
nodes = (
"258 150 OFFCURVE",
"217 201 OFFCURVE",
"217 320 CURVE SMOOTH",
"217 447 OFFCURVE",
"258 494 OFFCURVE",
"354 494 CURVE SMOOTH",
"450 494 OFFCURVE",
"491 447 OFFCURVE",
"491 320 CURVE SMOOTH",
"491 201 OFFCURVE",
"450 150 OFFCURVE",
"354 150 CURVE SMOOTH"
);
},
{
closed = 1;
nodes = (
"283 688 LINE",
"355 796 LINE",
"431 688 LINE",
"567 688 LINE",
"412 888 LINE",
"298 888 LINE",
"143 688 LINE"
);
}
);
width = 708;
}
);
leftKerningGroup = O;
note = Ocircumflex;
rightKerningGroup = O;
unicode = 00D4;
},
{
glyphname = Ocircumflexacute;
lastChange = "2015-10-23 14:03:17 +0000";
layers = (
{
layerId = "47126D52-4795-4BAD-A976-8664E9644ACA";
name = Bold;
paths = (
{
closed = 1;
nodes = (
"566 -10 OFFCURVE",
"683 88 OFFCURVE",
"683 320 CURVE SMOOTH",
"683 560 OFFCURVE",
"566 654 OFFCURVE",
"354 654 CURVE SMOOTH",
"141 654 OFFCURVE",
"25 560 OFFCURVE",
"25 320 CURVE SMOOTH",
"25 88 OFFCURVE",
"141 -10 OFFCURVE",
"354 -10 CURVE SMOOTH"
);
},
{
closed = 1;
nodes = (
"258 150 OFFCURVE",
"217 201 OFFCURVE",
"217 320 CURVE SMOOTH",
"217 447 OFFCURVE",
"258 494 OFFCURVE",
"354 494 CURVE SMOOTH",
"450 494 OFFCURVE",
"491 447 OFFCURVE",
"491 320 CURVE SMOOTH",
"491 201 OFFCURVE",
"450 150 OFFCURVE",
"354 150 CURVE SMOOTH"
);
},
{
closed = 1;
nodes = (
"288 688 LINE",
"350 767 LINE",
"412 688 LINE",
"561 688 LINE",
"419 840 LINE",
"281 840 LINE",
"139 688 LINE"
);
},
{
closed = 1;
nodes = (
"604 813 LINE",
"682 969 LINE",
"543 969 LINE",
"472 813 LINE"
);
}
);
width = 708;
}
);
leftKerningGroup = O;
note = Ocircumflexacute;
rightKerningGroup = O;
unicode = 1ED0;
},
{
glyphname = Ocircumflexdotbelow;
lastChange = "2015-11-25 11:12:52 +0000";
layers = (
{
layerId = "47126D52-4795-4BAD-A976-8664E9644ACA";
name = Bold;
paths = (
{
closed = 1;
nodes = (
"566 -10 OFFCURVE",
"683 88 OFFCURVE",
"683 320 CURVE SMOOTH",
"683 560 OFFCURVE",
"566 654 OFFCURVE",
"354 654 CURVE SMOOTH",
"141 654 OFFCURVE",
"25 560 OFFCURVE",
"25 320 CURVE SMOOTH",
"25 88 OFFCURVE",
"141 -10 OFFCURVE",
"354 -10 CURVE SMOOTH"
);
},
{
closed = 1;
nodes = (
"258 150 OFFCURVE",
"217 201 OFFCURVE",
"217 320 CURVE SMOOTH",
"217 447 OFFCURVE",
"258 494 OFFCURVE",
"354 494 CURVE SMOOTH",
"450 494 OFFCURVE",
"491 447 OFFCURVE",
"491 320 CURVE SMOOTH",
"491 201 OFFCURVE",
"450 150 OFFCURVE",
"354 150 CURVE SMOOTH"
);
},
{
closed = 1;
nodes = (
"418 -176 LINE",
"418 -56 LINE",
"288 -56 LINE",
"288 -176 LINE"
);
},
{
closed = 1;
nodes = (
"282 688 LINE",
"354 796 LINE",
"430 688 LINE",
"566 688 LINE",
"411 888 LINE",
"297 888 LINE",
"142 688 LINE"
);
}
);
width = 708;
}
);
leftKerningGroup = O;
note = Ocircumflexdotbelow;
rightKerningGroup = O;
unicode = 1ED8;
},
{
glyphname = Ocircumflexgrave;
lastChange = "2015-10-23 14:03:17 +0000";
layers = (
{
layerId = "47126D52-4795-4BAD-A976-8664E9644ACA";
name = Bold;
paths = (
{
closed = 1;
nodes = (
"566 -10 OFFCURVE",
"683 88 OFFCURVE",
"683 320 CURVE SMOOTH",
"683 560 OFFCURVE",
"566 654 OFFCURVE",
"354 654 CURVE SMOOTH",
"141 654 OFFCURVE",
"25 560 OFFCURVE",
"25 320 CURVE SMOOTH",
"25 88 OFFCURVE",
"141 -10 OFFCURVE",
"354 -10 CURVE SMOOTH"
);
},
{
closed = 1;
nodes = (
"258 150 OFFCURVE",
"217 201 OFFCURVE",
"217 320 CURVE SMOOTH",
"217 447 OFFCURVE",
"258 494 OFFCURVE",
"354 494 CURVE SMOOTH",
"450 494 OFFCURVE",
"491 447 OFFCURVE",
"491 320 CURVE SMOOTH",
"491 201 OFFCURVE",
"450 150 OFFCURVE",
"354 150 CURVE SMOOTH"
);
},
{
closed = 1;
nodes = (
"235 813 LINE",
"164 969 LINE",
"25 969 LINE",
"103 813 LINE"
);
},
{
closed = 1;
nodes = (
"295 688 LINE",
"357 767 LINE",
"419 688 LINE",
"568 688 LINE",
"426 840 LINE",
"288 840 LINE",
"146 688 LINE"
);
}
);
width = 708;
}
);
leftKerningGroup = O;
note = Ocircumflexgrave;
rightKerningGroup = O;
unicode = 1ED2;
},
{
glyphname = Ocircumflexhookabove;
lastChange = "2015-10-23 14:03:17 +0000";
layers = (
{
layerId = "47126D52-4795-4BAD-A976-8664E9644ACA";
name = Bold;
paths = (
{
closed = 1;
nodes = (
"566 -10 OFFCURVE",
"683 88 OFFCURVE",
"683 320 CURVE SMOOTH",
"683 560 OFFCURVE",
"566 654 OFFCURVE",
"354 654 CURVE SMOOTH",
"141 654 OFFCURVE",
"25 560 OFFCURVE",
"25 320 CURVE SMOOTH",
"25 88 OFFCURVE",
"141 -10 OFFCURVE",
"354 -10 CURVE SMOOTH"
);
},
{
closed = 1;
nodes = (
"258 150 OFFCURVE",
"217 201 OFFCURVE",
"217 320 CURVE SMOOTH",
"217 447 OFFCURVE",
"258 494 OFFCURVE",
"354 494 CURVE SMOOTH",
"450 494 OFFCURVE",
"491 447 OFFCURVE",
"491 320 CURVE SMOOTH",
"491 201 OFFCURVE",
"450 150 OFFCURVE",
"354 150 CURVE SMOOTH"
);
},
{
closed = 1;
nodes = (
"293 688 LINE",
"355 767 LINE",
"417 688 LINE",
"566 688 LINE",
"424 840 LINE",
"286 840 LINE",
"144 688 LINE"
);
},
{
closed = 1;
nodes = (
"612 790 LINE",
"612 823 LINE",
"662 831 OFFCURVE",
"685 862 OFFCURVE",
"685 907 CURVE SMOOTH",
"685 960 OFFCURVE",
"646 993 OFFCURVE",
"565 993 CURVE SMOOTH",
"526 993 OFFCURVE",
"490 988 OFFCURVE",
"466 981 CURVE",
"466 909 LINE",
"481 913 OFFCURVE",
"498 916 OFFCURVE",
"517 916 CURVE SMOOTH",
"543 916 OFFCURVE",
"559 910 OFFCURVE",
"559 894 CURVE SMOOTH",
"559 877 OFFCURVE",
"546 864 OFFCURVE",
"487 863 CURVE",
"487 790 LINE"
);
}
);
width = 708;
}
);
leftKerningGroup = O;
note = Ocircumflexhookabove;
rightKerningGroup = O;
unicode = 1ED4;
},
{
glyphname = Ocircumflextilde;
lastChange = "2015-10-23 14:03:17 +0000";
layers = (
{
layerId = "47126D52-4795-4BAD-A976-8664E9644ACA";
name = Bold;
paths = (
{
closed = 1;
nodes = (
"566 -10 OFFCURVE",
"683 88 OFFCURVE",
"683 320 CURVE SMOOTH",
"683 560 OFFCURVE",
"566 654 OFFCURVE",
"354 654 CURVE SMOOTH",
"141 654 OFFCURVE",
"25 560 OFFCURVE",
"25 320 CURVE SMOOTH",
"25 88 OFFCURVE",
"141 -10 OFFCURVE",
"354 -10 CURVE SMOOTH"
);
},
{
closed = 1;
nodes = (
"258 150 OFFCURVE",
"217 201 OFFCURVE",
"217 320 CURVE SMOOTH",
"217 447 OFFCURVE",
"258 494 OFFCURVE",
"354 494 CURVE SMOOTH",
"450 494 OFFCURVE",
"491 447 OFFCURVE",
"491 320 CURVE SMOOTH",
"491 201 OFFCURVE",
"450 150 OFFCURVE",
"354 150 CURVE SMOOTH"
);
},
{
closed = 1;
nodes = (
"461 688 OFFCURVE",
"536 740 OFFCURVE",
"536 860 CURVE",
"431 860 LINE",
"431 812 OFFCURVE",
"404 780 OFFCURVE",
"354 780 CURVE SMOOTH",
"304 780 OFFCURVE",
"278 812 OFFCURVE",
"278 860 CURVE",
"173 860 LINE",
"173 740 OFFCURVE",
"247 688 OFFCURVE",
"354 688 CURVE SMOOTH"
);
},
{
closed = 1;
nodes = (
"488 878 OFFCURVE",
"522 893 OFFCURVE",
"535 910 CURVE",
"535 1013 LINE",
"519 990 OFFCURVE",
"487 974 OFFCURVE",
"446 974 CURVE SMOOTH",
"386 974 OFFCURVE",
"335 1015 OFFCURVE",
"270 1015 CURVE SMOOTH",
"232 1015 OFFCURVE",
"196 1001 OFFCURVE",
"178 983 CURVE",
"178 881 LINE",
"201 905 OFFCURVE",
"232 919 OFFCURVE",
"273 919 CURVE SMOOTH",
"327 919 OFFCURVE",
"386 878 OFFCURVE",
"449 878 CURVE SMOOTH"
);
}
);
width = 708;
}
);
leftKerningGroup = O;
note = Ocircumflextilde;
rightKerningGroup = O;
unicode = 1ED6;
},
{
glyphname = Odieresis;
lastChange = "2015-10-23 14:03:17 +0000";
layers = (
{
layerId = "47126D52-4795-4BAD-A976-8664E9644ACA";
name = Bold;
paths = (
{
closed = 1;
nodes = (
"566 -10 OFFCURVE",
"683 88 OFFCURVE",
"683 320 CURVE SMOOTH",
"683 560 OFFCURVE",
"566 654 OFFCURVE",
"354 654 CURVE SMOOTH",
"141 654 OFFCURVE",
"25 560 OFFCURVE",
"25 320 CURVE SMOOTH",
"25 88 OFFCURVE",
"141 -10 OFFCURVE",
"354 -10 CURVE SMOOTH"
);
},
{
closed = 1;
nodes = (
"258 150 OFFCURVE",
"217 201 OFFCURVE",
"217 320 CURVE SMOOTH",
"217 447 OFFCURVE",
"258 494 OFFCURVE",
"354 494 CURVE SMOOTH",
"450 494 OFFCURVE",
"491 447 OFFCURVE",
"491 320 CURVE SMOOTH",
"491 201 OFFCURVE",
"450 150 OFFCURVE",
"354 150 CURVE SMOOTH"
);
},
{
closed = 1;
nodes = (
"312 715 LINE",
"312 835 LINE",
"181 835 LINE",
"181 715 LINE"
);
},
{
closed = 1;
nodes = (
"528 715 LINE",
"528 835 LINE",
"397 835 LINE",
"397 715 LINE"
);
}
);
width = 708;
}
);
leftKerningGroup = O;
note = Odieresis;
rightKerningGroup = O;
unicode = 00D6;
},
{
glyphname = Odotbelow;
lastChange = "2015-11-25 11:12:58 +0000";
layers = (
{
layerId = "47126D52-4795-4BAD-A976-8664E9644ACA";
name = Bold;
paths = (
{
closed = 1;
nodes = (
"566 -10 OFFCURVE",
"683 88 OFFCURVE",
"683 320 CURVE SMOOTH",
"683 560 OFFCURVE",
"566 654 OFFCURVE",
"354 654 CURVE SMOOTH",
"141 654 OFFCURVE",
"25 560 OFFCURVE",
"25 320 CURVE SMOOTH",
"25 88 OFFCURVE",
"141 -10 OFFCURVE",
"354 -10 CURVE SMOOTH"
);
},
{
closed = 1;
nodes = (
"258 150 OFFCURVE",
"217 201 OFFCURVE",
"217 320 CURVE SMOOTH",
"217 447 OFFCURVE",
"258 494 OFFCURVE",
"354 494 CURVE SMOOTH",
"450 494 OFFCURVE",
"491 447 OFFCURVE",
"491 320 CURVE SMOOTH",
"491 201 OFFCURVE",
"450 150 OFFCURVE",
"354 150 CURVE SMOOTH"
);
},
{
closed = 1;
nodes = (
"419 -176 LINE",
"419 -56 LINE",
"289 -56 LINE",
"289 -176 LINE"
);
}
);
width = 708;
}
);
leftKerningGroup = O;
note = Odotbelow;
rightKerningGroup = O;
unicode = 1ECC;
},
{
glyphname = Ograve;
lastChange = "2015-10-23 14:03:17 +0000";
layers = (
{
layerId = "47126D52-4795-4BAD-A976-8664E9644ACA";
name = Bold;
paths = (
{
closed = 1;
nodes = (
"566 -10 OFFCURVE",
"683 88 OFFCURVE",
"683 320 CURVE SMOOTH",
"683 560 OFFCURVE",
"566 654 OFFCURVE",
"354 654 CURVE SMOOTH",
"141 654 OFFCURVE",
"25 560 OFFCURVE",
"25 320 CURVE SMOOTH",
"25 88 OFFCURVE",
"141 -10 OFFCURVE",
"354 -10 CURVE SMOOTH"
);
},
{
closed = 1;
nodes = (
"258 150 OFFCURVE",
"217 201 OFFCURVE",
"217 320 CURVE SMOOTH",
"217 447 OFFCURVE",
"258 494 OFFCURVE",
"354 494 CURVE SMOOTH",
"450 494 OFFCURVE",
"491 447 OFFCURVE",
"491 320 CURVE SMOOTH",
"491 201 OFFCURVE",
"450 150 OFFCURVE",
"354 150 CURVE SMOOTH"
);
},
{
closed = 1;
nodes = (
"429 688 LINE",
"341 894 LINE",
"194 894 LINE",
"291 688 LINE"
);
}
);
width = 708;
}
);
leftKerningGroup = O;
note = Ograve;
rightKerningGroup = O;
unicode = 00D2;
},
{
glyphname = Ohookabove;
lastChange = "2015-10-23 14:03:17 +0000";
layers = (
{
layerId = "47126D52-4795-4BAD-A976-8664E9644ACA";
name = Bold;
paths = (
{
closed = 1;
nodes = (
"566 -10 OFFCURVE",
"683 88 OFFCURVE",
"683 320 CURVE SMOOTH",
"683 560 OFFCURVE",
"566 654 OFFCURVE",
"354 654 CURVE SMOOTH",
"141 654 OFFCURVE",
"25 560 OFFCURVE",
"25 320 CURVE SMOOTH",
"25 88 OFFCURVE",
"141 -10 OFFCURVE",
"354 -10 CURVE SMOOTH"
);
},
{
closed = 1;
nodes = (
"258 150 OFFCURVE",
"217 201 OFFCURVE",
"217 320 CURVE SMOOTH",
"217 447 OFFCURVE",
"258 494 OFFCURVE",
"354 494 CURVE SMOOTH",
"450 494 OFFCURVE",
"491 447 OFFCURVE",
"491 320 CURVE SMOOTH",
"491 201 OFFCURVE",
"450 150 OFFCURVE",
"354 150 CURVE SMOOTH"
);
},
{
closed = 1;
nodes = (
"418 688 LINE",
"418 729 LINE",
"473 745 OFFCURVE",
"502 771 OFFCURVE",
"502 829 CURVE SMOOTH",
"502 888 OFFCURVE",
"452 930 OFFCURVE",
"361 930 CURVE SMOOTH",
"313 930 OFFCURVE",
"274 925 OFFCURVE",
"246 916 CURVE",
"246 838 LINE",
"262 842 OFFCURVE",
"286 846 OFFCURVE",
"305 846 CURVE SMOOTH",
"344 846 OFFCURVE",
"365 836 OFFCURVE",
"365 813 CURVE SMOOTH",
"365 788 OFFCURVE",
"346 773 OFFCURVE",
"277 769 CURVE",
"277 688 LINE"
);
}
);
width = 708;
}
);
leftKerningGroup = O;
note = Ohookabove;
rightKerningGroup = O;
unicode = 1ECE;
},
{
glyphname = Ohorn;
lastChange = "2015-10-23 14:03:17 +0000";
layers = (
{
layerId = "47126D52-4795-4BAD-A976-8664E9644ACA";
name = Bold;
paths = (
{
closed = 1;
nodes = (
"566 -10 OFFCURVE",
"683 88 OFFCURVE",
"683 320 CURVE SMOOTH",
"683 382 OFFCURVE",
"675 435 OFFCURVE",
"659 477 CURVE",
"755 497 OFFCURVE",
"795 556 OFFCURVE",
"795 688 CURVE",
"662 688 LINE",
"662 617 OFFCURVE",
"639 593 OFFCURVE",
"578 590 CURVE",
"524 634 OFFCURVE",
"449 654 OFFCURVE",
"354 654 CURVE SMOOTH",
"141 654 OFFCURVE",
"25 560 OFFCURVE",
"25 320 CURVE SMOOTH",
"25 88 OFFCURVE",
"141 -10 OFFCURVE",
"354 -10 CURVE SMOOTH"
);
},
{
closed = 1;
nodes = (
"258 150 OFFCURVE",
"217 201 OFFCURVE",
"217 320 CURVE SMOOTH",
"217 447 OFFCURVE",
"258 494 OFFCURVE",
"354 494 CURVE SMOOTH",
"450 494 OFFCURVE",
"491 447 OFFCURVE",
"491 320 CURVE SMOOTH",
"491 201 OFFCURVE",
"450 150 OFFCURVE",
"354 150 CURVE SMOOTH"
);
}
);
width = 790;
}
);
leftKerningGroup = O;
note = Ohorn;
rightKerningGroup = O;
unicode = 01A0;
},
{
glyphname = Ohornacute;
lastChange = "2015-10-23 14:03:17 +0000";
layers = (
{
layerId = "47126D52-4795-4BAD-A976-8664E9644ACA";
name = Bold;
paths = (
{
closed = 1;
nodes = (
"566 -10 OFFCURVE",
"683 88 OFFCURVE",
"683 320 CURVE SMOOTH",
"683 382 OFFCURVE",
"675 435 OFFCURVE",
"659 477 CURVE",
"755 497 OFFCURVE",
"795 556 OFFCURVE",
"795 688 CURVE",
"662 688 LINE",
"662 617 OFFCURVE",
"639 593 OFFCURVE",
"578 590 CURVE",
"524 634 OFFCURVE",
"449 654 OFFCURVE",
"354 654 CURVE SMOOTH",
"141 654 OFFCURVE",
"25 560 OFFCURVE",
"25 320 CURVE SMOOTH",
"25 88 OFFCURVE",
"141 -10 OFFCURVE",
"354 -10 CURVE SMOOTH"
);
},
{
closed = 1;
nodes = (
"258 150 OFFCURVE",
"217 201 OFFCURVE",
"217 320 CURVE SMOOTH",
"217 447 OFFCURVE",
"258 494 OFFCURVE",
"354 494 CURVE SMOOTH",
"450 494 OFFCURVE",
"491 447 OFFCURVE",
"491 320 CURVE SMOOTH",
"491 201 OFFCURVE",
"450 150 OFFCURVE",
"354 150 CURVE SMOOTH"
);
},
{
closed = 1;
nodes = (
"417 688 LINE",
"513 894 LINE",
"367 894 LINE",
"279 688 LINE"
);
}
);
width = 790;
}
);
leftKerningGroup = O;
note = Ohornacute;
rightKerningGroup = O;
unicode = 1EDA;
},
{
glyphname = Ohorndotbelow;
lastChange = "2015-11-25 11:13:06 +0000";
layers = (
{
layerId = "47126D52-4795-4BAD-A976-8664E9644ACA";
name = Bold;
paths = (
{
closed = 1;
nodes = (
"566 -10 OFFCURVE",
"683 88 OFFCURVE",
"683 320 CURVE SMOOTH",
"683 382 OFFCURVE",
"675 435 OFFCURVE",
"659 477 CURVE",
"755 497 OFFCURVE",
"795 556 OFFCURVE",
"795 688 CURVE",
"662 688 LINE",
"662 617 OFFCURVE",
"639 593 OFFCURVE",
"578 590 CURVE",
"524 634 OFFCURVE",
"449 654 OFFCURVE",
"354 654 CURVE SMOOTH",
"141 654 OFFCURVE",
"25 560 OFFCURVE",
"25 320 CURVE SMOOTH",
"25 88 OFFCURVE",
"141 -10 OFFCURVE",
"354 -10 CURVE SMOOTH"
);
},
{
closed = 1;
nodes = (
"258 150 OFFCURVE",
"217 201 OFFCURVE",
"217 320 CURVE SMOOTH",
"217 447 OFFCURVE",
"258 494 OFFCURVE",
"354 494 CURVE SMOOTH",
"450 494 OFFCURVE",
"491 447 OFFCURVE",
"491 320 CURVE SMOOTH",
"491 201 OFFCURVE",
"450 150 OFFCURVE",
"354 150 CURVE SMOOTH"
);
},
{
closed = 1;
nodes = (
"418 -176 LINE",
"418 -56 LINE",
"288 -56 LINE",
"288 -176 LINE"
);
}
);
width = 790;
}
);
leftKerningGroup = O;
note = Ohorndotbelow;
rightKerningGroup = O;
unicode = 1EE2;
},
{
glyphname = Ohorngrave;
lastChange = "2015-10-23 14:03:17 +0000";
layers = (
{
layerId = "47126D52-4795-4BAD-A976-8664E9644ACA";
name = Bold;
paths = (
{
closed = 1;
nodes = (
"566 -10 OFFCURVE",
"683 88 OFFCURVE",
"683 320 CURVE SMOOTH",
"683 382 OFFCURVE",
"675 435 OFFCURVE",
"659 477 CURVE",
"755 497 OFFCURVE",
"795 556 OFFCURVE",
"795 688 CURVE",
"662 688 LINE",
"662 617 OFFCURVE",
"639 593 OFFCURVE",
"578 590 CURVE",
"524 634 OFFCURVE",
"449 654 OFFCURVE",
"354 654 CURVE SMOOTH",
"141 654 OFFCURVE",
"25 560 OFFCURVE",
"25 320 CURVE SMOOTH",
"25 88 OFFCURVE",
"141 -10 OFFCURVE",
"354 -10 CURVE SMOOTH"
);
},
{
closed = 1;
nodes = (
"258 150 OFFCURVE",
"217 201 OFFCURVE",
"217 320 CURVE SMOOTH",
"217 447 OFFCURVE",
"258 494 OFFCURVE",
"354 494 CURVE SMOOTH",
"450 494 OFFCURVE",
"491 447 OFFCURVE",
"491 320 CURVE SMOOTH",
"491 201 OFFCURVE",
"450 150 OFFCURVE",
"354 150 CURVE SMOOTH"
);
},
{
closed = 1;
nodes = (
"431 688 LINE",
"343 894 LINE",
"196 894 LINE",
"293 688 LINE"
);
}
);
width = 790;
}
);
leftKerningGroup = O;
note = Ohorngrave;
rightKerningGroup = O;
unicode = 1EDC;
},
{
glyphname = Ohornhookabove;
lastChange = "2015-10-23 14:03:17 +0000";
layers = (
{
layerId = "47126D52-4795-4BAD-A976-8664E9644ACA";
name = Bold;
paths = (
{
closed = 1;
nodes = (
"566 -10 OFFCURVE",
"683 88 OFFCURVE",
"683 320 CURVE SMOOTH",
"683 382 OFFCURVE",
"675 435 OFFCURVE",
"659 477 CURVE",
"755 497 OFFCURVE",
"795 556 OFFCURVE",
"795 688 CURVE",
"662 688 LINE",
"662 617 OFFCURVE",
"639 593 OFFCURVE",
"578 590 CURVE",
"524 634 OFFCURVE",
"449 654 OFFCURVE",
"354 654 CURVE SMOOTH",
"141 654 OFFCURVE",
"25 560 OFFCURVE",
"25 320 CURVE SMOOTH",
"25 88 OFFCURVE",
"141 -10 OFFCURVE",
"354 -10 CURVE SMOOTH"
);
},
{
closed = 1;
nodes = (
"258 150 OFFCURVE",
"217 201 OFFCURVE",
"217 320 CURVE SMOOTH",
"217 447 OFFCURVE",
"258 494 OFFCURVE",
"354 494 CURVE SMOOTH",
"450 494 OFFCURVE",
"491 447 OFFCURVE",
"491 320 CURVE SMOOTH",
"491 201 OFFCURVE",
"450 150 OFFCURVE",
"354 150 CURVE SMOOTH"
);
},
{
closed = 1;
nodes = (
"421 688 LINE",
"421 729 LINE",
"476 745 OFFCURVE",
"505 771 OFFCURVE",
"505 829 CURVE SMOOTH",
"505 888 OFFCURVE",
"455 930 OFFCURVE",
"364 930 CURVE SMOOTH",
"316 930 OFFCURVE",
"277 925 OFFCURVE",
"249 916 CURVE",
"249 838 LINE",
"265 842 OFFCURVE",
"289 846 OFFCURVE",
"308 846 CURVE SMOOTH",
"347 846 OFFCURVE",
"368 836 OFFCURVE",
"368 813 CURVE SMOOTH",
"368 788 OFFCURVE",
"349 773 OFFCURVE",
"280 769 CURVE",
"280 688 LINE"
);
}
);
width = 790;
}
);
leftKerningGroup = O;
note = Ohornhookabove;
rightKerningGroup = O;
unicode = 1EDE;
},
{
glyphname = Ohorntilde;
lastChange = "2015-10-23 14:03:17 +0000";
layers = (
{
layerId = "47126D52-4795-4BAD-A976-8664E9644ACA";
name = Bold;
paths = (
{
closed = 1;
nodes = (
"566 -10 OFFCURVE",
"683 88 OFFCURVE",
"683 320 CURVE SMOOTH",
"683 382 OFFCURVE",
"675 435 OFFCURVE",
"659 477 CURVE",
"755 497 OFFCURVE",
"795 556 OFFCURVE",
"795 688 CURVE",
"662 688 LINE",
"662 617 OFFCURVE",
"639 593 OFFCURVE",
"578 590 CURVE",
"524 634 OFFCURVE",
"449 654 OFFCURVE",
"354 654 CURVE SMOOTH",
"141 654 OFFCURVE",
"25 560 OFFCURVE",
"25 320 CURVE SMOOTH",
"25 88 OFFCURVE",
"141 -10 OFFCURVE",
"354 -10 CURVE SMOOTH"
);
},
{
closed = 1;
nodes = (
"258 150 OFFCURVE",
"217 201 OFFCURVE",
"217 320 CURVE SMOOTH",
"217 447 OFFCURVE",
"258 494 OFFCURVE",
"354 494 CURVE SMOOTH",
"450 494 OFFCURVE",
"491 447 OFFCURVE",
"491 320 CURVE SMOOTH",
"491 201 OFFCURVE",
"450 150 OFFCURVE",
"354 150 CURVE SMOOTH"
);
},
{
closed = 1;
nodes = (
"491 692 OFFCURVE",
"526 707 OFFCURVE",
"539 725 CURVE",
"539 844 LINE",
"523 821 OFFCURVE",
"491 804 OFFCURVE",
"449 804 CURVE SMOOTH",
"386 804 OFFCURVE",
"335 846 OFFCURVE",
"268 846 CURVE SMOOTH",
"229 846 OFFCURVE",
"192 831 OFFCURVE",
"173 813 CURVE",
"173 695 LINE",
"197 719 OFFCURVE",
"229 734 OFFCURVE",
"271 734 CURVE SMOOTH",
"326 734 OFFCURVE",
"386 692 OFFCURVE",
"452 692 CURVE SMOOTH"
);
}
);
width = 790;
}
);
leftKerningGroup = O;
note = Ohorntilde;
rightKerningGroup = O;
unicode = 1EE0;
},
{
glyphname = Ohungarumlaut;
lastChange = "2015-10-23 14:03:17 +0000";
layers = (
{
layerId = "47126D52-4795-4BAD-A976-8664E9644ACA";
name = Bold;
paths = (
{
closed = 1;
nodes = (
"566 -10 OFFCURVE",
"683 88 OFFCURVE",
"683 320 CURVE SMOOTH",
"683 560 OFFCURVE",
"566 654 OFFCURVE",
"354 654 CURVE SMOOTH",
"141 654 OFFCURVE",
"25 560 OFFCURVE",
"25 320 CURVE SMOOTH",
"25 88 OFFCURVE",
"141 -10 OFFCURVE",
"354 -10 CURVE SMOOTH"
);
},
{
closed = 1;
nodes = (
"258 150 OFFCURVE",
"217 201 OFFCURVE",
"217 320 CURVE SMOOTH",
"217 447 OFFCURVE",
"258 494 OFFCURVE",
"354 494 CURVE SMOOTH",
"450 494 OFFCURVE",
"491 447 OFFCURVE",
"491 320 CURVE SMOOTH",
"491 201 OFFCURVE",
"450 150 OFFCURVE",
"354 150 CURVE SMOOTH"
);
},
{
closed = 1;
nodes = (
"285 688 LINE",
"387 872 LINE",
"229 872 LINE",
"143 688 LINE"
);
},
{
closed = 1;
nodes = (
"519 688 LINE",
"621 872 LINE",
"463 872 LINE",
"377 688 LINE"
);
}
);
width = 708;
}
);
leftKerningGroup = O;
note = Ohungarumlaut;
rightKerningGroup = O;
unicode = 0150;
},
{
glyphname = Omacron;
lastChange = "2015-10-23 14:03:17 +0000";
layers = (
{
layerId = "47126D52-4795-4BAD-A976-8664E9644ACA";
name = Bold;
paths = (
{
closed = 1;
nodes = (
"566 -10 OFFCURVE",
"683 88 OFFCURVE",
"683 320 CURVE SMOOTH",
"683 560 OFFCURVE",
"566 654 OFFCURVE",
"354 654 CURVE SMOOTH",
"141 654 OFFCURVE",
"25 560 OFFCURVE",
"25 320 CURVE SMOOTH",
"25 88 OFFCURVE",
"141 -10 OFFCURVE",
"354 -10 CURVE SMOOTH"
);
},
{
closed = 1;
nodes = (
"258 150 OFFCURVE",
"217 201 OFFCURVE",
"217 320 CURVE SMOOTH",
"217 447 OFFCURVE",
"258 494 OFFCURVE",
"354 494 CURVE SMOOTH",
"450 494 OFFCURVE",
"491 447 OFFCURVE",
"491 320 CURVE SMOOTH",
"491 201 OFFCURVE",
"450 150 OFFCURVE",
"354 150 CURVE SMOOTH"
);
},
{
closed = 1;
nodes = (
"517 725 LINE",
"517 837 LINE",
"189 837 LINE",
"189 725 LINE"
);
}
);
width = 708;
}
);
leftKerningGroup = O;
note = Omacron;
rightKerningGroup = O;
unicode = 014C;
},
{
glyphname = Oslash;
lastChange = "2015-10-23 14:03:17 +0000";
layers = (
{
layerId = "47126D52-4795-4BAD-A976-8664E9644ACA";
name = Bold;
paths = (
{
closed = 1;
nodes = (
"253 -53 LINE",
"272 -4 LINE",
"297 -8 OFFCURVE",
"325 -10 OFFCURVE",
"354 -10 CURVE SMOOTH",
"566 -10 OFFCURVE",
"683 88 OFFCURVE",
"683 320 CURVE SMOOTH",
"683 487 OFFCURVE",
"626 583 OFFCURVE",
"520 626 CURVE",
"547 693 LINE",
"445 693 LINE",
"428 649 LINE",
"405 652 OFFCURVE",
"380 654 OFFCURVE",
"354 654 CURVE SMOOTH",
"141 654 OFFCURVE",
"25 560 OFFCURVE",
"25 320 CURVE SMOOTH",
"25 162 OFFCURVE",
"79 66 OFFCURVE",
"180 21 CURVE",
"151 -53 LINE"
);
},
{
closed = 1;
nodes = (
"227 220 OFFCURVE",
"217 262 OFFCURVE",
"217 320 CURVE SMOOTH",
"217 447 OFFCURVE",
"258 494 OFFCURVE",
"354 494 CURVE SMOOTH",
"358 494 OFFCURVE",
"362 493 OFFCURVE",
"366 493 CURVE",
"248 192 LINE"
);
},
{
closed = 1;
nodes = (
"347 150 OFFCURVE",
"340 150 OFFCURVE",
"333 151 CURVE",
"454 459 LINE",
"479 431 OFFCURVE",
"491 387 OFFCURVE",
"491 320 CURVE SMOOTH",
"491 201 OFFCURVE",
"450 150 OFFCURVE",
"354 150 CURVE SMOOTH"
);
}
);
width = 708;
}
);
leftKerningGroup = O;
note = Oslash;
rightKerningGroup = O;
unicode = 00D8;
},
{
glyphname = Oslashacute;
lastChange = "2015-10-23 14:03:17 +0000";
layers = (
{
layerId = "47126D52-4795-4BAD-A976-8664E9644ACA";
name = Bold;
paths = (
{
closed = 1;
nodes = (
"253 -53 LINE",
"272 -4 LINE",
"297 -8 OFFCURVE",
"325 -10 OFFCURVE",
"354 -10 CURVE SMOOTH",
"566 -10 OFFCURVE",
"683 88 OFFCURVE",
"683 320 CURVE SMOOTH",
"683 487 OFFCURVE",
"626 583 OFFCURVE",
"520 626 CURVE",
"547 693 LINE",
"445 693 LINE",
"428 649 LINE",
"405 652 OFFCURVE",
"380 654 OFFCURVE",
"354 654 CURVE SMOOTH",
"141 654 OFFCURVE",
"25 560 OFFCURVE",
"25 320 CURVE SMOOTH",
"25 162 OFFCURVE",
"79 66 OFFCURVE",
"180 21 CURVE",
"151 -53 LINE"
);
},
{
closed = 1;
nodes = (
"227 220 OFFCURVE",
"217 262 OFFCURVE",
"217 320 CURVE SMOOTH",
"217 447 OFFCURVE",
"258 494 OFFCURVE",
"354 494 CURVE SMOOTH",
"358 494 OFFCURVE",
"362 493 OFFCURVE",
"366 493 CURVE",
"248 192 LINE"
);
},
{
closed = 1;
nodes = (
"347 150 OFFCURVE",
"340 150 OFFCURVE",
"333 151 CURVE",
"454 459 LINE",
"479 431 OFFCURVE",
"491 387 OFFCURVE",
"491 320 CURVE SMOOTH",
"491 201 OFFCURVE",
"450 150 OFFCURVE",
"354 150 CURVE SMOOTH"
);
},
{
closed = 1;
nodes = (
"384 688 LINE",
"480 894 LINE",
"334 894 LINE",
"246 688 LINE"
);
}
);
width = 708;
}
);
leftKerningGroup = O;
note = Oslashacute;
rightKerningGroup = O;
unicode = 01FE;
},
{
glyphname = Otilde;
lastChange = "2015-10-23 14:03:17 +0000";
layers = (
{
layerId = "47126D52-4795-4BAD-A976-8664E9644ACA";
name = Bold;
paths = (
{
closed = 1;
nodes = (
"566 -10 OFFCURVE",
"683 88 OFFCURVE",
"683 320 CURVE SMOOTH",
"683 560 OFFCURVE",
"566 654 OFFCURVE",
"354 654 CURVE SMOOTH",
"141 654 OFFCURVE",
"25 560 OFFCURVE",
"25 320 CURVE SMOOTH",
"25 88 OFFCURVE",
"141 -10 OFFCURVE",
"354 -10 CURVE SMOOTH"
);
},
{
closed = 1;
nodes = (
"258 150 OFFCURVE",
"217 201 OFFCURVE",
"217 320 CURVE SMOOTH",
"217 447 OFFCURVE",
"258 494 OFFCURVE",
"354 494 CURVE SMOOTH",
"450 494 OFFCURVE",
"491 447 OFFCURVE",
"491 320 CURVE SMOOTH",
"491 201 OFFCURVE",
"450 150 OFFCURVE",
"354 150 CURVE SMOOTH"
);
},
{
closed = 1;
nodes = (
"490 711 OFFCURVE",
"525 726 OFFCURVE",
"538 744 CURVE",
"538 863 LINE",
"522 840 OFFCURVE",
"490 823 OFFCURVE",
"448 823 CURVE SMOOTH",
"385 823 OFFCURVE",
"334 865 OFFCURVE",
"267 865 CURVE SMOOTH",
"228 865 OFFCURVE",
"191 850 OFFCURVE",
"172 832 CURVE",
"172 714 LINE",
"196 738 OFFCURVE",
"228 753 OFFCURVE",
"270 753 CURVE SMOOTH",
"325 753 OFFCURVE",
"385 711 OFFCURVE",
"451 711 CURVE SMOOTH"
);
}
);
width = 708;
}
);
leftKerningGroup = O;
note = Otilde;
rightKerningGroup = O;
unicode = 00D5;
},
{
glyphname = OE;
lastChange = "2015-10-23 14:03:17 +0000";
layers = (
{
layerId = "47126D52-4795-4BAD-A976-8664E9644ACA";
name = Bold;
paths = (
{
closed = 1;
nodes = (
"566 -10 OFFCURVE",
"683 88 OFFCURVE",
"683 320 CURVE SMOOTH",
"683 560 OFFCURVE",
"566 654 OFFCURVE",
"354 654 CURVE SMOOTH",
"141 654 OFFCURVE",
"25 560 OFFCURVE",
"25 320 CURVE SMOOTH",
"25 88 OFFCURVE",
"141 -10 OFFCURVE",
"354 -10 CURVE SMOOTH"
);
},
{
closed = 1;
nodes = (
"258 150 OFFCURVE",
"217 201 OFFCURVE",
"217 320 CURVE SMOOTH",
"217 447 OFFCURVE",
"258 494 OFFCURVE",
"354 494 CURVE SMOOTH",
"450 494 OFFCURVE",
"491 447 OFFCURVE",
"491 320 CURVE SMOOTH",
"491 201 OFFCURVE",
"450 150 OFFCURVE",
"354 150 CURVE SMOOTH"
);
},
{
closed = 1;
nodes = (
"979 0 LINE",
"979 144 LINE",
"679 144 LINE",
"679 249 LINE",
"942 249 LINE",
"942 395 LINE",
"679 395 LINE",
"679 500 LINE",
"979 500 LINE",
"979 644 LINE",
"491 644 LINE",
"491 0 LINE"
);
}
);
width = 1004;
}
);
leftKerningGroup = C;
note = OE;
unicode = 0152;
},
{
glyphname = P;
lastChange = "2015-10-23 14:03:17 +0000";
layers = (
{
layerId = "47126D52-4795-4BAD-A976-8664E9644ACA";
name = Bold;
paths = (
{
closed = 1;
nodes = (
"233 0 LINE",
"233 173 LINE",
"373 173 LINE SMOOTH",
"517 173 OFFCURVE",
"609 271 OFFCURVE",
"609 407 CURVE SMOOTH",
"609 539 OFFCURVE",
"535 644 OFFCURVE",
"377 644 CURVE SMOOTH",
"45 644 LINE",
"45 0 LINE"
);
},
{
closed = 1;
nodes = (
"233 500 LINE",
"335 500 LINE SMOOTH",
"391 500 OFFCURVE",
"417 464 OFFCURVE",
"417 407 CURVE SMOOTH",
"417 354 OFFCURVE",
"388 317 OFFCURVE",
"330 317 CURVE SMOOTH",
"233 317 LINE"
);
}
);
width = 614;
}
);
note = P;
unicode = 0050;
},
{
glyphname = Thorn;
lastChange = "2015-11-25 11:13:15 +0000";
layers = (
{
layerId = "47126D52-4795-4BAD-A976-8664E9644ACA";
name = Bold;
paths = (
{
closed = 1;
nodes = (
"233 0 LINE",
"233 90 LINE",
"373 90 LINE SMOOTH",
"517 90 OFFCURVE",
"609 185 OFFCURVE",
"609 321 CURVE SMOOTH",
"609 453 OFFCURVE",
"535 553 OFFCURVE",
"377 553 CURVE SMOOTH",
"233 553 LINE",
"233 644 LINE",
"45 644 LINE",
"45 0 LINE"
);
},
{
closed = 1;
nodes = (
"233 409 LINE",
"335 409 LINE SMOOTH",
"391 409 OFFCURVE",
"418 378 OFFCURVE",
"418 321 CURVE SMOOTH",
"418 268 OFFCURVE",
"388 234 OFFCURVE",
"330 234 CURVE SMOOTH",
"233 234 LINE"
);
}
);
width = 614;
}
);
note = Thorn;
unicode = 00DE;
},
{
glyphname = Q;
lastChange = "2015-10-23 14:03:17 +0000";
layers = (
{
layerId = "47126D52-4795-4BAD-A976-8664E9644ACA";
name = Bold;
paths = (
{
closed = 1;
nodes = (
"494 -172 OFFCURVE",
"523 -168 OFFCURVE",
"543 -162 CURVE",
"543 -46 LINE",
"523 -52 OFFCURVE",
"500 -56 OFFCURVE",
"480 -56 CURVE SMOOTH",
"448 -56 OFFCURVE",
"431 -47 OFFCURVE",
"431 -5 CURVE",
"594 17 OFFCURVE",
"683 118 OFFCURVE",
"683 320 CURVE SMOOTH",
"683 560 OFFCURVE",
"566 654 OFFCURVE",
"354 654 CURVE SMOOTH",
"141 654 OFFCURVE",
"25 560 OFFCURVE",
"25 320 CURVE SMOOTH",
"25 115 OFFCURVE",
"115 14 OFFCURVE",
"284 -6 CURVE",
"285 -117 OFFCURVE",
"335 -172 OFFCURVE",
"472 -172 CURVE SMOOTH"
);
},
{
closed = 1;
nodes = (
"258 150 OFFCURVE",
"217 201 OFFCURVE",
"217 320 CURVE SMOOTH",
"217 447 OFFCURVE",
"258 494 OFFCURVE",
"354 494 CURVE SMOOTH",
"450 494 OFFCURVE",
"491 447 OFFCURVE",
"491 320 CURVE SMOOTH",
"491 201 OFFCURVE",
"450 150 OFFCURVE",
"354 150 CURVE SMOOTH"
);
}
);
width = 708;
}
);
leftKerningGroup = O;
note = Q;
rightKerningGroup = O;
unicode = 0051;
},
{
glyphname = R;
lastChange = "2015-10-23 14:03:17 +0000";
layers = (
{
layerId = "47126D52-4795-4BAD-A976-8664E9644ACA";
name = Bold;
paths = (
{
closed = 1;
nodes = (
"233 0 LINE",
"233 188 LINE",
"286 188 LINE SMOOTH",
"314 188 OFFCURVE",
"327 179 OFFCURVE",
"338 155 CURVE SMOOTH",
"406 0 LINE",
"602 0 LINE",
"528 169 LINE SMOOTH",
"515 198 OFFCURVE",
"506 213 OFFCURVE",
"491 225 CURVE",
"563 260 OFFCURVE",
"610 328 OFFCURVE",
"610 415 CURVE SMOOTH",
"610 550 OFFCURVE",
"537 644 OFFCURVE",
"380 644 CURVE SMOOTH",
"45 644 LINE",
"45 0 LINE"
);
},
{
closed = 1;
nodes = (
"233 500 LINE",
"338 500 LINE SMOOTH",
"392 500 OFFCURVE",
"418 470 OFFCURVE",
"418 415 CURVE SMOOTH",
"418 361 OFFCURVE",
"387 332 OFFCURVE",
"332 332 CURVE SMOOTH",
"233 332 LINE"
);
}
);
width = 635;
}
);
note = R;
rightKerningGroup = R;
unicode = 0052;
},
{
glyphname = Racute;
lastChange = "2015-10-23 14:03:17 +0000";
layers = (
{
layerId = "47126D52-4795-4BAD-A976-8664E9644ACA";
name = Bold;
paths = (
{
closed = 1;
nodes = (
"233 0 LINE",
"233 188 LINE",
"286 188 LINE SMOOTH",
"314 188 OFFCURVE",
"327 179 OFFCURVE",
"338 155 CURVE SMOOTH",
"406 0 LINE",
"602 0 LINE",
"528 169 LINE SMOOTH",
"515 198 OFFCURVE",
"506 213 OFFCURVE",
"491 225 CURVE",
"563 260 OFFCURVE",
"610 328 OFFCURVE",
"610 415 CURVE SMOOTH",
"610 550 OFFCURVE",
"537 644 OFFCURVE",
"380 644 CURVE SMOOTH",
"45 644 LINE",
"45 0 LINE"
);
},
{
closed = 1;
nodes = (
"233 500 LINE",
"338 500 LINE SMOOTH",
"392 500 OFFCURVE",
"418 470 OFFCURVE",
"418 415 CURVE SMOOTH",
"418 361 OFFCURVE",
"387 332 OFFCURVE",
"332 332 CURVE SMOOTH",
"233 332 LINE"
);
},
{
closed = 1;
nodes = (
"321 688 LINE",
"417 894 LINE",
"271 894 LINE",
"183 688 LINE"
);
}
);
width = 635;
}
);
note = Racute;
rightKerningGroup = R;
unicode = 0154;
},
{
glyphname = Rcaron;
lastChange = "2015-10-23 14:03:17 +0000";
layers = (
{
layerId = "47126D52-4795-4BAD-A976-8664E9644ACA";
name = Bold;
paths = (
{
closed = 1;
nodes = (
"233 0 LINE",
"233 188 LINE",
"286 188 LINE SMOOTH",
"314 188 OFFCURVE",
"327 179 OFFCURVE",
"338 155 CURVE SMOOTH",
"406 0 LINE",
"602 0 LINE",
"528 169 LINE SMOOTH",
"515 198 OFFCURVE",
"506 213 OFFCURVE",
"491 225 CURVE",
"563 260 OFFCURVE",
"610 328 OFFCURVE",
"610 415 CURVE SMOOTH",
"610 550 OFFCURVE",
"537 644 OFFCURVE",
"380 644 CURVE SMOOTH",
"45 644 LINE",
"45 0 LINE"
);
},
{
closed = 1;
nodes = (
"233 500 LINE",
"338 500 LINE SMOOTH",
"392 500 OFFCURVE",
"418 470 OFFCURVE",
"418 415 CURVE SMOOTH",
"418 361 OFFCURVE",
"387 332 OFFCURVE",
"332 332 CURVE SMOOTH",
"233 332 LINE"
);
},
{
closed = 1;
nodes = (
"324 688 LINE",
"479 888 LINE",
"343 888 LINE",
"267 779 LINE",
"195 888 LINE",
"55 888 LINE",
"210 688 LINE"
);
}
);
width = 635;
}
);
note = Rcaron;
rightKerningGroup = R;
unicode = 0158;
},
{
glyphname = Rcommaaccent;
lastChange = "2015-11-25 11:13:21 +0000";
layers = (
{
layerId = "47126D52-4795-4BAD-A976-8664E9644ACA";
name = Bold;
paths = (
{
closed = 1;
nodes = (
"233 0 LINE",
"233 188 LINE",
"286 188 LINE SMOOTH",
"314 188 OFFCURVE",
"327 179 OFFCURVE",
"338 155 CURVE SMOOTH",
"406 0 LINE",
"602 0 LINE",
"528 169 LINE SMOOTH",
"515 198 OFFCURVE",
"506 213 OFFCURVE",
"491 225 CURVE",
"563 260 OFFCURVE",
"610 328 OFFCURVE",
"610 415 CURVE SMOOTH",
"610 550 OFFCURVE",
"537 644 OFFCURVE",
"380 644 CURVE SMOOTH",
"45 644 LINE",
"45 0 LINE"
);
},
{
closed = 1;
nodes = (
"233 500 LINE",
"338 500 LINE SMOOTH",
"392 500 OFFCURVE",
"418 470 OFFCURVE",
"418 415 CURVE SMOOTH",
"418 361 OFFCURVE",
"387 332 OFFCURVE",
"332 332 CURVE SMOOTH",
"233 332 LINE"
);
},
{
closed = 1;
nodes = (
"330 -262 LINE",
"387 -37 LINE",
"234 -37 LINE",
"200 -262 LINE"
);
}
);
width = 635;
}
);
note = Rcommaaccent;
rightKerningGroup = R;
unicode = 0156;
},
{
glyphname = Rdotbelow;
lastChange = "2015-11-25 11:13:30 +0000";
layers = (
{
layerId = "47126D52-4795-4BAD-A976-8664E9644ACA";
name = Bold;
paths = (
{
closed = 1;
nodes = (
"233 0 LINE",
"233 188 LINE",
"286 188 LINE SMOOTH",
"314 188 OFFCURVE",
"327 179 OFFCURVE",
"338 155 CURVE SMOOTH",
"406 0 LINE",
"602 0 LINE",
"528 169 LINE SMOOTH",
"515 198 OFFCURVE",
"506 213 OFFCURVE",
"491 225 CURVE",
"563 260 OFFCURVE",
"610 328 OFFCURVE",
"610 415 CURVE SMOOTH",
"610 550 OFFCURVE",
"537 644 OFFCURVE",
"380 644 CURVE SMOOTH",
"45 644 LINE",
"45 0 LINE"
);
},
{
closed = 1;
nodes = (
"233 500 LINE",
"338 500 LINE SMOOTH",
"392 500 OFFCURVE",
"418 470 OFFCURVE",
"418 415 CURVE SMOOTH",
"418 361 OFFCURVE",
"387 332 OFFCURVE",
"332 332 CURVE SMOOTH",
"233 332 LINE"
);
},
{
closed = 1;
nodes = (
"374 -176 LINE",
"374 -56 LINE",
"244 -56 LINE",
"244 -176 LINE"
);
}
);
width = 635;
}
);
note = Rdotbelow;
rightKerningGroup = R;
unicode = 1E5A;
},
{
glyphname = Rdotbelowmacron;
lastChange = "2015-11-25 11:13:46 +0000";
layers = (
{
layerId = "47126D52-4795-4BAD-A976-8664E9644ACA";
name = Bold;
paths = (
{
closed = 1;
nodes = (
"233 0 LINE",
"233 188 LINE",
"286 188 LINE SMOOTH",
"314 188 OFFCURVE",
"327 179 OFFCURVE",
"338 155 CURVE SMOOTH",
"406 0 LINE",
"602 0 LINE",
"528 169 LINE SMOOTH",
"515 198 OFFCURVE",
"506 213 OFFCURVE",
"491 225 CURVE",
"563 260 OFFCURVE",
"610 328 OFFCURVE",
"610 415 CURVE SMOOTH",
"610 550 OFFCURVE",
"537 644 OFFCURVE",
"380 644 CURVE SMOOTH",
"45 644 LINE",
"45 0 LINE"
);
},
{
closed = 1;
nodes = (
"233 500 LINE",
"338 500 LINE SMOOTH",
"392 500 OFFCURVE",
"418 470 OFFCURVE",
"418 415 CURVE SMOOTH",
"418 361 OFFCURVE",
"387 332 OFFCURVE",
"332 332 CURVE SMOOTH",
"233 332 LINE"
);
},
{
closed = 1;
nodes = (
"374 -176 LINE",
"374 -56 LINE",
"244 -56 LINE",
"244 -176 LINE"
);
},
{
closed = 1;
nodes = (
"456 717 LINE",
"456 829 LINE",
"128 829 LINE",
"128 717 LINE"
);
}
);
width = 635;
}
);
note = Rdotbelowmacron;
rightKerningGroup = R;
unicode = 1E5C;
},
{
glyphname = Rlinebelow;
lastChange = "2015-11-25 11:13:41 +0000";
layers = (
{
layerId = "47126D52-4795-4BAD-A976-8664E9644ACA";
name = Bold;
paths = (
{
closed = 1;
nodes = (
"233 0 LINE",
"233 188 LINE",
"286 188 LINE SMOOTH",
"314 188 OFFCURVE",
"327 179 OFFCURVE",
"338 155 CURVE SMOOTH",
"406 0 LINE",
"602 0 LINE",
"528 169 LINE SMOOTH",
"515 198 OFFCURVE",
"506 213 OFFCURVE",
"491 225 CURVE",
"563 260 OFFCURVE",
"610 328 OFFCURVE",
"610 415 CURVE SMOOTH",
"610 550 OFFCURVE",
"537 644 OFFCURVE",
"380 644 CURVE SMOOTH",
"45 644 LINE",
"45 0 LINE"
);
},
{
closed = 1;
nodes = (
"233 500 LINE",
"338 500 LINE SMOOTH",
"392 500 OFFCURVE",
"418 470 OFFCURVE",
"418 415 CURVE SMOOTH",
"418 361 OFFCURVE",
"387 332 OFFCURVE",
"332 332 CURVE SMOOTH",
"233 332 LINE"
);
},
{
closed = 1;
nodes = (
"464 -176 LINE",
"464 -64 LINE",
"136 -64 LINE",
"136 -176 LINE"
);
}
);
width = 635;
}
);
note = Rlinebelow;
rightKerningGroup = R;
unicode = 1E5E;
},
{
glyphname = S;
lastChange = "2015-10-23 14:03:17 +0000";
layers = (
{
layerId = "47126D52-4795-4BAD-A976-8664E9644ACA";
name = Bold;
paths = (
{
closed = 1;
nodes = (
"440 -10 OFFCURVE",
"530 68 OFFCURVE",
"530 185 CURVE SMOOTH",
"530 285 OFFCURVE",
"496 352 OFFCURVE",
"338 395 CURVE SMOOTH",
"247 419 OFFCURVE",
"217 427 OFFCURVE",
"217 461 CURVE SMOOTH",
"217 500 OFFCURVE",
"264 504 OFFCURVE",
"323 504 CURVE SMOOTH",
"373 504 OFFCURVE",
"431 494 OFFCURVE",
"494 469 CURVE",
"494 625 LINE",
"447 640 OFFCURVE",
"364 654 OFFCURVE",
"293 654 CURVE SMOOTH",
"116 654 OFFCURVE",
"25 587 OFFCURVE",
"25 460 CURVE SMOOTH",
"25 355 OFFCURVE",
"69 307 OFFCURVE",
"199 265 CURVE SMOOTH",
"296 235 OFFCURVE",
"338 226 OFFCURVE",
"338 185 CURVE SMOOTH",
"338 145 OFFCURVE",
"303 138 OFFCURVE",
"237 138 CURVE SMOOTH",
"173 138 OFFCURVE",
"94 157 OFFCURVE",
"34 185 CURVE",
"34 30 LINE",
"88 4 OFFCURVE",
"169 -10 OFFCURVE",
"256 -10 CURVE SMOOTH"
);
}
);
width = 555;
}
);
leftKerningGroup = S;
note = S;
rightKerningGroup = S;
unicode = 0053;
},
{
glyphname = Sacute;
lastChange = "2015-10-23 14:03:17 +0000";
layers = (
{
layerId = "47126D52-4795-4BAD-A976-8664E9644ACA";
name = Bold;
paths = (
{
closed = 1;
nodes = (
"440 -10 OFFCURVE",
"530 68 OFFCURVE",
"530 185 CURVE SMOOTH",
"530 285 OFFCURVE",
"496 352 OFFCURVE",
"338 395 CURVE SMOOTH",
"247 419 OFFCURVE",
"217 427 OFFCURVE",
"217 461 CURVE SMOOTH",
"217 500 OFFCURVE",
"264 504 OFFCURVE",
"323 504 CURVE SMOOTH",
"373 504 OFFCURVE",
"431 494 OFFCURVE",
"494 469 CURVE",
"494 625 LINE",
"447 640 OFFCURVE",
"364 654 OFFCURVE",
"293 654 CURVE SMOOTH",
"116 654 OFFCURVE",
"25 587 OFFCURVE",
"25 460 CURVE SMOOTH",
"25 355 OFFCURVE",
"69 307 OFFCURVE",
"199 265 CURVE SMOOTH",
"296 235 OFFCURVE",
"338 226 OFFCURVE",
"338 185 CURVE SMOOTH",
"338 145 OFFCURVE",
"303 138 OFFCURVE",
"237 138 CURVE SMOOTH",
"173 138 OFFCURVE",
"94 157 OFFCURVE",
"34 185 CURVE",
"34 30 LINE",
"88 4 OFFCURVE",
"169 -10 OFFCURVE",
"256 -10 CURVE SMOOTH"
);
},
{
closed = 1;
nodes = (
"331 689 LINE",
"427 895 LINE",
"281 895 LINE",
"193 689 LINE"
);
}
);
width = 555;
}
);
leftKerningGroup = S;
note = Sacute;
rightKerningGroup = S;
unicode = 015A;
},
{
glyphname = Scaron;
lastChange = "2015-10-23 14:03:17 +0000";
layers = (
{
layerId = "47126D52-4795-4BAD-A976-8664E9644ACA";
name = Bold;
paths = (
{
closed = 1;
nodes = (
"440 -10 OFFCURVE",
"530 68 OFFCURVE",
"530 185 CURVE SMOOTH",
"530 285 OFFCURVE",
"496 352 OFFCURVE",
"338 395 CURVE SMOOTH",
"247 419 OFFCURVE",
"217 427 OFFCURVE",
"217 461 CURVE SMOOTH",
"217 500 OFFCURVE",
"264 504 OFFCURVE",
"323 504 CURVE SMOOTH",
"373 504 OFFCURVE",
"431 494 OFFCURVE",
"494 469 CURVE",
"494 625 LINE",
"447 640 OFFCURVE",
"364 654 OFFCURVE",
"293 654 CURVE SMOOTH",
"116 654 OFFCURVE",
"25 587 OFFCURVE",
"25 460 CURVE SMOOTH",
"25 355 OFFCURVE",
"69 307 OFFCURVE",
"199 265 CURVE SMOOTH",
"296 235 OFFCURVE",
"338 226 OFFCURVE",
"338 185 CURVE SMOOTH",
"338 145 OFFCURVE",
"303 138 OFFCURVE",
"237 138 CURVE SMOOTH",
"173 138 OFFCURVE",
"94 157 OFFCURVE",
"34 185 CURVE",
"34 30 LINE",
"88 4 OFFCURVE",
"169 -10 OFFCURVE",
"256 -10 CURVE SMOOTH"
);
},
{
closed = 1;
nodes = (
"326 688 LINE",
"481 888 LINE",
"345 888 LINE",
"269 779 LINE",
"197 888 LINE",
"57 888 LINE",
"212 688 LINE"
);
}
);
width = 555;
}
);
leftKerningGroup = S;
note = Scaron;
rightKerningGroup = S;
unicode = 0160;
},
{
glyphname = Scedilla;
lastChange = "2015-10-23 14:03:17 +0000";
layers = (
{
layerId = "47126D52-4795-4BAD-A976-8664E9644ACA";
name = Bold;
paths = (
{
closed = 1;
nodes = (
"440 -10 OFFCURVE",
"530 68 OFFCURVE",
"530 185 CURVE SMOOTH",
"530 285 OFFCURVE",
"496 352 OFFCURVE",
"338 395 CURVE SMOOTH",
"247 419 OFFCURVE",
"217 427 OFFCURVE",
"217 461 CURVE SMOOTH",
"217 500 OFFCURVE",
"264 504 OFFCURVE",
"323 504 CURVE SMOOTH",
"373 504 OFFCURVE",
"431 494 OFFCURVE",
"494 469 CURVE",
"494 625 LINE",
"447 640 OFFCURVE",
"364 654 OFFCURVE",
"293 654 CURVE SMOOTH",
"116 654 OFFCURVE",
"25 587 OFFCURVE",
"25 460 CURVE SMOOTH",
"25 355 OFFCURVE",
"69 307 OFFCURVE",
"199 265 CURVE SMOOTH",
"296 235 OFFCURVE",
"338 226 OFFCURVE",
"338 185 CURVE SMOOTH",
"338 145 OFFCURVE",
"303 138 OFFCURVE",
"237 138 CURVE SMOOTH",
"173 138 OFFCURVE",
"94 157 OFFCURVE",
"34 185 CURVE",
"34 30 LINE",
"88 4 OFFCURVE",
"169 -10 OFFCURVE",
"256 -10 CURVE SMOOTH"
);
},
{
closed = 1;
nodes = (
"368 -240 OFFCURVE",
"420 -201 OFFCURVE",
"420 -135 CURVE SMOOTH",
"420 -80 OFFCURVE",
"387 -41 OFFCURVE",
"308 -41 CURVE",
"323 0 LINE",
"220 0 LINE",
"191 -101 LINE",
"254 -101 LINE SMOOTH",
"286 -101 OFFCURVE",
"308 -105 OFFCURVE",
"308 -132 CURVE SMOOTH",
"308 -158 OFFCURVE",
"287 -166 OFFCURVE",
"236 -166 CURVE SMOOTH",
"216 -166 OFFCURVE",
"195 -163 OFFCURVE",
"177 -158 CURVE",
"177 -232 LINE",
"192 -236 OFFCURVE",
"235 -240 OFFCURVE",
"259 -240 CURVE SMOOTH"
);
}
);
width = 555;
}
);
leftKerningGroup = S;
note = Scedilla;
rightKerningGroup = S;
unicode = 015E;
},
{
glyphname = Scircumflex;
lastChange = "2015-10-23 14:03:17 +0000";
layers = (
{
layerId = "47126D52-4795-4BAD-A976-8664E9644ACA";
name = Bold;
paths = (
{
closed = 1;
nodes = (
"440 -10 OFFCURVE",
"530 68 OFFCURVE",
"530 185 CURVE SMOOTH",
"530 285 OFFCURVE",
"496 352 OFFCURVE",
"338 395 CURVE SMOOTH",
"247 419 OFFCURVE",
"217 427 OFFCURVE",
"217 461 CURVE SMOOTH",
"217 500 OFFCURVE",
"264 504 OFFCURVE",
"323 504 CURVE SMOOTH",
"373 504 OFFCURVE",
"431 494 OFFCURVE",
"494 469 CURVE",
"494 625 LINE",
"447 640 OFFCURVE",
"364 654 OFFCURVE",
"293 654 CURVE SMOOTH",
"116 654 OFFCURVE",
"25 587 OFFCURVE",
"25 460 CURVE SMOOTH",
"25 355 OFFCURVE",
"69 307 OFFCURVE",
"199 265 CURVE SMOOTH",
"296 235 OFFCURVE",
"338 226 OFFCURVE",
"338 185 CURVE SMOOTH",
"338 145 OFFCURVE",
"303 138 OFFCURVE",
"237 138 CURVE SMOOTH",
"173 138 OFFCURVE",
"94 157 OFFCURVE",
"34 185 CURVE",
"34 30 LINE",
"88 4 OFFCURVE",
"169 -10 OFFCURVE",
"256 -10 CURVE SMOOTH"
);
},
{
closed = 1;
nodes = (
"192 688 LINE",
"264 796 LINE",
"340 688 LINE",
"476 688 LINE",
"321 888 LINE",
"207 888 LINE",
"52 688 LINE"
);
}
);
width = 555;
}
);
leftKerningGroup = S;
note = Scircumflex;
rightKerningGroup = S;
unicode = 015C;
},
{
glyphname = Scommaaccent;
lastChange = "2015-10-23 14:03:17 +0000";
layers = (
{
layerId = "47126D52-4795-4BAD-A976-8664E9644ACA";
name = Bold;
paths = (
{
closed = 1;
nodes = (
"440 -10 OFFCURVE",
"530 68 OFFCURVE",
"530 185 CURVE SMOOTH",
"530 285 OFFCURVE",
"496 352 OFFCURVE",
"338 395 CURVE SMOOTH",
"247 419 OFFCURVE",
"217 427 OFFCURVE",
"217 461 CURVE SMOOTH",
"217 500 OFFCURVE",
"264 504 OFFCURVE",
"323 504 CURVE SMOOTH",
"373 504 OFFCURVE",
"431 494 OFFCURVE",
"494 469 CURVE",
"494 625 LINE",
"447 640 OFFCURVE",
"364 654 OFFCURVE",
"293 654 CURVE SMOOTH",
"116 654 OFFCURVE",
"25 587 OFFCURVE",
"25 460 CURVE SMOOTH",
"25 355 OFFCURVE",
"69 307 OFFCURVE",
"199 265 CURVE SMOOTH",
"296 235 OFFCURVE",
"338 226 OFFCURVE",
"338 185 CURVE SMOOTH",
"338 145 OFFCURVE",
"303 138 OFFCURVE",
"237 138 CURVE SMOOTH",
"173 138 OFFCURVE",
"94 157 OFFCURVE",
"34 185 CURVE",
"34 30 LINE",
"88 4 OFFCURVE",
"169 -10 OFFCURVE",
"256 -10 CURVE SMOOTH"
);
},
{
closed = 1;
nodes = (
"313 -234 LINE",
"360 -42 LINE",
"211 -42 LINE",
"179 -234 LINE"
);
}
);
width = 555;
}
);
leftKerningGroup = S;
note = Scommaaccent;
rightKerningGroup = S;
unicode = 0218;
},
{
glyphname = Sdotaccent;
lastChange = "2015-10-23 14:03:17 +0000";
layers = (
{
layerId = "47126D52-4795-4BAD-A976-8664E9644ACA";
name = Bold;
paths = (
{
closed = 1;
nodes = (
"440 -10 OFFCURVE",
"530 68 OFFCURVE",
"530 185 CURVE SMOOTH",
"530 285 OFFCURVE",
"496 352 OFFCURVE",
"338 395 CURVE SMOOTH",
"247 419 OFFCURVE",
"217 427 OFFCURVE",
"217 461 CURVE SMOOTH",
"217 500 OFFCURVE",
"264 504 OFFCURVE",
"323 504 CURVE SMOOTH",
"373 504 OFFCURVE",
"431 494 OFFCURVE",
"494 469 CURVE",
"494 625 LINE",
"447 640 OFFCURVE",
"364 654 OFFCURVE",
"293 654 CURVE SMOOTH",
"116 654 OFFCURVE",
"25 587 OFFCURVE",
"25 460 CURVE SMOOTH",
"25 355 OFFCURVE",
"69 307 OFFCURVE",
"199 265 CURVE SMOOTH",
"296 235 OFFCURVE",
"338 226 OFFCURVE",
"338 185 CURVE SMOOTH",
"338 145 OFFCURVE",
"303 138 OFFCURVE",
"237 138 CURVE SMOOTH",
"173 138 OFFCURVE",
"94 157 OFFCURVE",
"34 185 CURVE",
"34 30 LINE",
"88 4 OFFCURVE",
"169 -10 OFFCURVE",
"256 -10 CURVE SMOOTH"
);
},
{
closed = 1;
nodes = (
"337 715 LINE",
"337 835 LINE",
"207 835 LINE",
"207 715 LINE"
);
}
);
width = 555;
}
);
leftKerningGroup = S;
note = Sdotaccent;
rightKerningGroup = S;
unicode = 1E60;
},
{
glyphname = Sdotbelow;
lastChange = "2015-10-23 14:03:17 +0000";
layers = (
{
layerId = "47126D52-4795-4BAD-A976-8664E9644ACA";
name = Bold;
paths = (
{
closed = 1;
nodes = (
"440 -10 OFFCURVE",
"530 68 OFFCURVE",
"530 185 CURVE SMOOTH",
"530 285 OFFCURVE",
"496 352 OFFCURVE",
"338 395 CURVE SMOOTH",
"247 419 OFFCURVE",
"217 427 OFFCURVE",
"217 461 CURVE SMOOTH",
"217 500 OFFCURVE",
"264 504 OFFCURVE",
"323 504 CURVE SMOOTH",
"373 504 OFFCURVE",
"431 494 OFFCURVE",
"494 469 CURVE",
"494 625 LINE",
"447 640 OFFCURVE",
"364 654 OFFCURVE",
"293 654 CURVE SMOOTH",
"116 654 OFFCURVE",
"25 587 OFFCURVE",
"25 460 CURVE SMOOTH",
"25 355 OFFCURVE",
"69 307 OFFCURVE",
"199 265 CURVE SMOOTH",
"296 235 OFFCURVE",
"338 226 OFFCURVE",
"338 185 CURVE SMOOTH",
"338 145 OFFCURVE",
"303 138 OFFCURVE",
"237 138 CURVE SMOOTH",
"173 138 OFFCURVE",
"94 157 OFFCURVE",
"34 185 CURVE",
"34 30 LINE",
"88 4 OFFCURVE",
"169 -10 OFFCURVE",
"256 -10 CURVE SMOOTH"
);
},
{
closed = 1;
nodes = (
"336 -176 LINE",
"336 -56 LINE",
"206 -56 LINE",
"206 -176 LINE"
);
}
);
width = 555;
}
);
leftKerningGroup = S;
note = Sdotbelow;
rightKerningGroup = S;
unicode = 1E62;
},
{
glyphname = Germandbls;
lastChange = "2015-10-23 14:03:17 +0000";
layers = (
{
layerId = "47126D52-4795-4BAD-A976-8664E9644ACA";
name = Bold;
paths = (
{
closed = 1;
nodes = (
"535 -10 OFFCURVE",
"615 59 OFFCURVE",
"615 175 CURVE SMOOTH",
"615 265 OFFCURVE",
"557 322 OFFCURVE",
"477 322 CURVE SMOOTH",
"459 322 LINE",
"593 421 LINE",
"593 549 OFFCURVE",
"511 654 OFFCURVE",
"319 654 CURVE SMOOTH",
"144 654 OFFCURVE",
"40 559 OFFCURVE",
"40 409 CURVE SMOOTH",
"40 0 LINE",
"217 0 LINE",
"217 401 LINE SMOOTH",
"217 459 OFFCURVE",
"247 493 OFFCURVE",
"319 493 CURVE SMOOTH",
"386 493 OFFCURVE",
"417 477 OFFCURVE",
"417 447 CURVE",
"281 346 LINE",
"281 235 LINE",
"353 235 LINE SMOOTH",
"400 235 OFFCURVE",
"423 220 OFFCURVE",
"423 185 CURVE SMOOTH",
"423 146 OFFCURVE",
"403 129 OFFCURVE",
"353 129 CURVE SMOOTH",
"325 129 OFFCURVE",
"290 135 OFFCURVE",
"266 145 CURVE",
"266 12 LINE",
"300 -2 OFFCURVE",
"350 -10 OFFCURVE",
"403 -10 CURVE SMOOTH"
);
}
);
width = 640;
}
);
note = uni1E9E;
unicode = 1E9E;
},
{
glyphname = Schwa;
lastChange = "2015-10-23 14:03:17 +0000";
layers = (
{
layerId = "47126D52-4795-4BAD-A976-8664E9644ACA";
name = Bold;
paths = (
{
closed = 1;
nodes = (
"563 -10 OFFCURVE",
"664 116 OFFCURVE",
"664 313 CURVE SMOOTH",
"664 525 OFFCURVE",
"534 654 OFFCURVE",
"313 654 CURVE SMOOTH",
"216 654 OFFCURVE",
"121 633 OFFCURVE",
"59 609 CURVE",
"59 481 LINE",
"107 502 OFFCURVE",
"209 522 OFFCURVE",
"273 522 CURVE SMOOTH",
"414 522 OFFCURVE",
"475 497 OFFCURVE",
"487 397 CURVE",
"25 397 LINE",
"25 277 LINE SMOOTH",
"25 98 OFFCURVE",
"136 -10 OFFCURVE",
"338 -10 CURVE SMOOTH"
);
},
{
closed = 1;
nodes = (
"240 114 OFFCURVE",
"192 162 OFFCURVE",
"192 234 CURVE SMOOTH",
"192 267 LINE",
"487 267 LINE",
"487 166 OFFCURVE",
"445 114 OFFCURVE",
"338 114 CURVE SMOOTH"
);
}
);
width = 689;
}
);
note = uni018F;
unicode = 018F;
},
{
glyphname = T;
lastChange = "2015-10-23 14:03:17 +0000";
layers = (
{
layerId = "47126D52-4795-4BAD-A976-8664E9644ACA";
name = Bold;
paths = (
{
closed = 1;
nodes = (
"374 0 LINE",
"374 504 LINE",
"555 504 LINE",
"555 644 LINE",
"5 644 LINE",
"5 504 LINE",
"186 504 LINE",
"186 0 LINE"
);
}
);
width = 560;
}
);
leftKerningGroup = T;
note = T;
rightKerningGroup = T;
unicode = 0054;
},
{
glyphname = Tbar;
lastChange = "2015-10-23 14:03:17 +0000";
layers = (
{
layerId = "47126D52-4795-4BAD-A976-8664E9644ACA";
name = Bold;
paths = (
{
closed = 1;
nodes = (
"374 0 LINE",
"374 504 LINE",
"555 504 LINE",
"555 644 LINE",
"5 644 LINE",
"5 504 LINE",
"186 504 LINE",
"186 0 LINE"
);
},
{
closed = 1;
nodes = (
"471 266 LINE",
"471 392 LINE",
"89 392 LINE",
"89 266 LINE"
);
}
);
width = 560;
}
);
leftKerningGroup = T;
note = Tbar;
rightKerningGroup = T;
unicode = 0166;
},
{
glyphname = Tcaron;
lastChange = "2015-10-23 14:03:17 +0000";
layers = (
{
layerId = "47126D52-4795-4BAD-A976-8664E9644ACA";
name = Bold;
paths = (
{
closed = 1;
nodes = (
"374 0 LINE",
"374 504 LINE",
"555 504 LINE",
"555 644 LINE",
"5 644 LINE",
"5 504 LINE",
"186 504 LINE",
"186 0 LINE"
);
},
{
closed = 1;
nodes = (
"338 689 LINE",
"493 889 LINE",
"357 889 LINE",
"281 780 LINE",
"209 889 LINE",
"69 889 LINE",
"224 689 LINE"
);
}
);
width = 560;
}
);
leftKerningGroup = T;
note = Tcaron;
rightKerningGroup = T;
unicode = 0164;
},
{
glyphname = Tcedilla;
lastChange = "2015-10-23 14:03:17 +0000";
layers = (
{
layerId = "47126D52-4795-4BAD-A976-8664E9644ACA";
name = Bold;
paths = (
{
closed = 1;
nodes = (
"374 0 LINE",
"374 504 LINE",
"555 504 LINE",
"555 644 LINE",
"5 644 LINE",
"5 504 LINE",
"186 504 LINE",
"186 0 LINE"
);
},
{
closed = 1;
nodes = (
"378 -240 OFFCURVE",
"430 -201 OFFCURVE",
"430 -135 CURVE SMOOTH",
"430 -80 OFFCURVE",
"397 -41 OFFCURVE",
"318 -41 CURVE",
"333 0 LINE",
"230 0 LINE",
"201 -101 LINE",
"264 -101 LINE SMOOTH",
"296 -101 OFFCURVE",
"318 -105 OFFCURVE",
"318 -132 CURVE SMOOTH",
"318 -158 OFFCURVE",
"297 -166 OFFCURVE",
"246 -166 CURVE SMOOTH",
"226 -166 OFFCURVE",
"205 -163 OFFCURVE",
"187 -158 CURVE",
"187 -232 LINE",
"202 -236 OFFCURVE",
"245 -240 OFFCURVE",
"269 -240 CURVE SMOOTH"
);
}
);
width = 560;
}
);
leftKerningGroup = T;
note = Tcedilla;
rightKerningGroup = T;
unicode = 0162;
},
{
glyphname = Tcommaaccent;
lastChange = "2015-10-23 14:03:17 +0000";
layers = (
{
layerId = "47126D52-4795-4BAD-A976-8664E9644ACA";
name = Bold;
paths = (
{
closed = 1;
nodes = (
"374 0 LINE",
"374 504 LINE",
"555 504 LINE",
"555 644 LINE",
"5 644 LINE",
"5 504 LINE",
"186 504 LINE",
"186 0 LINE"
);
},
{
closed = 1;
nodes = (
"305 -267 LINE",
"362 -42 LINE",
"209 -42 LINE",
"175 -267 LINE"
);
}
);
width = 560;
}
);
leftKerningGroup = T;
note = Tcommaaccent;
rightKerningGroup = T;
unicode = 021A;
},
{
glyphname = Tdotbelow;
lastChange = "2015-10-23 14:03:17 +0000";
layers = (
{
layerId = "47126D52-4795-4BAD-A976-8664E9644ACA";
name = Bold;
paths = (
{
closed = 1;
nodes = (
"374 0 LINE",
"374 504 LINE",
"555 504 LINE",
"555 644 LINE",
"5 644 LINE",
"5 504 LINE",
"186 504 LINE",
"186 0 LINE"
);
},
{
closed = 1;
nodes = (
"345 -176 LINE",
"345 -56 LINE",
"215 -56 LINE",
"215 -176 LINE"
);
}
);
width = 560;
}
);
leftKerningGroup = T;
note = Tdotbelow;
rightKerningGroup = T;
unicode = 1E6C;
},
{
glyphname = Tlinebelow;
lastChange = "2015-10-23 14:03:17 +0000";
layers = (
{
layerId = "47126D52-4795-4BAD-A976-8664E9644ACA";
name = Bold;
paths = (
{
closed = 1;
nodes = (
"374 0 LINE",
"374 504 LINE",
"555 504 LINE",
"555 644 LINE",
"5 644 LINE",
"5 504 LINE",
"186 504 LINE",
"186 0 LINE"
);
},
{
closed = 1;
nodes = (
"443 -176 LINE",
"443 -64 LINE",
"115 -64 LINE",
"115 -176 LINE"
);
}
);
width = 560;
}
);
leftKerningGroup = T;
note = Tlinebelow;
rightKerningGroup = T;
unicode = 1E6E;
},
{
glyphname = U;
lastChange = "2015-10-23 14:03:17 +0000";
layers = (
{
layerId = "47126D52-4795-4BAD-A976-8664E9644ACA";
name = Bold;
paths = (
{
closed = 1;
nodes = (
"524 -10 OFFCURVE",
"649 80 OFFCURVE",
"649 248 CURVE SMOOTH",
"649 644 LINE",
"461 644 LINE",
"461 268 LINE SMOOTH",
"461 188 OFFCURVE",
"420 150 OFFCURVE",
"345 150 CURVE SMOOTH",
"269 150 OFFCURVE",
"228 188 OFFCURVE",
"228 268 CURVE SMOOTH",
"228 644 LINE",
"40 644 LINE",
"40 248 LINE SMOOTH",
"40 80 OFFCURVE",
"165 -10 OFFCURVE",
"345 -10 CURVE SMOOTH"
);
}
);
width = 689;
}
);
leftKerningGroup = U;
note = U;
rightKerningGroup = U;
unicode = 0055;
},
{
glyphname = Uacute;
lastChange = "2015-10-23 14:03:17 +0000";
layers = (
{
layerId = "47126D52-4795-4BAD-A976-8664E9644ACA";
name = Bold;
paths = (
{
closed = 1;
nodes = (
"524 -10 OFFCURVE",
"649 80 OFFCURVE",
"649 248 CURVE SMOOTH",
"649 644 LINE",
"461 644 LINE",
"461 268 LINE SMOOTH",
"461 188 OFFCURVE",
"420 150 OFFCURVE",
"345 150 CURVE SMOOTH",
"269 150 OFFCURVE",
"228 188 OFFCURVE",
"228 268 CURVE SMOOTH",
"228 644 LINE",
"40 644 LINE",
"40 248 LINE SMOOTH",
"40 80 OFFCURVE",
"165 -10 OFFCURVE",
"345 -10 CURVE SMOOTH"
);
},
{
closed = 1;
nodes = (
"412 688 LINE",
"508 894 LINE",
"362 894 LINE",
"274 688 LINE"
);
}
);
width = 689;
}
);
leftKerningGroup = U;
note = Uacute;
rightKerningGroup = U;
unicode = 00DA;
},
{
glyphname = Ubreve;
lastChange = "2015-10-23 14:03:17 +0000";
layers = (
{
layerId = "47126D52-4795-4BAD-A976-8664E9644ACA";
name = Bold;
paths = (
{
closed = 1;
nodes = (
"524 -10 OFFCURVE",
"649 80 OFFCURVE",
"649 248 CURVE SMOOTH",
"649 644 LINE",
"461 644 LINE",
"461 268 LINE SMOOTH",
"461 188 OFFCURVE",
"420 150 OFFCURVE",
"345 150 CURVE SMOOTH",
"269 150 OFFCURVE",
"228 188 OFFCURVE",
"228 268 CURVE SMOOTH",
"228 644 LINE",
"40 644 LINE",
"40 248 LINE SMOOTH",
"40 80 OFFCURVE",
"165 -10 OFFCURVE",
"345 -10 CURVE SMOOTH"
);
},
{
closed = 1;
nodes = (
"458 688 OFFCURVE",
"534 754 OFFCURVE",
"534 875 CURVE",
"412 875 LINE",
"412 826 OFFCURVE",
"395 791 OFFCURVE",
"344 791 CURVE SMOOTH",
"293 791 OFFCURVE",
"277 826 OFFCURVE",
"277 875 CURVE",
"155 875 LINE",
"155 754 OFFCURVE",
"231 688 OFFCURVE",
"344 688 CURVE SMOOTH"
);
}
);
width = 689;
}
);
leftKerningGroup = U;
note = Ubreve;
rightKerningGroup = U;
unicode = 016C;
},
{
glyphname = Ucaron;
lastChange = "2015-10-23 14:03:17 +0000";
layers = (
{
layerId = "47126D52-4795-4BAD-A976-8664E9644ACA";
name = Bold;
paths = (
{
closed = 1;
nodes = (
"524 -10 OFFCURVE",
"649 80 OFFCURVE",
"649 248 CURVE SMOOTH",
"649 644 LINE",
"461 644 LINE",
"461 268 LINE SMOOTH",
"461 188 OFFCURVE",
"420 150 OFFCURVE",
"345 150 CURVE SMOOTH",
"269 150 OFFCURVE",
"228 188 OFFCURVE",
"228 268 CURVE SMOOTH",
"228 644 LINE",
"40 644 LINE",
"40 248 LINE SMOOTH",
"40 80 OFFCURVE",
"165 -10 OFFCURVE",
"345 -10 CURVE SMOOTH"
);
},
{
closed = 1;
nodes = (
"401 688 LINE",
"556 888 LINE",
"420 888 LINE",
"344 779 LINE",
"272 888 LINE",
"132 888 LINE",
"287 688 LINE"
);
}
);
width = 689;
}
);
leftKerningGroup = U;
note = Ucaron;
rightKerningGroup = U;
unicode = 01D3;
},
{
glyphname = Ucircumflex;
lastChange = "2015-10-23 14:03:17 +0000";
layers = (
{
layerId = "47126D52-4795-4BAD-A976-8664E9644ACA";
name = Bold;
paths = (
{
closed = 1;
nodes = (
"524 -10 OFFCURVE",
"649 80 OFFCURVE",
"649 248 CURVE SMOOTH",
"649 644 LINE",
"461 644 LINE",
"461 268 LINE SMOOTH",
"461 188 OFFCURVE",
"420 150 OFFCURVE",
"345 150 CURVE SMOOTH",
"269 150 OFFCURVE",
"228 188 OFFCURVE",
"228 268 CURVE SMOOTH",
"228 644 LINE",
"40 644 LINE",
"40 248 LINE SMOOTH",
"40 80 OFFCURVE",
"165 -10 OFFCURVE",
"345 -10 CURVE SMOOTH"
);
},
{
closed = 1;
nodes = (
"273 688 LINE",
"345 796 LINE",
"421 688 LINE",
"557 688 LINE",
"402 888 LINE",
"288 888 LINE",
"133 688 LINE"
);
}
);
width = 689;
}
);
leftKerningGroup = U;
note = Ucircumflex;
rightKerningGroup = U;
unicode = 00DB;
},
{
glyphname = Udieresis;
lastChange = "2015-10-23 14:03:17 +0000";
layers = (
{
layerId = "47126D52-4795-4BAD-A976-8664E9644ACA";
name = Bold;
paths = (
{
closed = 1;
nodes = (
"524 -10 OFFCURVE",
"649 80 OFFCURVE",
"649 248 CURVE SMOOTH",
"649 644 LINE",
"461 644 LINE",
"461 268 LINE SMOOTH",
"461 188 OFFCURVE",
"420 150 OFFCURVE",
"345 150 CURVE SMOOTH",
"269 150 OFFCURVE",
"228 188 OFFCURVE",
"228 268 CURVE SMOOTH",
"228 644 LINE",
"40 644 LINE",
"40 248 LINE SMOOTH",
"40 80 OFFCURVE",
"165 -10 OFFCURVE",
"345 -10 CURVE SMOOTH"
);
},
{
closed = 1;
nodes = (
"302 715 LINE",
"302 835 LINE",
"171 835 LINE",
"171 715 LINE"
);
},
{
closed = 1;
nodes = (
"518 715 LINE",
"518 835 LINE",
"387 835 LINE",
"387 715 LINE"
);
}
);
width = 689;
}
);
leftKerningGroup = U;
note = Udieresis;
rightKerningGroup = U;
unicode = 00DC;
},
{
glyphname = Udieresisacute;
lastChange = "2015-10-23 14:03:17 +0000";
layers = (
{
layerId = "47126D52-4795-4BAD-A976-8664E9644ACA";
name = Bold;
paths = (
{
closed = 1;
nodes = (
"524 -10 OFFCURVE",
"649 80 OFFCURVE",
"649 248 CURVE SMOOTH",
"649 644 LINE",
"461 644 LINE",
"461 268 LINE SMOOTH",
"461 188 OFFCURVE",
"420 150 OFFCURVE",
"345 150 CURVE SMOOTH",
"269 150 OFFCURVE",
"228 188 OFFCURVE",
"228 268 CURVE SMOOTH",
"228 644 LINE",
"40 644 LINE",
"40 248 LINE SMOOTH",
"40 80 OFFCURVE",
"165 -10 OFFCURVE",
"345 -10 CURVE SMOOTH"
);
},
{
closed = 1;
nodes = (
"300 692 LINE",
"300 805 LINE",
"173 805 LINE",
"173 692 LINE"
);
},
{
closed = 1;
nodes = (
"515 692 LINE",
"515 805 LINE",
"388 805 LINE",
"388 692 LINE"
);
},
{
closed = 1;
nodes = (
"404 831 LINE",
"474 968 LINE",
"334 968 LINE",
"277 831 LINE"
);
}
);
width = 689;
}
);
leftKerningGroup = U;
note = Udieresisacute;
rightKerningGroup = U;
unicode = 01D7;
},
{
glyphname = Udieresiscaron;
lastChange = "2015-10-23 14:03:17 +0000";
layers = (
{
layerId = "47126D52-4795-4BAD-A976-8664E9644ACA";
name = Bold;
paths = (
{
closed = 1;
nodes = (
"524 -10 OFFCURVE",
"649 80 OFFCURVE",
"649 248 CURVE SMOOTH",
"649 644 LINE",
"461 644 LINE",
"461 268 LINE SMOOTH",
"461 188 OFFCURVE",
"420 150 OFFCURVE",
"345 150 CURVE SMOOTH",
"269 150 OFFCURVE",
"228 188 OFFCURVE",
"228 268 CURVE SMOOTH",
"228 644 LINE",
"40 644 LINE",
"40 248 LINE SMOOTH",
"40 80 OFFCURVE",
"165 -10 OFFCURVE",
"345 -10 CURVE SMOOTH"
);
},
{
closed = 1;
nodes = (
"298 692 LINE",
"298 805 LINE",
"171 805 LINE",
"171 692 LINE"
);
},
{
closed = 1;
nodes = (
"513 692 LINE",
"513 805 LINE",
"386 805 LINE",
"386 692 LINE"
);
},
{
closed = 1;
nodes = (
"409 829 LINE",
"535 962 LINE",
"400 962 LINE",
"345 889 LINE",
"292 962 LINE",
"154 962 LINE",
"280 829 LINE"
);
}
);
width = 689;
}
);
leftKerningGroup = U;
note = Udieresiscaron;
rightKerningGroup = U;
unicode = 01D9;
},
{
glyphname = Udieresisgrave;
lastChange = "2015-10-23 14:03:17 +0000";
layers = (
{
layerId = "47126D52-4795-4BAD-A976-8664E9644ACA";
name = Bold;
paths = (
{
closed = 1;
nodes = (
"524 -10 OFFCURVE",
"649 80 OFFCURVE",
"649 248 CURVE SMOOTH",
"649 644 LINE",
"461 644 LINE",
"461 268 LINE SMOOTH",
"461 188 OFFCURVE",
"420 150 OFFCURVE",
"345 150 CURVE SMOOTH",
"269 150 OFFCURVE",
"228 188 OFFCURVE",
"228 268 CURVE SMOOTH",
"228 644 LINE",
"40 644 LINE",
"40 248 LINE SMOOTH",
"40 80 OFFCURVE",
"165 -10 OFFCURVE",
"345 -10 CURVE SMOOTH"
);
},
{
closed = 1;
nodes = (
"301 710 LINE",
"301 823 LINE",
"174 823 LINE",
"174 710 LINE"
);
},
{
closed = 1;
nodes = (
"516 710 LINE",
"516 823 LINE",
"389 823 LINE",
"389 710 LINE"
);
},
{
closed = 1;
nodes = (
"412 849 LINE",
"355 986 LINE",
"215 986 LINE",
"285 849 LINE"
);
}
);
width = 689;
}
);
leftKerningGroup = U;
note = Udieresisgrave;
rightKerningGroup = U;
unicode = 01DB;
},
{
glyphname = Udieresismacron;
lastChange = "2015-10-23 14:03:17 +0000";
layers = (
{
layerId = "47126D52-4795-4BAD-A976-8664E9644ACA";
name = Bold;
paths = (
{
closed = 1;
nodes = (
"524 -10 OFFCURVE",
"649 80 OFFCURVE",
"649 248 CURVE SMOOTH",
"649 644 LINE",
"461 644 LINE",
"461 268 LINE SMOOTH",
"461 188 OFFCURVE",
"420 150 OFFCURVE",
"345 150 CURVE SMOOTH",
"269 150 OFFCURVE",
"228 188 OFFCURVE",
"228 268 CURVE SMOOTH",
"228 644 LINE",
"40 644 LINE",
"40 248 LINE SMOOTH",
"40 80 OFFCURVE",
"165 -10 OFFCURVE",
"345 -10 CURVE SMOOTH"
);
},
{
closed = 1;
nodes = (
"302 699 LINE",
"302 819 LINE",
"171 819 LINE",
"171 699 LINE"
);
},
{
closed = 1;
nodes = (
"518 699 LINE",
"518 819 LINE",
"387 819 LINE",
"387 699 LINE"
);
},
{
closed = 1;
nodes = (
"508 873 LINE",
"508 985 LINE",
"180 985 LINE",
"180 873 LINE"
);
}
);
width = 689;
}
);
leftKerningGroup = U;
note = Udieresismacron;
rightKerningGroup = U;
unicode = 01D5;
},
{
glyphname = Udotbelow;
lastChange = "2015-10-23 14:03:17 +0000";
layers = (
{
layerId = "47126D52-4795-4BAD-A976-8664E9644ACA";
name = Bold;
paths = (
{
closed = 1;
nodes = (
"524 -10 OFFCURVE",
"649 80 OFFCURVE",
"649 248 CURVE SMOOTH",
"649 644 LINE",
"461 644 LINE",
"461 268 LINE SMOOTH",
"461 188 OFFCURVE",
"420 150 OFFCURVE",
"345 150 CURVE SMOOTH",
"269 150 OFFCURVE",
"228 188 OFFCURVE",
"228 268 CURVE SMOOTH",
"228 644 LINE",
"40 644 LINE",
"40 248 LINE SMOOTH",
"40 80 OFFCURVE",
"165 -10 OFFCURVE",
"345 -10 CURVE SMOOTH"
);
},
{
closed = 1;
nodes = (
"409 -176 LINE",
"409 -56 LINE",
"279 -56 LINE",
"279 -176 LINE"
);
}
);
width = 689;
}
);
leftKerningGroup = U;
note = Udotbelow;
rightKerningGroup = U;
unicode = 1EE4;
},
{
glyphname = Ugrave;
lastChange = "2015-10-23 14:03:17 +0000";
layers = (
{
layerId = "47126D52-4795-4BAD-A976-8664E9644ACA";
name = Bold;
paths = (
{
closed = 1;
nodes = (
"524 -10 OFFCURVE",
"649 80 OFFCURVE",
"649 248 CURVE SMOOTH",
"649 644 LINE",
"461 644 LINE",
"461 268 LINE SMOOTH",
"461 188 OFFCURVE",
"420 150 OFFCURVE",
"345 150 CURVE SMOOTH",
"269 150 OFFCURVE",
"228 188 OFFCURVE",
"228 268 CURVE SMOOTH",
"228 644 LINE",
"40 644 LINE",
"40 248 LINE SMOOTH",
"40 80 OFFCURVE",
"165 -10 OFFCURVE",
"345 -10 CURVE SMOOTH"
);
},
{
closed = 1;
nodes = (
"420 688 LINE",
"332 894 LINE",
"185 894 LINE",
"282 688 LINE"
);
}
);
width = 689;
}
);
leftKerningGroup = U;
note = Ugrave;
rightKerningGroup = U;
unicode = 00D9;
},
{
glyphname = Uhookabove;
lastChange = "2015-10-23 14:03:17 +0000";
layers = (
{
layerId = "47126D52-4795-4BAD-A976-8664E9644ACA";
name = Bold;
paths = (
{
closed = 1;
nodes = (
"524 -10 OFFCURVE",
"649 80 OFFCURVE",
"649 248 CURVE SMOOTH",
"649 644 LINE",
"461 644 LINE",
"461 268 LINE SMOOTH",
"461 188 OFFCURVE",
"420 150 OFFCURVE",
"345 150 CURVE SMOOTH",
"269 150 OFFCURVE",
"228 188 OFFCURVE",
"228 268 CURVE SMOOTH",
"228 644 LINE",
"40 644 LINE",
"40 248 LINE SMOOTH",
"40 80 OFFCURVE",
"165 -10 OFFCURVE",
"345 -10 CURVE SMOOTH"
);
},
{
closed = 1;
nodes = (
"413 688 LINE",
"413 729 LINE",
"468 745 OFFCURVE",
"497 771 OFFCURVE",
"497 829 CURVE SMOOTH",
"497 888 OFFCURVE",
"447 930 OFFCURVE",
"356 930 CURVE SMOOTH",
"308 930 OFFCURVE",
"269 925 OFFCURVE",
"241 916 CURVE",
"241 838 LINE",
"257 842 OFFCURVE",
"281 846 OFFCURVE",
"300 846 CURVE SMOOTH",
"339 846 OFFCURVE",
"360 836 OFFCURVE",
"360 813 CURVE SMOOTH",
"360 788 OFFCURVE",
"341 773 OFFCURVE",
"272 769 CURVE",
"272 688 LINE"
);
}
);
width = 689;
}
);
leftKerningGroup = U;
note = Uhookabove;
rightKerningGroup = U;
unicode = 1EE6;
},
{
glyphname = Uhorn;
lastChange = "2015-11-25 11:14:19 +0000";
layers = (
{
layerId = "47126D52-4795-4BAD-A976-8664E9644ACA";
name = Bold;
paths = (
{
closed = 1;
nodes = (
"524 -10 OFFCURVE",
"649 80 OFFCURVE",
"649 248 CURVE SMOOTH",
"649 468 LINE",
"806 471 OFFCURVE",
"866 525 OFFCURVE",
"866 688 CURVE",
"733 688 LINE",
"733 617 OFFCURVE",
"710 593 OFFCURVE",
"649 590 CURVE",
"649 644 LINE",
"461 644 LINE",
"461 268 LINE SMOOTH",
"461 188 OFFCURVE",
"420 150 OFFCURVE",
"345 150 CURVE SMOOTH",
"269 150 OFFCURVE",
"228 188 OFFCURVE",
"228 268 CURVE SMOOTH",
"228 644 LINE",
"40 644 LINE",
"40 248 LINE SMOOTH",
"40 80 OFFCURVE",
"165 -10 OFFCURVE",
"345 -10 CURVE SMOOTH"
);
}
);
width = 861;
}
);
note = Uhorn;
unicode = 01AF;
},
{
glyphname = Uhornacute;
lastChange = "2015-10-23 14:03:17 +0000";
layers = (
{
layerId = "47126D52-4795-4BAD-A976-8664E9644ACA";
name = Bold;
paths = (
{
closed = 1;
nodes = (
"524 -10 OFFCURVE",
"649 80 OFFCURVE",
"649 248 CURVE SMOOTH",
"649 468 LINE",
"806 471 OFFCURVE",
"866 525 OFFCURVE",
"866 688 CURVE",
"733 688 LINE",
"733 617 OFFCURVE",
"710 593 OFFCURVE",
"649 590 CURVE",
"649 644 LINE",
"461 644 LINE",
"461 268 LINE SMOOTH",
"461 188 OFFCURVE",
"420 150 OFFCURVE",
"345 150 CURVE SMOOTH",
"269 150 OFFCURVE",
"228 188 OFFCURVE",
"228 268 CURVE SMOOTH",
"228 644 LINE",
"40 644 LINE",
"40 248 LINE SMOOTH",
"40 80 OFFCURVE",
"165 -10 OFFCURVE",
"345 -10 CURVE SMOOTH"
);
},
{
closed = 1;
nodes = (
"404 688 LINE",
"500 894 LINE",
"354 894 LINE",
"266 688 LINE"
);
}
);
width = 861;
}
);
leftKerningGroup = U;
note = Uhornacute;
rightKerningGroup = U;
unicode = 1EE8;
},
{
glyphname = Uhorndotbelow;
lastChange = "2015-11-25 11:14:19 +0000";
layers = (
{
layerId = "47126D52-4795-4BAD-A976-8664E9644ACA";
name = Bold;
paths = (
{
closed = 1;
nodes = (
"524 -10 OFFCURVE",
"649 80 OFFCURVE",
"649 248 CURVE SMOOTH",
"649 468 LINE",
"806 471 OFFCURVE",
"866 525 OFFCURVE",
"866 688 CURVE",
"733 688 LINE",
"733 617 OFFCURVE",
"710 593 OFFCURVE",
"649 590 CURVE",
"649 644 LINE",
"461 644 LINE",
"461 268 LINE SMOOTH",
"461 188 OFFCURVE",
"420 150 OFFCURVE",
"345 150 CURVE SMOOTH",
"269 150 OFFCURVE",
"228 188 OFFCURVE",
"228 268 CURVE SMOOTH",
"228 644 LINE",
"40 644 LINE",
"40 248 LINE SMOOTH",
"40 80 OFFCURVE",
"165 -10 OFFCURVE",
"345 -10 CURVE SMOOTH"
);
},
{
closed = 1;
nodes = (
"414 -176 LINE",
"414 -56 LINE",
"284 -56 LINE",
"284 -176 LINE"
);
}
);
width = 861;
}
);
leftKerningGroup = U;
note = Uhorndotbelow;
rightKerningGroup = U;
unicode = 1EF0;
},
{
glyphname = Uhorngrave;
lastChange = "2015-10-23 14:03:17 +0000";
layers = (
{
layerId = "47126D52-4795-4BAD-A976-8664E9644ACA";
name = Bold;
paths = (
{
closed = 1;
nodes = (
"524 -10 OFFCURVE",
"649 80 OFFCURVE",
"649 248 CURVE SMOOTH",
"649 468 LINE",
"806 471 OFFCURVE",
"866 525 OFFCURVE",
"866 688 CURVE",
"733 688 LINE",
"733 617 OFFCURVE",
"710 593 OFFCURVE",
"649 590 CURVE",
"649 644 LINE",
"461 644 LINE",
"461 268 LINE SMOOTH",
"461 188 OFFCURVE",
"420 150 OFFCURVE",
"345 150 CURVE SMOOTH",
"269 150 OFFCURVE",
"228 188 OFFCURVE",
"228 268 CURVE SMOOTH",
"228 644 LINE",
"40 644 LINE",
"40 248 LINE SMOOTH",
"40 80 OFFCURVE",
"165 -10 OFFCURVE",
"345 -10 CURVE SMOOTH"
);
},
{
closed = 1;
nodes = (
"419 688 LINE",
"331 894 LINE",
"184 894 LINE",
"281 688 LINE"
);
}
);
width = 861;
}
);
leftKerningGroup = U;
note = Uhorngrave;
rightKerningGroup = U;
unicode = 1EEA;
},
{
glyphname = Uhornhookabove;
lastChange = "2015-10-23 14:03:17 +0000";
layers = (
{
layerId = "47126D52-4795-4BAD-A976-8664E9644ACA";
name = Bold;
paths = (
{
closed = 1;
nodes = (
"524 -10 OFFCURVE",
"649 80 OFFCURVE",
"649 248 CURVE SMOOTH",
"649 468 LINE",
"806 471 OFFCURVE",
"866 525 OFFCURVE",
"866 688 CURVE",
"733 688 LINE",
"733 617 OFFCURVE",
"710 593 OFFCURVE",
"649 590 CURVE",
"649 644 LINE",
"461 644 LINE",
"461 268 LINE SMOOTH",
"461 188 OFFCURVE",
"420 150 OFFCURVE",
"345 150 CURVE SMOOTH",
"269 150 OFFCURVE",
"228 188 OFFCURVE",
"228 268 CURVE SMOOTH",
"228 644 LINE",
"40 644 LINE",
"40 248 LINE SMOOTH",
"40 80 OFFCURVE",
"165 -10 OFFCURVE",
"345 -10 CURVE SMOOTH"
);
},
{
closed = 1;
nodes = (
"384 687 LINE",
"384 728 LINE",
"439 744 OFFCURVE",
"468 770 OFFCURVE",
"468 828 CURVE SMOOTH",
"468 887 OFFCURVE",
"418 929 OFFCURVE",
"327 929 CURVE SMOOTH",
"279 929 OFFCURVE",
"240 924 OFFCURVE",
"212 915 CURVE",
"212 837 LINE",
"228 841 OFFCURVE",
"252 845 OFFCURVE",
"271 845 CURVE SMOOTH",
"310 845 OFFCURVE",
"331 835 OFFCURVE",
"331 812 CURVE SMOOTH",
"331 787 OFFCURVE",
"312 772 OFFCURVE",
"243 768 CURVE",
"243 687 LINE"
);
}
);
width = 861;
}
);
leftKerningGroup = U;
note = Uhornhookabove;
rightKerningGroup = U;
unicode = 1EEC;
},
{
glyphname = Uhorntilde;
lastChange = "2015-11-25 11:14:19 +0000";
layers = (
{
layerId = "47126D52-4795-4BAD-A976-8664E9644ACA";
name = Bold;
paths = (
{
closed = 1;
nodes = (
"524 -10 OFFCURVE",
"649 80 OFFCURVE",
"649 248 CURVE SMOOTH",
"649 468 LINE",
"806 471 OFFCURVE",
"866 525 OFFCURVE",
"866 688 CURVE",
"733 688 LINE",
"733 617 OFFCURVE",
"710 593 OFFCURVE",
"649 590 CURVE",
"649 644 LINE",
"461 644 LINE",
"461 268 LINE SMOOTH",
"461 188 OFFCURVE",
"420 150 OFFCURVE",
"345 150 CURVE SMOOTH",
"269 150 OFFCURVE",
"228 188 OFFCURVE",
"228 268 CURVE SMOOTH",
"228 644 LINE",
"40 644 LINE",
"40 248 LINE SMOOTH",
"40 80 OFFCURVE",
"165 -10 OFFCURVE",
"345 -10 CURVE SMOOTH"
);
},
{
closed = 1;
nodes = (
"484 692 OFFCURVE",
"519 707 OFFCURVE",
"532 725 CURVE",
"532 844 LINE",
"516 821 OFFCURVE",
"484 804 OFFCURVE",
"442 804 CURVE SMOOTH",
"379 804 OFFCURVE",
"328 846 OFFCURVE",
"261 846 CURVE SMOOTH",
"222 846 OFFCURVE",
"185 831 OFFCURVE",
"166 813 CURVE",
"166 695 LINE",
"190 719 OFFCURVE",
"222 734 OFFCURVE",
"264 734 CURVE SMOOTH",
"319 734 OFFCURVE",
"379 692 OFFCURVE",
"445 692 CURVE SMOOTH"
);
}
);
width = 861;
}
);
leftKerningGroup = U;
note = Uhorntilde;
rightKerningGroup = U;
unicode = 1EEE;
},
{
glyphname = Uhungarumlaut;
lastChange = "2015-10-23 14:03:17 +0000";
layers = (
{
layerId = "47126D52-4795-4BAD-A976-8664E9644ACA";
name = Bold;
paths = (
{
closed = 1;
nodes = (
"524 -10 OFFCURVE",
"649 80 OFFCURVE",
"649 248 CURVE SMOOTH",
"649 644 LINE",
"461 644 LINE",
"461 268 LINE SMOOTH",
"461 188 OFFCURVE",
"420 150 OFFCURVE",
"345 150 CURVE SMOOTH",
"269 150 OFFCURVE",
"228 188 OFFCURVE",
"228 268 CURVE SMOOTH",
"228 644 LINE",
"40 644 LINE",
"40 248 LINE SMOOTH",
"40 80 OFFCURVE",
"165 -10 OFFCURVE",
"345 -10 CURVE SMOOTH"
);
},
{
closed = 1;
nodes = (
"276 688 LINE",
"378 872 LINE",
"220 872 LINE",
"134 688 LINE"
);
},
{
closed = 1;
nodes = (
"510 688 LINE",
"612 872 LINE",
"454 872 LINE",
"368 688 LINE"
);
}
);
width = 689;
}
);
leftKerningGroup = U;
note = Uhungarumlaut;
rightKerningGroup = U;
unicode = 0170;
},
{
glyphname = Umacron;
lastChange = "2015-10-23 14:03:17 +0000";
layers = (
{
layerId = "47126D52-4795-4BAD-A976-8664E9644ACA";
name = Bold;
paths = (
{
closed = 1;
nodes = (
"524 -10 OFFCURVE",
"649 80 OFFCURVE",
"649 248 CURVE SMOOTH",
"649 644 LINE",
"461 644 LINE",
"461 268 LINE SMOOTH",
"461 188 OFFCURVE",
"420 150 OFFCURVE",
"345 150 CURVE SMOOTH",
"269 150 OFFCURVE",
"228 188 OFFCURVE",
"228 268 CURVE SMOOTH",
"228 644 LINE",
"40 644 LINE",
"40 248 LINE SMOOTH",
"40 80 OFFCURVE",
"165 -10 OFFCURVE",
"345 -10 CURVE SMOOTH"
);
},
{
closed = 1;
nodes = (
"508 724 LINE",
"508 836 LINE",
"180 836 LINE",
"180 724 LINE"
);
}
);
width = 689;
}
);
leftKerningGroup = U;
note = Umacron;
rightKerningGroup = U;
unicode = 016A;
},
{
glyphname = Uogonek;
lastChange = "2015-10-23 14:03:17 +0000";
layers = (
{
layerId = "47126D52-4795-4BAD-A976-8664E9644ACA";
name = Bold;
paths = (
{
closed = 1;
nodes = (
"524 -10 OFFCURVE",
"649 80 OFFCURVE",
"649 248 CURVE SMOOTH",
"649 644 LINE",
"461 644 LINE",
"461 268 LINE SMOOTH",
"461 188 OFFCURVE",
"420 150 OFFCURVE",
"345 150 CURVE SMOOTH",
"269 150 OFFCURVE",
"228 188 OFFCURVE",
"228 268 CURVE SMOOTH",
"228 644 LINE",
"40 644 LINE",
"40 248 LINE SMOOTH",
"40 80 OFFCURVE",
"165 -10 OFFCURVE",
"345 -10 CURVE SMOOTH"
);
},
{
closed = 1;
nodes = (
"400 -220 OFFCURVE",
"441 -212 OFFCURVE",
"461 -204 CURVE",
"461 -118 LINE",
"449 -125 OFFCURVE",
"428 -129 OFFCURVE",
"411 -129 CURVE SMOOTH",
"383 -129 OFFCURVE",
"368 -115 OFFCURVE",
"368 -89 CURVE SMOOTH",
"368 -55 OFFCURVE",
"392 -26 OFFCURVE",
"426 0 CURVE",
"301 0 LINE",
"257 -28 OFFCURVE",
"227 -72 OFFCURVE",
"227 -123 CURVE SMOOTH",
"227 -190 OFFCURVE",
"283 -220 OFFCURVE",
"359 -220 CURVE SMOOTH"
);
}
);
width = 689;
}
);
leftKerningGroup = U;
note = Uogonek;
rightKerningGroup = U;
unicode = 0172;
},
{
glyphname = Uring;
lastChange = "2015-10-23 14:03:17 +0000";
layers = (
{
layerId = "47126D52-4795-4BAD-A976-8664E9644ACA";
name = Bold;
paths = (
{
closed = 1;
nodes = (
"524 -10 OFFCURVE",
"649 80 OFFCURVE",
"649 248 CURVE SMOOTH",
"649 644 LINE",
"461 644 LINE",
"461 268 LINE SMOOTH",
"461 188 OFFCURVE",
"420 150 OFFCURVE",
"345 150 CURVE SMOOTH",
"269 150 OFFCURVE",
"228 188 OFFCURVE",
"228 268 CURVE SMOOTH",
"228 644 LINE",
"40 644 LINE",
"40 248 LINE SMOOTH",
"40 80 OFFCURVE",
"165 -10 OFFCURVE",
"345 -10 CURVE SMOOTH"
);
},
{
closed = 1;
nodes = (
"433 688 OFFCURVE",
"483 745 OFFCURVE",
"483 819 CURVE SMOOTH",
"483 893 OFFCURVE",
"433 951 OFFCURVE",
"344 951 CURVE SMOOTH",
"256 951 OFFCURVE",
"205 893 OFFCURVE",
"205 819 CURVE SMOOTH",
"205 745 OFFCURVE",
"256 688 OFFCURVE",
"344 688 CURVE SMOOTH"
);
},
{
closed = 1;
nodes = (
"308 765 OFFCURVE",
"288 789 OFFCURVE",
"288 819 CURVE SMOOTH",
"288 848 OFFCURVE",
"308 873 OFFCURVE",
"344 873 CURVE SMOOTH",
"381 873 OFFCURVE",
"400 848 OFFCURVE",
"400 819 CURVE SMOOTH",
"400 789 OFFCURVE",
"381 765 OFFCURVE",
"344 765 CURVE SMOOTH"
);
}
);
width = 689;
}
);
leftKerningGroup = U;
note = Uring;
rightKerningGroup = U;
unicode = 016E;
},
{
glyphname = Utilde;
lastChange = "2015-10-23 14:03:17 +0000";
layers = (
{
layerId = "47126D52-4795-4BAD-A976-8664E9644ACA";
name = Bold;
paths = (
{
closed = 1;
nodes = (
"524 -10 OFFCURVE",
"649 80 OFFCURVE",
"649 248 CURVE SMOOTH",
"649 644 LINE",
"461 644 LINE",
"461 268 LINE SMOOTH",
"461 188 OFFCURVE",
"420 150 OFFCURVE",
"345 150 CURVE SMOOTH",
"269 150 OFFCURVE",
"228 188 OFFCURVE",
"228 268 CURVE SMOOTH",
"228 644 LINE",
"40 644 LINE",
"40 248 LINE SMOOTH",
"40 80 OFFCURVE",
"165 -10 OFFCURVE",
"345 -10 CURVE SMOOTH"
);
},
{
closed = 1;
nodes = (
"479 696 OFFCURVE",
"514 711 OFFCURVE",
"527 729 CURVE",
"527 848 LINE",
"511 825 OFFCURVE",
"479 808 OFFCURVE",
"437 808 CURVE SMOOTH",
"374 808 OFFCURVE",
"323 850 OFFCURVE",
"256 850 CURVE SMOOTH",
"217 850 OFFCURVE",
"180 835 OFFCURVE",
"161 817 CURVE",
"161 699 LINE",
"185 723 OFFCURVE",
"217 738 OFFCURVE",
"259 738 CURVE SMOOTH",
"314 738 OFFCURVE",
"374 696 OFFCURVE",
"440 696 CURVE SMOOTH"
);
}
);
width = 689;
}
);
leftKerningGroup = U;
note = Utilde;
rightKerningGroup = U;
unicode = 0168;
},
{
glyphname = V;
lastChange = "2015-10-23 14:03:17 +0000";
layers = (
{
layerId = "47126D52-4795-4BAD-A976-8664E9644ACA";
name = Bold;
paths = (
{
closed = 1;
nodes = (
"471 0 LINE",
"718 644 LINE",
"521 644 LINE",
"371 218 LINE",
"221 644 LINE",
"25 644 LINE",
"272 0 LINE"
);
}
);
width = 743;
}
);
note = V;
unicode = 0056;
},
{
glyphname = W;
lastChange = "2015-10-23 14:03:17 +0000";
layers = (
{
layerId = "47126D52-4795-4BAD-A976-8664E9644ACA";
name = Bold;
paths = (
{
closed = 1;
nodes = (
"345 0 LINE",
"450 333 LINE",
"547 0 LINE",
"717 0 LINE",
"866 644 LINE",
"682 644 LINE",
"605 302 LINE",
"507 644 LINE",
"353 644 LINE",
"353 547 LINE",
"282 303 LINE",
"209 644 LINE",
"25 644 LINE",
"175 0 LINE"
);
}
);
width = 891;
}
);
leftKerningGroup = W;
note = W;
rightKerningGroup = W;
unicode = 0057;
},
{
glyphname = Wacute;
lastChange = "2015-10-23 14:03:17 +0000";
layers = (
{
layerId = "47126D52-4795-4BAD-A976-8664E9644ACA";
name = Bold;
paths = (
{
closed = 1;
nodes = (
"345 0 LINE",
"450 333 LINE",
"547 0 LINE",
"717 0 LINE",
"866 644 LINE",
"682 644 LINE",
"605 302 LINE",
"507 644 LINE",
"353 644 LINE",
"353 547 LINE",
"282 303 LINE",
"209 644 LINE",
"25 644 LINE",
"175 0 LINE"
);
},
{
closed = 1;
nodes = (
"494 688 LINE",
"590 894 LINE",
"444 894 LINE",
"356 688 LINE"
);
}
);
width = 891;
}
);
leftKerningGroup = W;
note = Wacute;
rightKerningGroup = W;
unicode = 1E82;
},
{
glyphname = Wcircumflex;
lastChange = "2015-10-23 14:03:17 +0000";
layers = (
{
layerId = "47126D52-4795-4BAD-A976-8664E9644ACA";
name = Bold;
paths = (
{
closed = 1;
nodes = (
"345 0 LINE",
"450 333 LINE",
"547 0 LINE",
"717 0 LINE",
"866 644 LINE",
"682 644 LINE",
"605 302 LINE",
"507 644 LINE",
"353 644 LINE",
"353 547 LINE",
"282 303 LINE",
"209 644 LINE",
"25 644 LINE",
"175 0 LINE"
);
},
{
closed = 1;
nodes = (
"377 688 LINE",
"449 796 LINE",
"525 688 LINE",
"661 688 LINE",
"506 888 LINE",
"392 888 LINE",
"237 688 LINE"
);
}
);
width = 891;
}
);
leftKerningGroup = W;
note = Wcircumflex;
rightKerningGroup = W;
unicode = 0174;
},
{
glyphname = Wdieresis;
lastChange = "2015-10-23 14:03:17 +0000";
layers = (
{
layerId = "47126D52-4795-4BAD-A976-8664E9644ACA";
name = Bold;
paths = (
{
closed = 1;
nodes = (
"345 0 LINE",
"450 333 LINE",
"547 0 LINE",
"717 0 LINE",
"866 644 LINE",
"682 644 LINE",
"605 302 LINE",
"507 644 LINE",
"353 644 LINE",
"353 547 LINE",
"282 303 LINE",
"209 644 LINE",
"25 644 LINE",
"175 0 LINE"
);
},
{
closed = 1;
nodes = (
"408 715 LINE",
"408 835 LINE",
"277 835 LINE",
"277 715 LINE"
);
},
{
closed = 1;
nodes = (
"624 715 LINE",
"624 835 LINE",
"493 835 LINE",
"493 715 LINE"
);
}
);
width = 891;
}
);
leftKerningGroup = W;
note = Wdieresis;
rightKerningGroup = W;
unicode = 1E84;
},
{
glyphname = Wgrave;
lastChange = "2015-10-23 14:03:17 +0000";
layers = (
{
layerId = "47126D52-4795-4BAD-A976-8664E9644ACA";
name = Bold;
paths = (
{
closed = 1;
nodes = (
"345 0 LINE",
"450 333 LINE",
"547 0 LINE",
"717 0 LINE",
"866 644 LINE",
"682 644 LINE",
"605 302 LINE",
"507 644 LINE",
"353 644 LINE",
"353 547 LINE",
"282 303 LINE",
"209 644 LINE",
"25 644 LINE",
"175 0 LINE"
);
},
{
closed = 1;
nodes = (
"501 688 LINE",
"413 894 LINE",
"266 894 LINE",
"363 688 LINE"
);
}
);
width = 891;
}
);
leftKerningGroup = W;
note = Wgrave;
rightKerningGroup = W;
unicode = 1E80;
},
{
glyphname = X;
lastChange = "2015-10-23 14:03:17 +0000";
layers = (
{
layerId = "47126D52-4795-4BAD-A976-8664E9644ACA";
name = Bold;
paths = (
{
closed = 1;
nodes = (
"252 0 LINE",
"376 175 LINE",
"501 0 LINE",
"728 0 LINE",
"490 326 LINE",
"719 644 LINE",
"495 644 LINE",
"376 475 LINE",
"258 644 LINE",
"34 644 LINE",
"263 326 LINE",
"25 0 LINE"
);
}
);
width = 753;
}
);
note = X;
unicode = 0058;
},
{
glyphname = Y;
lastChange = "2015-10-23 14:03:17 +0000";
layers = (
{
layerId = "47126D52-4795-4BAD-A976-8664E9644ACA";
name = Bold;
paths = (
{
closed = 1;
nodes = (
"445 0 LINE",
"445 236 LINE",
"677 644 LINE",
"481 644 LINE",
"351 401 LINE",
"221 644 LINE",
"25 644 LINE",
"257 236 LINE",
"257 0 LINE"
);
}
);
width = 702;
}
);
leftKerningGroup = Y;
note = Y;
rightKerningGroup = Y;
unicode = 0059;
},
{
glyphname = Yacute;
lastChange = "2015-10-23 14:03:17 +0000";
layers = (
{
layerId = "47126D52-4795-4BAD-A976-8664E9644ACA";
name = Bold;
paths = (
{
closed = 1;
nodes = (
"445 0 LINE",
"445 236 LINE",
"677 644 LINE",
"481 644 LINE",
"351 401 LINE",
"221 644 LINE",
"25 644 LINE",
"257 236 LINE",
"257 0 LINE"
);
},
{
closed = 1;
nodes = (
"416 688 LINE",
"512 894 LINE",
"366 894 LINE",
"278 688 LINE"
);
}
);
width = 702;
}
);
leftKerningGroup = Y;
note = Yacute;
rightKerningGroup = Y;
unicode = 00DD;
},
{
glyphname = Ycircumflex;
lastChange = "2015-10-23 14:03:17 +0000";
layers = (
{
layerId = "47126D52-4795-4BAD-A976-8664E9644ACA";
name = Bold;
paths = (
{
closed = 1;
nodes = (
"445 0 LINE",
"445 236 LINE",
"677 644 LINE",
"481 644 LINE",
"351 401 LINE",
"221 644 LINE",
"25 644 LINE",
"257 236 LINE",
"257 0 LINE"
);
},
{
closed = 1;
nodes = (
"279 688 LINE",
"351 796 LINE",
"427 688 LINE",
"563 688 LINE",
"408 888 LINE",
"294 888 LINE",
"139 688 LINE"
);
}
);
width = 702;
}
);
leftKerningGroup = Y;
note = Ycircumflex;
rightKerningGroup = Y;
unicode = 0176;
},
{
glyphname = Ydieresis;
lastChange = "2015-10-23 14:03:17 +0000";
layers = (
{
layerId = "47126D52-4795-4BAD-A976-8664E9644ACA";
name = Bold;
paths = (
{
closed = 1;
nodes = (
"445 0 LINE",
"445 236 LINE",
"677 644 LINE",
"481 644 LINE",
"351 401 LINE",
"221 644 LINE",
"25 644 LINE",
"257 236 LINE",
"257 0 LINE"
);
},
{
closed = 1;
nodes = (
"310 715 LINE",
"310 835 LINE",
"179 835 LINE",
"179 715 LINE"
);
},
{
closed = 1;
nodes = (
"526 715 LINE",
"526 835 LINE",
"395 835 LINE",
"395 715 LINE"
);
}
);
width = 702;
}
);
leftKerningGroup = Y;
note = Ydieresis;
rightKerningGroup = Y;
unicode = 0178;
},
{
glyphname = Ydotaccent;
lastChange = "2015-10-23 14:03:17 +0000";
layers = (
{
layerId = "47126D52-4795-4BAD-A976-8664E9644ACA";
name = Bold;
paths = (
{
closed = 1;
nodes = (
"445 0 LINE",
"445 236 LINE",
"677 644 LINE",
"481 644 LINE",
"351 401 LINE",
"221 644 LINE",
"25 644 LINE",
"257 236 LINE",
"257 0 LINE"
);
},
{
closed = 1;
nodes = (
"416 715 LINE",
"416 835 LINE",
"286 835 LINE",
"286 715 LINE"
);
}
);
width = 702;
}
);
leftKerningGroup = Y;
note = Ydotaccent;
rightKerningGroup = Y;
unicode = 1E8E;
},
{
glyphname = Ydotbelow;
lastChange = "2015-10-23 14:03:17 +0000";
layers = (
{
layerId = "47126D52-4795-4BAD-A976-8664E9644ACA";
name = Bold;
paths = (
{
closed = 1;
nodes = (
"445 0 LINE",
"445 236 LINE",
"677 644 LINE",
"481 644 LINE",
"351 401 LINE",
"221 644 LINE",
"25 644 LINE",
"257 236 LINE",
"257 0 LINE"
);
},
{
closed = 1;
nodes = (
"416 -175 LINE",
"416 -55 LINE",
"286 -55 LINE",
"286 -175 LINE"
);
}
);
width = 702;
}
);
leftKerningGroup = Y;
note = Ydotbelow;
rightKerningGroup = Y;
unicode = 1EF4;
},
{
glyphname = Ygrave;
lastChange = "2015-10-23 14:03:17 +0000";
layers = (
{
layerId = "47126D52-4795-4BAD-A976-8664E9644ACA";
name = Bold;
paths = (
{
closed = 1;
nodes = (
"445 0 LINE",
"445 236 LINE",
"677 644 LINE",
"481 644 LINE",
"351 401 LINE",
"221 644 LINE",
"25 644 LINE",
"257 236 LINE",
"257 0 LINE"
);
},
{
closed = 1;
nodes = (
"413 688 LINE",
"325 894 LINE",
"178 894 LINE",
"275 688 LINE"
);
}
);
width = 702;
}
);
leftKerningGroup = Y;
note = Ygrave;
rightKerningGroup = Y;
unicode = 1EF2;
},
{
glyphname = Yhookabove;
lastChange = "2015-10-23 14:03:17 +0000";
layers = (
{
layerId = "47126D52-4795-4BAD-A976-8664E9644ACA";
name = Bold;
paths = (
{
closed = 1;
nodes = (
"445 0 LINE",
"445 236 LINE",
"677 644 LINE",
"481 644 LINE",
"351 401 LINE",
"221 644 LINE",
"25 644 LINE",
"257 236 LINE",
"257 0 LINE"
);
},
{
closed = 1;
nodes = (
"416 688 LINE",
"416 729 LINE",
"471 745 OFFCURVE",
"500 771 OFFCURVE",
"500 829 CURVE SMOOTH",
"500 888 OFFCURVE",
"450 930 OFFCURVE",
"359 930 CURVE SMOOTH",
"311 930 OFFCURVE",
"272 925 OFFCURVE",
"244 916 CURVE",
"244 838 LINE",
"260 842 OFFCURVE",
"284 846 OFFCURVE",
"303 846 CURVE SMOOTH",
"342 846 OFFCURVE",
"363 836 OFFCURVE",
"363 813 CURVE SMOOTH",
"363 788 OFFCURVE",
"344 773 OFFCURVE",
"275 769 CURVE",
"275 688 LINE"
);
}
);
width = 702;
}
);
leftKerningGroup = Y;
note = Yhookabove;
rightKerningGroup = Y;
unicode = 1EF6;
},
{
glyphname = Ytilde;
lastChange = "2015-10-23 14:03:17 +0000";
layers = (
{
layerId = "47126D52-4795-4BAD-A976-8664E9644ACA";
name = Bold;
paths = (
{
closed = 1;
nodes = (
"445 0 LINE",
"445 236 LINE",
"677 644 LINE",
"481 644 LINE",
"351 401 LINE",
"221 644 LINE",
"25 644 LINE",
"257 236 LINE",
"257 0 LINE"
);
},
{
closed = 1;
nodes = (
"486 696 OFFCURVE",
"521 711 OFFCURVE",
"534 729 CURVE",
"534 848 LINE",
"518 825 OFFCURVE",
"486 808 OFFCURVE",
"444 808 CURVE SMOOTH",
"381 808 OFFCURVE",
"330 850 OFFCURVE",
"263 850 CURVE SMOOTH",
"224 850 OFFCURVE",
"187 835 OFFCURVE",
"168 817 CURVE",
"168 699 LINE",
"192 723 OFFCURVE",
"224 738 OFFCURVE",
"266 738 CURVE SMOOTH",
"321 738 OFFCURVE",
"381 696 OFFCURVE",
"447 696 CURVE SMOOTH"
);
}
);
width = 702;
}
);
leftKerningGroup = Y;
note = Ytilde;
rightKerningGroup = Y;
unicode = 1EF8;
},
{
glyphname = Z;
lastChange = "2015-10-23 14:03:17 +0000";
layers = (
{
layerId = "47126D52-4795-4BAD-A976-8664E9644ACA";
name = Bold;
paths = (
{
closed = 1;
nodes = (
"558 0 LINE",
"558 144 LINE",
"275 144 LINE",
"552 546 LINE",
"552 644 LINE",
"40 644 LINE",
"40 500 LINE",
"305 500 LINE",
"25 94 LINE",
"25 0 LINE"
);
}
);
width = 578;
}
);
note = Z;
unicode = 005A;
},
{
glyphname = Zacute;
lastChange = "2015-10-23 14:03:17 +0000";
layers = (
{
layerId = "47126D52-4795-4BAD-A976-8664E9644ACA";
name = Bold;
paths = (
{
closed = 1;
nodes = (
"558 0 LINE",
"558 144 LINE",
"275 144 LINE",
"552 546 LINE",
"552 644 LINE",
"40 644 LINE",
"40 500 LINE",
"305 500 LINE",
"25 94 LINE",
"25 0 LINE"
);
},
{
closed = 1;
nodes = (
"347 688 LINE",
"443 894 LINE",
"297 894 LINE",
"209 688 LINE"
);
}
);
width = 578;
}
);
note = Zacute;
unicode = 0179;
},
{
glyphname = Zcaron;
lastChange = "2015-11-25 11:15:19 +0000";
layers = (
{
layerId = "47126D52-4795-4BAD-A976-8664E9644ACA";
name = Bold;
paths = (
{
closed = 1;
nodes = (
"558 0 LINE",
"558 144 LINE",
"275 144 LINE",
"552 546 LINE",
"552 644 LINE",
"40 644 LINE",
"40 500 LINE",
"305 500 LINE",
"25 94 LINE",
"25 0 LINE"
);
},
{
closed = 1;
nodes = (
"360 688 LINE",
"515 888 LINE",
"379 888 LINE",
"303 779 LINE",
"231 888 LINE",
"91 888 LINE",
"246 688 LINE"
);
}
);
width = 578;
}
);
note = Zcaron;
unicode = 017D;
},
{
glyphname = Zdotaccent;
lastChange = "2015-11-25 11:15:19 +0000";
layers = (
{
layerId = "47126D52-4795-4BAD-A976-8664E9644ACA";
name = Bold;
paths = (
{
closed = 1;
nodes = (
"558 0 LINE",
"558 144 LINE",
"275 144 LINE",
"552 546 LINE",
"552 644 LINE",
"40 644 LINE",
"40 500 LINE",
"305 500 LINE",
"25 94 LINE",
"25 0 LINE"
);
},
{
closed = 1;
nodes = (
"359 715 LINE",
"359 835 LINE",
"229 835 LINE",
"229 715 LINE"
);
}
);
width = 578;
}
);
note = Zdotaccent;
unicode = 017B;
},
{
glyphname = Zdotbelow;
lastChange = "2015-10-23 14:03:17 +0000";
layers = (
{
layerId = "47126D52-4795-4BAD-A976-8664E9644ACA";
name = Bold;
paths = (
{
closed = 1;
nodes = (
"558 0 LINE",
"558 144 LINE",
"275 144 LINE",
"552 546 LINE",
"552 644 LINE",
"40 644 LINE",
"40 500 LINE",
"305 500 LINE",
"25 94 LINE",
"25 0 LINE"
);
},
{
closed = 1;
nodes = (
"352 -176 LINE",
"352 -56 LINE",
"222 -56 LINE",
"222 -176 LINE"
);
}
);
width = 578;
}
);
note = Zdotbelow;
unicode = 1E92;
},
{
glyphname = a;
lastChange = "2015-10-23 14:07:22 +0000";
layers = (
{
layerId = "47126D52-4795-4BAD-A976-8664E9644ACA";
name = Bold;
paths = (
{
closed = 1;
nodes = (
"270 -10 OFFCURVE",
"321 8 OFFCURVE",
"355 38 CURVE",
"364 0 LINE",
"528 0 LINE",
"528 292 LINE SMOOTH",
"528 425 OFFCURVE",
"433 484 OFFCURVE",
"283 484 CURVE SMOOTH",
"208 484 OFFCURVE",
"131 470 OFFCURVE",
"83 451 CURVE",
"83 338 LINE",
"134 354 OFFCURVE",
"193 363 OFFCURVE",
"245 363 CURVE SMOOTH",
"322 363 OFFCURVE",
"349 346 OFFCURVE",
"349 309 CURVE SMOOTH",
"349 300 LINE",
"226 300 LINE SMOOTH",
"91 300 OFFCURVE",
"25 242 OFFCURVE",
"25 142 CURVE SMOOTH",
"25 37 OFFCURVE",
"102 -10 OFFCURVE",
"193 -10 CURVE SMOOTH"
);
},
{
closed = 1;
nodes = (
"215 100 OFFCURVE",
"196 118 OFFCURVE",
"196 148 CURVE SMOOTH",
"196 182 OFFCURVE",
"216 197 OFFCURVE",
"258 197 CURVE SMOOTH",
"349 197 LINE",
"349 138 LINE",
"329 116 OFFCURVE",
"299 100 OFFCURVE",
"257 100 CURVE SMOOTH"
);
}
);
width = 568;
}
);
leftKerningGroup = a;
note = a;
unicode = 0061;
},
{
glyphname = aacute;
lastChange = "2015-11-25 11:15:29 +0000";
layers = (
{
layerId = "47126D52-4795-4BAD-A976-8664E9644ACA";
name = Bold;
paths = (
{
closed = 1;
nodes = (
"270 -10 OFFCURVE",
"321 8 OFFCURVE",
"355 38 CURVE",
"364 0 LINE",
"528 0 LINE",
"528 292 LINE SMOOTH",
"528 425 OFFCURVE",
"433 484 OFFCURVE",
"283 484 CURVE SMOOTH",
"208 484 OFFCURVE",
"131 470 OFFCURVE",
"83 451 CURVE",
"83 338 LINE",
"134 354 OFFCURVE",
"193 363 OFFCURVE",
"245 363 CURVE SMOOTH",
"322 363 OFFCURVE",
"349 346 OFFCURVE",
"349 309 CURVE SMOOTH",
"349 300 LINE",
"226 300 LINE SMOOTH",
"91 300 OFFCURVE",
"25 242 OFFCURVE",
"25 142 CURVE SMOOTH",
"25 37 OFFCURVE",
"102 -10 OFFCURVE",
"193 -10 CURVE SMOOTH"
);
},
{
closed = 1;
nodes = (
"215 100 OFFCURVE",
"196 118 OFFCURVE",
"196 148 CURVE SMOOTH",
"196 182 OFFCURVE",
"216 197 OFFCURVE",
"258 197 CURVE SMOOTH",
"349 197 LINE",
"349 138 LINE",
"329 116 OFFCURVE",
"299 100 OFFCURVE",
"257 100 CURVE SMOOTH"
);
},
{
closed = 1;
nodes = (
"353 522 LINE",
"449 728 LINE",
"303 728 LINE",
"215 522 LINE"
);
}
);
width = 568;
}
);
leftKerningGroup = a;
note = aacute;
unicode = 00E1;
},
{
glyphname = abreve;
lastChange = "2015-10-23 14:03:17 +0000";
layers = (
{
layerId = "47126D52-4795-4BAD-A976-8664E9644ACA";
name = Bold;
paths = (
{
closed = 1;
nodes = (
"270 -10 OFFCURVE",
"321 8 OFFCURVE",
"355 38 CURVE",
"364 0 LINE",
"528 0 LINE",
"528 292 LINE SMOOTH",
"528 425 OFFCURVE",
"433 484 OFFCURVE",
"283 484 CURVE SMOOTH",
"208 484 OFFCURVE",
"131 470 OFFCURVE",
"83 451 CURVE",
"83 338 LINE",
"134 354 OFFCURVE",
"193 363 OFFCURVE",
"245 363 CURVE SMOOTH",
"322 363 OFFCURVE",
"349 346 OFFCURVE",
"349 309 CURVE SMOOTH",
"349 300 LINE",
"226 300 LINE SMOOTH",
"91 300 OFFCURVE",
"25 242 OFFCURVE",
"25 142 CURVE SMOOTH",
"25 37 OFFCURVE",
"102 -10 OFFCURVE",
"193 -10 CURVE SMOOTH"
);
},
{
closed = 1;
nodes = (
"215 100 OFFCURVE",
"196 118 OFFCURVE",
"196 148 CURVE SMOOTH",
"196 182 OFFCURVE",
"216 197 OFFCURVE",
"258 197 CURVE SMOOTH",
"349 197 LINE",
"349 138 LINE",
"329 116 OFFCURVE",
"299 100 OFFCURVE",
"257 100 CURVE SMOOTH"
);
},
{
closed = 1;
nodes = (
"419 523 OFFCURVE",
"495 589 OFFCURVE",
"495 710 CURVE",
"373 710 LINE",
"373 661 OFFCURVE",
"356 626 OFFCURVE",
"305 626 CURVE SMOOTH",
"254 626 OFFCURVE",
"238 661 OFFCURVE",
"238 710 CURVE",
"116 710 LINE",
"116 589 OFFCURVE",
"192 523 OFFCURVE",
"305 523 CURVE SMOOTH"
);
}
);
width = 568;
}
);
leftKerningGroup = a;
note = abreve;
unicode = 0103;
},
{
glyphname = abreveacute;
lastChange = "2015-10-23 14:03:17 +0000";
layers = (
{
layerId = "47126D52-4795-4BAD-A976-8664E9644ACA";
name = Bold;
paths = (
{
closed = 1;
nodes = (
"270 -10 OFFCURVE",
"321 8 OFFCURVE",
"355 38 CURVE",
"364 0 LINE",
"528 0 LINE",
"528 292 LINE SMOOTH",
"528 425 OFFCURVE",
"433 484 OFFCURVE",
"283 484 CURVE SMOOTH",
"208 484 OFFCURVE",
"131 470 OFFCURVE",
"83 451 CURVE",
"83 338 LINE",
"134 354 OFFCURVE",
"193 363 OFFCURVE",
"245 363 CURVE SMOOTH",
"322 363 OFFCURVE",
"349 346 OFFCURVE",
"349 309 CURVE SMOOTH",
"349 300 LINE",
"226 300 LINE SMOOTH",
"91 300 OFFCURVE",
"25 242 OFFCURVE",
"25 142 CURVE SMOOTH",
"25 37 OFFCURVE",
"102 -10 OFFCURVE",
"193 -10 CURVE SMOOTH"
);
},
{
closed = 1;
nodes = (
"215 100 OFFCURVE",
"196 118 OFFCURVE",
"196 148 CURVE SMOOTH",
"196 182 OFFCURVE",
"216 197 OFFCURVE",
"258 197 CURVE SMOOTH",
"349 197 LINE",
"349 138 LINE",
"329 116 OFFCURVE",
"299 100 OFFCURVE",
"257 100 CURVE SMOOTH"
);
},
{
closed = 1;
nodes = (
"390 522 OFFCURVE",
"464 574 OFFCURVE",
"464 694 CURVE",
"359 694 LINE",
"359 646 OFFCURVE",
"333 614 OFFCURVE",
"283 614 CURVE SMOOTH",
"233 614 OFFCURVE",
"206 646 OFFCURVE",
"206 694 CURVE",
"101 694 LINE",
"101 574 OFFCURVE",
"176 522 OFFCURVE",
"283 522 CURVE SMOOTH"
);
},
{
closed = 1;
nodes = (
"336 690 LINE",
"419 847 LINE",
"294 847 LINE",
"228 690 LINE"
);
}
);
width = 568;
}
);
leftKerningGroup = a;
note = abreveacute;
unicode = 1EAF;
},
{
glyphname = abrevedotbelow;
lastChange = "2015-11-25 11:15:38 +0000";
layers = (
{
layerId = "47126D52-4795-4BAD-A976-8664E9644ACA";
name = Bold;
paths = (
{
closed = 1;
nodes = (
"270 -10 OFFCURVE",
"321 8 OFFCURVE",
"355 38 CURVE",
"364 0 LINE",
"528 0 LINE",
"528 292 LINE SMOOTH",
"528 425 OFFCURVE",
"433 484 OFFCURVE",
"283 484 CURVE SMOOTH",
"208 484 OFFCURVE",
"131 470 OFFCURVE",
"83 451 CURVE",
"83 338 LINE",
"134 354 OFFCURVE",
"193 363 OFFCURVE",
"245 363 CURVE SMOOTH",
"322 363 OFFCURVE",
"349 346 OFFCURVE",
"349 309 CURVE SMOOTH",
"349 300 LINE",
"226 300 LINE SMOOTH",
"91 300 OFFCURVE",
"25 242 OFFCURVE",
"25 142 CURVE SMOOTH",
"25 37 OFFCURVE",
"102 -10 OFFCURVE",
"193 -10 CURVE SMOOTH"
);
},
{
closed = 1;
nodes = (
"215 100 OFFCURVE",
"196 118 OFFCURVE",
"196 148 CURVE SMOOTH",
"196 182 OFFCURVE",
"216 197 OFFCURVE",
"258 197 CURVE SMOOTH",
"349 197 LINE",
"349 138 LINE",
"329 116 OFFCURVE",
"299 100 OFFCURVE",
"257 100 CURVE SMOOTH"
);
},
{
closed = 1;
nodes = (
"370 -176 LINE",
"370 -56 LINE",
"240 -56 LINE",
"240 -176 LINE"
);
},
{
closed = 1;
nodes = (
"413 522 OFFCURVE",
"489 588 OFFCURVE",
"489 709 CURVE",
"367 709 LINE",
"367 660 OFFCURVE",
"350 625 OFFCURVE",
"299 625 CURVE SMOOTH",
"248 625 OFFCURVE",
"232 660 OFFCURVE",
"232 709 CURVE",
"110 709 LINE",
"110 588 OFFCURVE",
"186 522 OFFCURVE",
"299 522 CURVE SMOOTH"
);
}
);
width = 568;
}
);
leftKerningGroup = a;
note = abrevedotbelow;
unicode = 1EB7;
},
{
glyphname = abrevegrave;
lastChange = "2015-10-23 14:03:17 +0000";
layers = (
{
layerId = "47126D52-4795-4BAD-A976-8664E9644ACA";
name = Bold;
paths = (
{
closed = 1;
nodes = (
"270 -10 OFFCURVE",
"321 8 OFFCURVE",
"355 38 CURVE",
"364 0 LINE",
"528 0 LINE",
"528 292 LINE SMOOTH",
"528 425 OFFCURVE",
"433 484 OFFCURVE",
"283 484 CURVE SMOOTH",
"208 484 OFFCURVE",
"131 470 OFFCURVE",
"83 451 CURVE",
"83 338 LINE",
"134 354 OFFCURVE",
"193 363 OFFCURVE",
"245 363 CURVE SMOOTH",
"322 363 OFFCURVE",
"349 346 OFFCURVE",
"349 309 CURVE SMOOTH",
"349 300 LINE",
"226 300 LINE SMOOTH",
"91 300 OFFCURVE",
"25 242 OFFCURVE",
"25 142 CURVE SMOOTH",
"25 37 OFFCURVE",
"102 -10 OFFCURVE",
"193 -10 CURVE SMOOTH"
);
},
{
closed = 1;
nodes = (
"215 100 OFFCURVE",
"196 118 OFFCURVE",
"196 148 CURVE SMOOTH",
"196 182 OFFCURVE",
"216 197 OFFCURVE",
"258 197 CURVE SMOOTH",
"349 197 LINE",
"349 138 LINE",
"329 116 OFFCURVE",
"299 100 OFFCURVE",
"257 100 CURVE SMOOTH"
);
},
{
closed = 1;
nodes = (
"398 522 OFFCURVE",
"473 574 OFFCURVE",
"473 694 CURVE",
"368 694 LINE",
"368 646 OFFCURVE",
"341 614 OFFCURVE",
"291 614 CURVE SMOOTH",
"241 614 OFFCURVE",
"215 646 OFFCURVE",
"215 694 CURVE",
"110 694 LINE",
"110 574 OFFCURVE",
"184 522 OFFCURVE",
"291 522 CURVE SMOOTH"
);
},
{
closed = 1;
nodes = (
"346 690 LINE",
"280 847 LINE",
"155 847 LINE",
"238 690 LINE"
);
}
);
width = 568;
}
);
leftKerningGroup = a;
note = abrevegrave;
unicode = 1EB1;
},
{
glyphname = abrevehookabove;
lastChange = "2015-10-23 14:03:17 +0000";
layers = (
{
layerId = "47126D52-4795-4BAD-A976-8664E9644ACA";
name = Bold;
paths = (
{
closed = 1;
nodes = (
"270 -10 OFFCURVE",
"321 8 OFFCURVE",
"355 38 CURVE",
"364 0 LINE",
"528 0 LINE",
"528 292 LINE SMOOTH",
"528 425 OFFCURVE",
"433 484 OFFCURVE",
"283 484 CURVE SMOOTH",
"208 484 OFFCURVE",
"131 470 OFFCURVE",
"83 451 CURVE",
"83 338 LINE",
"134 354 OFFCURVE",
"193 363 OFFCURVE",
"245 363 CURVE SMOOTH",
"322 363 OFFCURVE",
"349 346 OFFCURVE",
"349 309 CURVE SMOOTH",
"349 300 LINE",
"226 300 LINE SMOOTH",
"91 300 OFFCURVE",
"25 242 OFFCURVE",
"25 142 CURVE SMOOTH",
"25 37 OFFCURVE",
"102 -10 OFFCURVE",
"193 -10 CURVE SMOOTH"
);
},
{
closed = 1;
nodes = (
"215 100 OFFCURVE",
"196 118 OFFCURVE",
"196 148 CURVE SMOOTH",
"196 182 OFFCURVE",
"216 197 OFFCURVE",
"258 197 CURVE SMOOTH",
"349 197 LINE",
"349 138 LINE",
"329 116 OFFCURVE",
"299 100 OFFCURVE",
"257 100 CURVE SMOOTH"
);
},
{
closed = 1;
nodes = (
"397 522 OFFCURVE",
"472 574 OFFCURVE",
"472 694 CURVE",
"367 694 LINE",
"367 646 OFFCURVE",
"340 614 OFFCURVE",
"290 614 CURVE SMOOTH",
"240 614 OFFCURVE",
"214 646 OFFCURVE",
"214 694 CURVE",
"109 694 LINE",
"109 574 OFFCURVE",
"183 522 OFFCURVE",
"290 522 CURVE SMOOTH"
);
},
{
closed = 1;
nodes = (
"350 695 LINE",
"350 725 LINE",
"403 738 OFFCURVE",
"425 762 OFFCURVE",
"425 807 CURVE SMOOTH",
"425 856 OFFCURVE",
"383 893 OFFCURVE",
"308 893 CURVE SMOOTH",
"268 893 OFFCURVE",
"230 888 OFFCURVE",
"206 880 CURVE",
"206 813 LINE",
"219 818 OFFCURVE",
"238 822 OFFCURVE",
"257 822 CURVE SMOOTH",
"288 822 OFFCURVE",
"304 816 OFFCURVE",
"304 794 CURVE SMOOTH",
"304 773 OFFCURVE",
"285 759 OFFCURVE",
"229 757 CURVE",
"229 695 LINE"
);
}
);
width = 568;
}
);
leftKerningGroup = a;
note = abrevehookabove;
unicode = 1EB3;
},
{
glyphname = abrevetilde;
lastChange = "2015-10-23 14:03:17 +0000";
layers = (
{
layerId = "47126D52-4795-4BAD-A976-8664E9644ACA";
name = Bold;
paths = (
{
closed = 1;
nodes = (
"270 -10 OFFCURVE",
"321 8 OFFCURVE",
"355 38 CURVE",
"364 0 LINE",
"528 0 LINE",
"528 292 LINE SMOOTH",
"528 425 OFFCURVE",
"433 484 OFFCURVE",
"283 484 CURVE SMOOTH",
"208 484 OFFCURVE",
"131 470 OFFCURVE",
"83 451 CURVE",
"83 338 LINE",
"134 354 OFFCURVE",
"193 363 OFFCURVE",
"245 363 CURVE SMOOTH",
"322 363 OFFCURVE",
"349 346 OFFCURVE",
"349 309 CURVE SMOOTH",
"349 300 LINE",
"226 300 LINE SMOOTH",
"91 300 OFFCURVE",
"25 242 OFFCURVE",
"25 142 CURVE SMOOTH",
"25 37 OFFCURVE",
"102 -10 OFFCURVE",
"193 -10 CURVE SMOOTH"
);
},
{
closed = 1;
nodes = (
"215 100 OFFCURVE",
"196 118 OFFCURVE",
"196 148 CURVE SMOOTH",
"196 182 OFFCURVE",
"216 197 OFFCURVE",
"258 197 CURVE SMOOTH",
"349 197 LINE",
"349 138 LINE",
"329 116 OFFCURVE",
"299 100 OFFCURVE",
"257 100 CURVE SMOOTH"
);
},
{
closed = 1;
nodes = (
"400 522 OFFCURVE",
"475 574 OFFCURVE",
"475 694 CURVE",
"370 694 LINE",
"370 646 OFFCURVE",
"343 614 OFFCURVE",
"293 614 CURVE SMOOTH",
"243 614 OFFCURVE",
"217 646 OFFCURVE",
"217 694 CURVE",
"112 694 LINE",
"112 574 OFFCURVE",
"186 522 OFFCURVE",
"293 522 CURVE SMOOTH"
);
},
{
closed = 1;
nodes = (
"427 712 OFFCURVE",
"461 727 OFFCURVE",
"474 744 CURVE",
"474 847 LINE",
"458 824 OFFCURVE",
"426 808 OFFCURVE",
"385 808 CURVE SMOOTH",
"325 808 OFFCURVE",
"274 849 OFFCURVE",
"209 849 CURVE SMOOTH",
"171 849 OFFCURVE",
"135 835 OFFCURVE",
"117 817 CURVE",
"117 715 LINE",
"140 739 OFFCURVE",
"171 753 OFFCURVE",
"212 753 CURVE SMOOTH",
"266 753 OFFCURVE",
"325 712 OFFCURVE",
"388 712 CURVE SMOOTH"
);
}
);
width = 568;
}
);
leftKerningGroup = a;
note = abrevetilde;
unicode = 1EB5;
},
{
glyphname = acaron;
lastChange = "2015-10-23 14:03:17 +0000";
layers = (
{
layerId = "47126D52-4795-4BAD-A976-8664E9644ACA";
name = Bold;
paths = (
{
closed = 1;
nodes = (
"270 -10 OFFCURVE",
"321 8 OFFCURVE",
"355 38 CURVE",
"364 0 LINE",
"528 0 LINE",
"528 292 LINE SMOOTH",
"528 425 OFFCURVE",
"433 484 OFFCURVE",
"283 484 CURVE SMOOTH",
"208 484 OFFCURVE",
"131 470 OFFCURVE",
"83 451 CURVE",
"83 338 LINE",
"134 354 OFFCURVE",
"193 363 OFFCURVE",
"245 363 CURVE SMOOTH",
"322 363 OFFCURVE",
"349 346 OFFCURVE",
"349 309 CURVE SMOOTH",
"349 300 LINE",
"226 300 LINE SMOOTH",
"91 300 OFFCURVE",
"25 242 OFFCURVE",
"25 142 CURVE SMOOTH",
"25 37 OFFCURVE",
"102 -10 OFFCURVE",
"193 -10 CURVE SMOOTH"
);
},
{
closed = 1;
nodes = (
"215 100 OFFCURVE",
"196 118 OFFCURVE",
"196 148 CURVE SMOOTH",
"196 182 OFFCURVE",
"216 197 OFFCURVE",
"258 197 CURVE SMOOTH",
"349 197 LINE",
"349 138 LINE",
"329 116 OFFCURVE",
"299 100 OFFCURVE",
"257 100 CURVE SMOOTH"
);
},
{
closed = 1;
nodes = (
"346 522 LINE",
"501 722 LINE",
"365 722 LINE",
"289 613 LINE",
"217 722 LINE",
"77 722 LINE",
"232 522 LINE"
);
}
);
width = 568;
}
);
leftKerningGroup = a;
note = acaron;
unicode = 01CE;
},
{
glyphname = acircumflex;
lastChange = "2015-10-23 14:03:17 +0000";
layers = (
{
layerId = "47126D52-4795-4BAD-A976-8664E9644ACA";
name = Bold;
paths = (
{
closed = 1;
nodes = (
"270 -10 OFFCURVE",
"321 8 OFFCURVE",
"355 38 CURVE",
"364 0 LINE",
"528 0 LINE",
"528 292 LINE SMOOTH",
"528 425 OFFCURVE",
"433 484 OFFCURVE",
"283 484 CURVE SMOOTH",
"208 484 OFFCURVE",
"131 470 OFFCURVE",
"83 451 CURVE",
"83 338 LINE",
"134 354 OFFCURVE",
"193 363 OFFCURVE",
"245 363 CURVE SMOOTH",
"322 363 OFFCURVE",
"349 346 OFFCURVE",
"349 309 CURVE SMOOTH",
"349 300 LINE",
"226 300 LINE SMOOTH",
"91 300 OFFCURVE",
"25 242 OFFCURVE",
"25 142 CURVE SMOOTH",
"25 37 OFFCURVE",
"102 -10 OFFCURVE",
"193 -10 CURVE SMOOTH"
);
},
{
closed = 1;
nodes = (
"215 100 OFFCURVE",
"196 118 OFFCURVE",
"196 148 CURVE SMOOTH",
"196 182 OFFCURVE",
"216 197 OFFCURVE",
"258 197 CURVE SMOOTH",
"349 197 LINE",
"349 138 LINE",
"329 116 OFFCURVE",
"299 100 OFFCURVE",
"257 100 CURVE SMOOTH"
);
},
{
closed = 1;
nodes = (
"219 522 LINE",
"291 630 LINE",
"367 522 LINE",
"503 522 LINE",
"348 722 LINE",
"234 722 LINE",
"79 522 LINE"
);
}
);
width = 568;
}
);
leftKerningGroup = a;
note = acircumflex;
unicode = 00E2;
},
{
glyphname = acircumflexacute;
lastChange = "2015-10-23 14:03:17 +0000";
layers = (
{
layerId = "47126D52-4795-4BAD-A976-8664E9644ACA";
name = Bold;
paths = (
{
closed = 1;
nodes = (
"270 -10 OFFCURVE",
"321 8 OFFCURVE",
"355 38 CURVE",
"364 0 LINE",
"528 0 LINE",
"528 292 LINE SMOOTH",
"528 425 OFFCURVE",
"433 484 OFFCURVE",
"283 484 CURVE SMOOTH",
"208 484 OFFCURVE",
"131 470 OFFCURVE",
"83 451 CURVE",
"83 338 LINE",
"134 354 OFFCURVE",
"193 363 OFFCURVE",
"245 363 CURVE SMOOTH",
"322 363 OFFCURVE",
"349 346 OFFCURVE",
"349 309 CURVE SMOOTH",
"349 300 LINE",
"226 300 LINE SMOOTH",
"91 300 OFFCURVE",
"25 242 OFFCURVE",
"25 142 CURVE SMOOTH",
"25 37 OFFCURVE",
"102 -10 OFFCURVE",
"193 -10 CURVE SMOOTH"
);
},
{
closed = 1;
nodes = (
"215 100 OFFCURVE",
"196 118 OFFCURVE",
"196 148 CURVE SMOOTH",
"196 182 OFFCURVE",
"216 197 OFFCURVE",
"258 197 CURVE SMOOTH",
"349 197 LINE",
"349 138 LINE",
"329 116 OFFCURVE",
"299 100 OFFCURVE",
"257 100 CURVE SMOOTH"
);
},
{
closed = 1;
nodes = (
"226 522 LINE",
"288 601 LINE",
"350 522 LINE",
"499 522 LINE",
"357 674 LINE",
"219 674 LINE",
"77 522 LINE"
);
},
{
closed = 1;
nodes = (
"542 647 LINE",
"620 803 LINE",
"481 803 LINE",
"410 647 LINE"
);
}
);
width = 568;
}
);
leftKerningGroup = a;
note = acircumflexacute;
unicode = 1EA5;
},
{
glyphname = acircumflexdotbelow;
lastChange = "2015-11-25 11:15:47 +0000";
layers = (
{
layerId = "47126D52-4795-4BAD-A976-8664E9644ACA";
name = Bold;
paths = (
{
closed = 1;
nodes = (
"270 -10 OFFCURVE",
"321 8 OFFCURVE",
"355 38 CURVE",
"364 0 LINE",
"528 0 LINE",
"528 292 LINE SMOOTH",
"528 425 OFFCURVE",
"433 484 OFFCURVE",
"283 484 CURVE SMOOTH",
"208 484 OFFCURVE",
"131 470 OFFCURVE",
"83 451 CURVE",
"83 338 LINE",
"134 354 OFFCURVE",
"193 363 OFFCURVE",
"245 363 CURVE SMOOTH",
"322 363 OFFCURVE",
"349 346 OFFCURVE",
"349 309 CURVE SMOOTH",
"349 300 LINE",
"226 300 LINE SMOOTH",
"91 300 OFFCURVE",
"25 242 OFFCURVE",
"25 142 CURVE SMOOTH",
"25 37 OFFCURVE",
"102 -10 OFFCURVE",
"193 -10 CURVE SMOOTH"
);
},
{
closed = 1;
nodes = (
"215 100 OFFCURVE",
"196 118 OFFCURVE",
"196 148 CURVE SMOOTH",
"196 182 OFFCURVE",
"216 197 OFFCURVE",
"258 197 CURVE SMOOTH",
"349 197 LINE",
"349 138 LINE",
"329 116 OFFCURVE",
"299 100 OFFCURVE",
"257 100 CURVE SMOOTH"
);
},
{
closed = 1;
nodes = (
"361 -176 LINE",
"361 -56 LINE",
"231 -56 LINE",
"231 -176 LINE"
);
},
{
closed = 1;
nodes = (
"224 522 LINE",
"296 630 LINE",
"372 522 LINE",
"508 522 LINE",
"353 722 LINE",
"239 722 LINE",
"84 522 LINE"
);
}
);
width = 568;
}
);
leftKerningGroup = a;
note = acircumflexdotbelow;
unicode = 1EAD;
},
{
glyphname = acircumflexgrave;
lastChange = "2015-10-23 14:03:17 +0000";
layers = (
{
layerId = "47126D52-4795-4BAD-A976-8664E9644ACA";
name = Bold;
paths = (
{
closed = 1;
nodes = (
"270 -10 OFFCURVE",
"321 8 OFFCURVE",
"355 38 CURVE",
"364 0 LINE",
"528 0 LINE",
"528 292 LINE SMOOTH",
"528 425 OFFCURVE",
"433 484 OFFCURVE",
"283 484 CURVE SMOOTH",
"208 484 OFFCURVE",
"131 470 OFFCURVE",
"83 451 CURVE",
"83 338 LINE",
"134 354 OFFCURVE",
"193 363 OFFCURVE",
"245 363 CURVE SMOOTH",
"322 363 OFFCURVE",
"349 346 OFFCURVE",
"349 309 CURVE SMOOTH",
"349 300 LINE",
"226 300 LINE SMOOTH",
"91 300 OFFCURVE",
"25 242 OFFCURVE",
"25 142 CURVE SMOOTH",
"25 37 OFFCURVE",
"102 -10 OFFCURVE",
"193 -10 CURVE SMOOTH"
);
},
{
closed = 1;
nodes = (
"215 100 OFFCURVE",
"196 118 OFFCURVE",
"196 148 CURVE SMOOTH",
"196 182 OFFCURVE",
"216 197 OFFCURVE",
"258 197 CURVE SMOOTH",
"349 197 LINE",
"349 138 LINE",
"329 116 OFFCURVE",
"299 100 OFFCURVE",
"257 100 CURVE SMOOTH"
);
},
{
closed = 1;
nodes = (
"180 647 LINE",
"109 803 LINE",
"-30 803 LINE",
"48 647 LINE"
);
},
{
closed = 1;
nodes = (
"240 522 LINE",
"302 601 LINE",
"364 522 LINE",
"513 522 LINE",
"371 674 LINE",
"233 674 LINE",
"91 522 LINE"
);
}
);
width = 568;
}
);
leftKerningGroup = a;
note = acircumflexgrave;
unicode = 1EA7;
},
{
glyphname = acircumflexhookabove;
lastChange = "2015-10-23 14:03:17 +0000";
layers = (
{
layerId = "47126D52-4795-4BAD-A976-8664E9644ACA";
name = Bold;
paths = (
{
closed = 1;
nodes = (
"270 -10 OFFCURVE",
"321 8 OFFCURVE",
"355 38 CURVE",
"364 0 LINE",
"528 0 LINE",
"528 292 LINE SMOOTH",
"528 425 OFFCURVE",
"433 484 OFFCURVE",
"283 484 CURVE SMOOTH",
"208 484 OFFCURVE",
"131 470 OFFCURVE",
"83 451 CURVE",
"83 338 LINE",
"134 354 OFFCURVE",
"193 363 OFFCURVE",
"245 363 CURVE SMOOTH",
"322 363 OFFCURVE",
"349 346 OFFCURVE",
"349 309 CURVE SMOOTH",
"349 300 LINE",
"226 300 LINE SMOOTH",
"91 300 OFFCURVE",
"25 242 OFFCURVE",
"25 142 CURVE SMOOTH",
"25 37 OFFCURVE",
"102 -10 OFFCURVE",
"193 -10 CURVE SMOOTH"
);
},
{
closed = 1;
nodes = (
"215 100 OFFCURVE",
"196 118 OFFCURVE",
"196 148 CURVE SMOOTH",
"196 182 OFFCURVE",
"216 197 OFFCURVE",
"258 197 CURVE SMOOTH",
"349 197 LINE",
"349 138 LINE",
"329 116 OFFCURVE",
"299 100 OFFCURVE",
"257 100 CURVE SMOOTH"
);
},
{
closed = 1;
nodes = (
"227 522 LINE",
"289 601 LINE",
"351 522 LINE",
"500 522 LINE",
"358 674 LINE",
"220 674 LINE",
"78 522 LINE"
);
},
{
closed = 1;
nodes = (
"546 624 LINE",
"546 657 LINE",
"596 665 OFFCURVE",
"619 696 OFFCURVE",
"619 741 CURVE SMOOTH",
"619 794 OFFCURVE",
"580 827 OFFCURVE",
"499 827 CURVE SMOOTH",
"460 827 OFFCURVE",
"424 822 OFFCURVE",
"400 815 CURVE",
"400 743 LINE",
"415 747 OFFCURVE",
"432 750 OFFCURVE",
"451 750 CURVE SMOOTH",
"477 750 OFFCURVE",
"493 744 OFFCURVE",
"493 728 CURVE SMOOTH",
"493 711 OFFCURVE",
"480 698 OFFCURVE",
"421 697 CURVE",
"421 624 LINE"
);
}
);
width = 568;
}
);
leftKerningGroup = a;
note = acircumflexhookabove;
unicode = 1EA9;
},
{
glyphname = acircumflextilde;
lastChange = "2015-10-23 14:03:17 +0000";
layers = (
{
layerId = "47126D52-4795-4BAD-A976-8664E9644ACA";
name = Bold;
paths = (
{
closed = 1;
nodes = (
"270 -10 OFFCURVE",
"321 8 OFFCURVE",
"355 38 CURVE",
"364 0 LINE",
"528 0 LINE",
"528 292 LINE SMOOTH",
"528 425 OFFCURVE",
"433 484 OFFCURVE",
"283 484 CURVE SMOOTH",
"208 484 OFFCURVE",
"131 470 OFFCURVE",
"83 451 CURVE",
"83 338 LINE",
"134 354 OFFCURVE",
"193 363 OFFCURVE",
"245 363 CURVE SMOOTH",
"322 363 OFFCURVE",
"349 346 OFFCURVE",
"349 309 CURVE SMOOTH",
"349 300 LINE",
"226 300 LINE SMOOTH",
"91 300 OFFCURVE",
"25 242 OFFCURVE",
"25 142 CURVE SMOOTH",
"25 37 OFFCURVE",
"102 -10 OFFCURVE",
"193 -10 CURVE SMOOTH"
);
},
{
closed = 1;
nodes = (
"215 100 OFFCURVE",
"196 118 OFFCURVE",
"196 148 CURVE SMOOTH",
"196 182 OFFCURVE",
"216 197 OFFCURVE",
"258 197 CURVE SMOOTH",
"349 197 LINE",
"349 138 LINE",
"329 116 OFFCURVE",
"299 100 OFFCURVE",
"257 100 CURVE SMOOTH"
);
},
{
closed = 1;
nodes = (
"227 521 LINE",
"289 600 LINE",
"351 521 LINE",
"500 521 LINE",
"358 673 LINE",
"220 673 LINE",
"78 521 LINE"
);
},
{
closed = 1;
nodes = (
"428 688 OFFCURVE",
"462 703 OFFCURVE",
"475 720 CURVE",
"475 826 LINE",
"459 803 OFFCURVE",
"427 787 OFFCURVE",
"386 787 CURVE SMOOTH",
"326 787 OFFCURVE",
"275 828 OFFCURVE",
"210 828 CURVE SMOOTH",
"172 828 OFFCURVE",
"136 814 OFFCURVE",
"118 796 CURVE",
"118 691 LINE",
"141 715 OFFCURVE",
"172 729 OFFCURVE",
"213 729 CURVE SMOOTH",
"267 729 OFFCURVE",
"326 688 OFFCURVE",
"389 688 CURVE SMOOTH"
);
}
);
width = 568;
}
);
leftKerningGroup = a;
note = acircumflextilde;
unicode = 1EAB;
},
{
glyphname = adieresis;
lastChange = "2015-10-23 14:03:17 +0000";
layers = (
{
layerId = "47126D52-4795-4BAD-A976-8664E9644ACA";
name = Bold;
paths = (
{
closed = 1;
nodes = (
"270 -10 OFFCURVE",
"321 8 OFFCURVE",
"355 38 CURVE",
"364 0 LINE",
"528 0 LINE",
"528 292 LINE SMOOTH",
"528 425 OFFCURVE",
"433 484 OFFCURVE",
"283 484 CURVE SMOOTH",
"208 484 OFFCURVE",
"131 470 OFFCURVE",
"83 451 CURVE",
"83 338 LINE",
"134 354 OFFCURVE",
"193 363 OFFCURVE",
"245 363 CURVE SMOOTH",
"322 363 OFFCURVE",
"349 346 OFFCURVE",
"349 309 CURVE SMOOTH",
"349 300 LINE",
"226 300 LINE SMOOTH",
"91 300 OFFCURVE",
"25 242 OFFCURVE",
"25 142 CURVE SMOOTH",
"25 37 OFFCURVE",
"102 -10 OFFCURVE",
"193 -10 CURVE SMOOTH"
);
},
{
closed = 1;
nodes = (
"215 100 OFFCURVE",
"196 118 OFFCURVE",
"196 148 CURVE SMOOTH",
"196 182 OFFCURVE",
"216 197 OFFCURVE",
"258 197 CURVE SMOOTH",
"349 197 LINE",
"349 138 LINE",
"329 116 OFFCURVE",
"299 100 OFFCURVE",
"257 100 CURVE SMOOTH"
);
},
{
closed = 1;
nodes = (
"259 549 LINE",
"259 669 LINE",
"128 669 LINE",
"128 549 LINE"
);
},
{
closed = 1;
nodes = (
"475 549 LINE",
"475 669 LINE",
"344 669 LINE",
"344 549 LINE"
);
}
);
width = 568;
}
);
leftKerningGroup = a;
note = adieresis;
unicode = 00E4;
},
{
glyphname = adotbelow;
lastChange = "2015-11-25 11:15:54 +0000";
layers = (
{
layerId = "47126D52-4795-4BAD-A976-8664E9644ACA";
name = Bold;
paths = (
{
closed = 1;
nodes = (
"270 -10 OFFCURVE",
"321 8 OFFCURVE",
"355 38 CURVE",
"364 0 LINE",
"528 0 LINE",
"528 292 LINE SMOOTH",
"528 425 OFFCURVE",
"433 484 OFFCURVE",
"283 484 CURVE SMOOTH",
"208 484 OFFCURVE",
"131 470 OFFCURVE",
"83 451 CURVE",
"83 338 LINE",
"134 354 OFFCURVE",
"193 363 OFFCURVE",
"245 363 CURVE SMOOTH",
"322 363 OFFCURVE",
"349 346 OFFCURVE",
"349 309 CURVE SMOOTH",
"349 300 LINE",
"226 300 LINE SMOOTH",
"91 300 OFFCURVE",
"25 242 OFFCURVE",
"25 142 CURVE SMOOTH",
"25 37 OFFCURVE",
"102 -10 OFFCURVE",
"193 -10 CURVE SMOOTH"
);
},
{
closed = 1;
nodes = (
"215 100 OFFCURVE",
"196 118 OFFCURVE",
"196 148 CURVE SMOOTH",
"196 182 OFFCURVE",
"216 197 OFFCURVE",
"258 197 CURVE SMOOTH",
"349 197 LINE",
"349 138 LINE",
"329 116 OFFCURVE",
"299 100 OFFCURVE",
"257 100 CURVE SMOOTH"
);
},
{
closed = 1;
nodes = (
"349 -176 LINE",
"349 -56 LINE",
"219 -56 LINE",
"219 -176 LINE"
);
}
);
width = 568;
}
);
leftKerningGroup = a;
note = adotbelow;
unicode = 1EA1;
},
{
glyphname = agrave;
lastChange = "2015-10-23 14:03:17 +0000";
layers = (
{
layerId = "47126D52-4795-4BAD-A976-8664E9644ACA";
name = Bold;
paths = (
{
closed = 1;
nodes = (
"270 -10 OFFCURVE",
"321 8 OFFCURVE",
"355 38 CURVE",
"364 0 LINE",
"528 0 LINE",
"528 292 LINE SMOOTH",
"528 425 OFFCURVE",
"433 484 OFFCURVE",
"283 484 CURVE SMOOTH",
"208 484 OFFCURVE",
"131 470 OFFCURVE",
"83 451 CURVE",
"83 338 LINE",
"134 354 OFFCURVE",
"193 363 OFFCURVE",
"245 363 CURVE SMOOTH",
"322 363 OFFCURVE",
"349 346 OFFCURVE",
"349 309 CURVE SMOOTH",
"349 300 LINE",
"226 300 LINE SMOOTH",
"91 300 OFFCURVE",
"25 242 OFFCURVE",
"25 142 CURVE SMOOTH",
"25 37 OFFCURVE",
"102 -10 OFFCURVE",
"193 -10 CURVE SMOOTH"
);
},
{
closed = 1;
nodes = (
"215 100 OFFCURVE",
"196 118 OFFCURVE",
"196 148 CURVE SMOOTH",
"196 182 OFFCURVE",
"216 197 OFFCURVE",
"258 197 CURVE SMOOTH",
"349 197 LINE",
"349 138 LINE",
"329 116 OFFCURVE",
"299 100 OFFCURVE",
"257 100 CURVE SMOOTH"
);
},
{
closed = 1;
nodes = (
"365 522 LINE",
"277 728 LINE",
"130 728 LINE",
"227 522 LINE"
);
}
);
width = 568;
}
);
leftKerningGroup = a;
note = agrave;
unicode = 00E0;
},
{
glyphname = ahookabove;
lastChange = "2015-10-23 14:03:17 +0000";
layers = (
{
layerId = "47126D52-4795-4BAD-A976-8664E9644ACA";
name = Bold;
paths = (
{
closed = 1;
nodes = (
"270 -10 OFFCURVE",
"321 8 OFFCURVE",
"355 38 CURVE",
"364 0 LINE",
"528 0 LINE",
"528 292 LINE SMOOTH",
"528 425 OFFCURVE",
"433 484 OFFCURVE",
"283 484 CURVE SMOOTH",
"208 484 OFFCURVE",
"131 470 OFFCURVE",
"83 451 CURVE",
"83 338 LINE",
"134 354 OFFCURVE",
"193 363 OFFCURVE",
"245 363 CURVE SMOOTH",
"322 363 OFFCURVE",
"349 346 OFFCURVE",
"349 309 CURVE SMOOTH",
"349 300 LINE",
"226 300 LINE SMOOTH",
"91 300 OFFCURVE",
"25 242 OFFCURVE",
"25 142 CURVE SMOOTH",
"25 37 OFFCURVE",
"102 -10 OFFCURVE",
"193 -10 CURVE SMOOTH"
);
},
{
closed = 1;
nodes = (
"215 100 OFFCURVE",
"196 118 OFFCURVE",
"196 148 CURVE SMOOTH",
"196 182 OFFCURVE",
"216 197 OFFCURVE",
"258 197 CURVE SMOOTH",
"349 197 LINE",
"349 138 LINE",
"329 116 OFFCURVE",
"299 100 OFFCURVE",
"257 100 CURVE SMOOTH"
);
},
{
closed = 1;
nodes = (
"355 521 LINE",
"355 562 LINE",
"410 578 OFFCURVE",
"439 604 OFFCURVE",
"439 662 CURVE SMOOTH",
"439 721 OFFCURVE",
"389 763 OFFCURVE",
"298 763 CURVE SMOOTH",
"250 763 OFFCURVE",
"211 758 OFFCURVE",
"183 749 CURVE",
"183 671 LINE",
"199 675 OFFCURVE",
"223 679 OFFCURVE",
"242 679 CURVE SMOOTH",
"281 679 OFFCURVE",
"302 669 OFFCURVE",
"302 646 CURVE SMOOTH",
"302 621 OFFCURVE",
"283 606 OFFCURVE",
"214 602 CURVE",
"214 521 LINE"
);
}
);
width = 568;
}
);
leftKerningGroup = a;
note = ahookabove;
unicode = 1EA3;
},
{
glyphname = "alpha-latin";
lastChange = "2015-10-23 14:03:17 +0000";
layers = (
{
layerId = "47126D52-4795-4BAD-A976-8664E9644ACA";
name = Bold;
paths = (
{
closed = 1;
nodes = (
"308 -10 OFFCURVE",
"352 7 OFFCURVE",
"390 37 CURVE",
"399 0 LINE",
"562 0 LINE",
"562 474 LINE",
"374 474 LINE",
"374 451 LINE",
"348 469 OFFCURVE",
"308 484 OFFCURVE",
"257 484 CURVE SMOOTH",
"125 484 OFFCURVE",
"25 382 OFFCURVE",
"25 220 CURVE SMOOTH",
"25 57 OFFCURVE",
"105 -10 OFFCURVE",
"246 -10 CURVE SMOOTH"
);
},
{
closed = 1;
nodes = (
"241 126 OFFCURVE",
"217 148 OFFCURVE",
"217 219 CURVE SMOOTH",
"217 303 OFFCURVE",
"246 348 OFFCURVE",
"305 348 CURVE SMOOTH",
"335 348 OFFCURVE",
"355 340 OFFCURVE",
"374 323 CURVE",
"374 155 LINE",
"357 136 OFFCURVE",
"329 126 OFFCURVE",
"300 126 CURVE SMOOTH"
);
}
);
width = 607;
}
);
leftKerningGroup = d;
note = ascript;
unicode = 0251;
},
{
glyphname = amacron;
lastChange = "2015-10-23 14:03:17 +0000";
layers = (
{
layerId = "47126D52-4795-4BAD-A976-8664E9644ACA";
name = Bold;
paths = (
{
closed = 1;
nodes = (
"270 -10 OFFCURVE",
"321 8 OFFCURVE",
"355 38 CURVE",
"364 0 LINE",
"528 0 LINE",
"528 292 LINE SMOOTH",
"528 425 OFFCURVE",
"433 484 OFFCURVE",
"283 484 CURVE SMOOTH",
"208 484 OFFCURVE",
"131 470 OFFCURVE",
"83 451 CURVE",
"83 338 LINE",
"134 354 OFFCURVE",
"193 363 OFFCURVE",
"245 363 CURVE SMOOTH",
"322 363 OFFCURVE",
"349 346 OFFCURVE",
"349 309 CURVE SMOOTH",
"349 300 LINE",
"226 300 LINE SMOOTH",
"91 300 OFFCURVE",
"25 242 OFFCURVE",
"25 142 CURVE SMOOTH",
"25 37 OFFCURVE",
"102 -10 OFFCURVE",
"193 -10 CURVE SMOOTH"
);
},
{
closed = 1;
nodes = (
"215 100 OFFCURVE",
"196 118 OFFCURVE",
"196 148 CURVE SMOOTH",
"196 182 OFFCURVE",
"216 197 OFFCURVE",
"258 197 CURVE SMOOTH",
"349 197 LINE",
"349 138 LINE",
"329 116 OFFCURVE",
"299 100 OFFCURVE",
"257 100 CURVE SMOOTH"
);
},
{
closed = 1;
nodes = (
"475 536 LINE",
"475 648 LINE",
"147 648 LINE",
"147 536 LINE"
);
}
);
width = 568;
}
);
leftKerningGroup = a;
note = amacron;
unicode = 0101;
},
{
glyphname = aogonek;
lastChange = "2015-11-25 11:16:05 +0000";
layers = (
{
layerId = "47126D52-4795-4BAD-A976-8664E9644ACA";
name = Bold;
paths = (
{
closed = 1;
nodes = (
"270 -10 OFFCURVE",
"321 8 OFFCURVE",
"355 38 CURVE",
"364 0 LINE",
"528 0 LINE",
"528 292 LINE SMOOTH",
"528 425 OFFCURVE",
"433 484 OFFCURVE",
"283 484 CURVE SMOOTH",
"208 484 OFFCURVE",
"131 470 OFFCURVE",
"83 451 CURVE",
"83 338 LINE",
"134 354 OFFCURVE",
"193 363 OFFCURVE",
"245 363 CURVE SMOOTH",
"322 363 OFFCURVE",
"349 346 OFFCURVE",
"349 309 CURVE SMOOTH",
"349 300 LINE",
"226 300 LINE SMOOTH",
"91 300 OFFCURVE",
"25 242 OFFCURVE",
"25 142 CURVE SMOOTH",
"25 37 OFFCURVE",
"102 -10 OFFCURVE",
"193 -10 CURVE SMOOTH"
);
},
{
closed = 1;
nodes = (
"215 100 OFFCURVE",
"196 118 OFFCURVE",
"196 148 CURVE SMOOTH",
"196 182 OFFCURVE",
"216 197 OFFCURVE",
"258 197 CURVE SMOOTH",
"349 197 LINE",
"349 138 LINE",
"329 116 OFFCURVE",
"299 100 OFFCURVE",
"257 100 CURVE SMOOTH"
);
},
{
closed = 1;
nodes = (
"463 -220 OFFCURVE",
"504 -212 OFFCURVE",
"524 -204 CURVE",
"524 -118 LINE",
"512 -125 OFFCURVE",
"491 -129 OFFCURVE",
"474 -129 CURVE SMOOTH",
"446 -129 OFFCURVE",
"431 -115 OFFCURVE",
"431 -89 CURVE SMOOTH",
"431 -55 OFFCURVE",
"455 -26 OFFCURVE",
"489 0 CURVE",
"364 0 LINE",
"320 -28 OFFCURVE",
"290 -72 OFFCURVE",
"290 -123 CURVE SMOOTH",
"290 -190 OFFCURVE",
"346 -220 OFFCURVE",
"422 -220 CURVE SMOOTH"
);
}
);
width = 568;
}
);
leftKerningGroup = a;
note = aogonek;
unicode = 0105;
},
{
glyphname = aring;
lastChange = "2015-10-23 14:03:17 +0000";
layers = (
{
layerId = "47126D52-4795-4BAD-A976-8664E9644ACA";
name = Bold;
paths = (
{
closed = 1;
nodes = (
"270 -10 OFFCURVE",
"321 8 OFFCURVE",
"355 38 CURVE",
"364 0 LINE",
"528 0 LINE",
"528 292 LINE SMOOTH",
"528 425 OFFCURVE",
"433 484 OFFCURVE",
"283 484 CURVE SMOOTH",
"208 484 OFFCURVE",
"131 470 OFFCURVE",
"83 451 CURVE",
"83 338 LINE",
"134 354 OFFCURVE",
"193 363 OFFCURVE",
"245 363 CURVE SMOOTH",
"322 363 OFFCURVE",
"349 346 OFFCURVE",
"349 309 CURVE SMOOTH",
"349 300 LINE",
"226 300 LINE SMOOTH",
"91 300 OFFCURVE",
"25 242 OFFCURVE",
"25 142 CURVE SMOOTH",
"25 37 OFFCURVE",
"102 -10 OFFCURVE",
"193 -10 CURVE SMOOTH"
);
},
{
closed = 1;
nodes = (
"215 100 OFFCURVE",
"196 118 OFFCURVE",
"196 148 CURVE SMOOTH",
"196 182 OFFCURVE",
"216 197 OFFCURVE",
"258 197 CURVE SMOOTH",
"349 197 LINE",
"349 138 LINE",
"329 116 OFFCURVE",
"299 100 OFFCURVE",
"257 100 CURVE SMOOTH"
);
},
{
closed = 1;
nodes = (
"389 522 OFFCURVE",
"439 579 OFFCURVE",
"439 653 CURVE SMOOTH",
"439 727 OFFCURVE",
"389 785 OFFCURVE",
"300 785 CURVE SMOOTH",
"212 785 OFFCURVE",
"161 727 OFFCURVE",
"161 653 CURVE SMOOTH",
"161 579 OFFCURVE",
"212 522 OFFCURVE",
"300 522 CURVE SMOOTH"
);
},
{
closed = 1;
nodes = (
"264 599 OFFCURVE",
"244 623 OFFCURVE",
"244 653 CURVE SMOOTH",
"244 682 OFFCURVE",
"264 707 OFFCURVE",
"300 707 CURVE SMOOTH",
"337 707 OFFCURVE",
"356 682 OFFCURVE",
"356 653 CURVE SMOOTH",
"356 623 OFFCURVE",
"337 599 OFFCURVE",
"300 599 CURVE SMOOTH"
);
}
);
width = 568;
}
);
leftKerningGroup = a;
note = aring;
unicode = 00E5;
},
{
glyphname = aringacute;
lastChange = "2015-11-25 11:16:20 +0000";
layers = (
{
layerId = "47126D52-4795-4BAD-A976-8664E9644ACA";
name = Bold;
paths = (
{
closed = 1;
nodes = (
"270 -10 OFFCURVE",
"321 8 OFFCURVE",
"355 38 CURVE",
"364 0 LINE",
"528 0 LINE",
"528 292 LINE SMOOTH",
"528 425 OFFCURVE",
"433 484 OFFCURVE",
"283 484 CURVE SMOOTH",
"208 484 OFFCURVE",
"131 470 OFFCURVE",
"83 451 CURVE",
"83 338 LINE",
"134 354 OFFCURVE",
"193 363 OFFCURVE",
"245 363 CURVE SMOOTH",
"322 363 OFFCURVE",
"349 346 OFFCURVE",
"349 309 CURVE SMOOTH",
"349 300 LINE",
"226 300 LINE SMOOTH",
"91 300 OFFCURVE",
"25 242 OFFCURVE",
"25 142 CURVE SMOOTH",
"25 37 OFFCURVE",
"102 -10 OFFCURVE",
"193 -10 CURVE SMOOTH"
);
},
{
closed = 1;
nodes = (
"215 100 OFFCURVE",
"196 118 OFFCURVE",
"196 148 CURVE SMOOTH",
"196 182 OFFCURVE",
"216 197 OFFCURVE",
"258 197 CURVE SMOOTH",
"349 197 LINE",
"349 138 LINE",
"329 116 OFFCURVE",
"299 100 OFFCURVE",
"257 100 CURVE SMOOTH"
);
},
{
closed = 1;
nodes = (
"389 522 OFFCURVE",
"439 579 OFFCURVE",
"439 653 CURVE SMOOTH",
"439 727 OFFCURVE",
"389 785 OFFCURVE",
"300 785 CURVE SMOOTH",
"212 785 OFFCURVE",
"161 727 OFFCURVE",
"161 653 CURVE SMOOTH",
"161 579 OFFCURVE",
"212 522 OFFCURVE",
"300 522 CURVE SMOOTH"
);
},
{
closed = 1;
nodes = (
"264 599 OFFCURVE",
"244 623 OFFCURVE",
"244 653 CURVE SMOOTH",
"244 682 OFFCURVE",
"264 707 OFFCURVE",
"300 707 CURVE SMOOTH",
"337 707 OFFCURVE",
"356 682 OFFCURVE",
"356 653 CURVE SMOOTH",
"356 623 OFFCURVE",
"337 599 OFFCURVE",
"300 599 CURVE SMOOTH"
);
},
{
closed = 1;
nodes = (
"355 804 LINE",
"451 968 LINE",
"305 968 LINE",
"217 804 LINE"
);
}
);
width = 568;
}
);
leftKerningGroup = a;
note = aringacute;
unicode = 01FB;
},
{
glyphname = atilde;
lastChange = "2015-10-23 14:03:17 +0000";
layers = (
{
layerId = "47126D52-4795-4BAD-A976-8664E9644ACA";
name = Bold;
paths = (
{
closed = 1;
nodes = (
"270 -10 OFFCURVE",
"321 8 OFFCURVE",
"355 38 CURVE",
"364 0 LINE",
"528 0 LINE",
"528 292 LINE SMOOTH",
"528 425 OFFCURVE",
"433 484 OFFCURVE",
"283 484 CURVE SMOOTH",
"208 484 OFFCURVE",
"131 470 OFFCURVE",
"83 451 CURVE",
"83 338 LINE",
"134 354 OFFCURVE",
"193 363 OFFCURVE",
"245 363 CURVE SMOOTH",
"322 363 OFFCURVE",
"349 346 OFFCURVE",
"349 309 CURVE SMOOTH",
"349 300 LINE",
"226 300 LINE SMOOTH",
"91 300 OFFCURVE",
"25 242 OFFCURVE",
"25 142 CURVE SMOOTH",
"25 37 OFFCURVE",
"102 -10 OFFCURVE",
"193 -10 CURVE SMOOTH"
);
},
{
closed = 1;
nodes = (
"215 100 OFFCURVE",
"196 118 OFFCURVE",
"196 148 CURVE SMOOTH",
"196 182 OFFCURVE",
"216 197 OFFCURVE",
"258 197 CURVE SMOOTH",
"349 197 LINE",
"349 138 LINE",
"329 116 OFFCURVE",
"299 100 OFFCURVE",
"257 100 CURVE SMOOTH"
);
},
{
closed = 1;
nodes = (
"437 530 OFFCURVE",
"472 545 OFFCURVE",
"485 563 CURVE",
"485 682 LINE",
"469 659 OFFCURVE",
"437 642 OFFCURVE",
"395 642 CURVE SMOOTH",
"332 642 OFFCURVE",
"281 684 OFFCURVE",
"214 684 CURVE SMOOTH",
"175 684 OFFCURVE",
"138 669 OFFCURVE",
"119 651 CURVE",
"119 533 LINE",
"143 557 OFFCURVE",
"175 572 OFFCURVE",
"217 572 CURVE SMOOTH",
"272 572 OFFCURVE",
"332 530 OFFCURVE",
"398 530 CURVE SMOOTH"
);
}
);
width = 568;
}
);
leftKerningGroup = a;
note = atilde;
unicode = 00E3;
},
{
glyphname = ae;
lastChange = "2015-10-23 14:03:17 +0000";
layers = (
{
layerId = "47126D52-4795-4BAD-A976-8664E9644ACA";
name = Bold;
paths = (
{
closed = 1;
nodes = (
"323 -10 OFFCURVE",
"395 24 OFFCURVE",
"445 60 CURVE",
"488 16 OFFCURVE",
"557 -10 OFFCURVE",
"636 -10 CURVE SMOOTH",
"718 -10 OFFCURVE",
"784 1 OFFCURVE",
"831 23 CURVE",
"831 136 LINE",
"797 122 OFFCURVE",
"737 111 OFFCURVE",
"682 111 CURVE SMOOTH",
"595 111 OFFCURVE",
"545 130 OFFCURVE",
"528 181 CURVE",
"857 181 LINE",
"857 264 LINE SMOOTH",
"857 400 OFFCURVE",
"764 484 OFFCURVE",
"610 484 CURVE SMOOTH",
"545 484 OFFCURVE",
"485 470 OFFCURVE",
"445 444 CURVE",
"403 471 OFFCURVE",
"353 484 OFFCURVE",
"283 484 CURVE SMOOTH",
"208 484 OFFCURVE",
"131 470 OFFCURVE",
"83 451 CURVE",
"83 338 LINE",
"134 354 OFFCURVE",
"193 363 OFFCURVE",
"245 363 CURVE SMOOTH",
"322 363 OFFCURVE",
"349 346 OFFCURVE",
"349 309 CURVE SMOOTH",
"349 300 LINE",
"226 300 LINE SMOOTH",
"91 300 OFFCURVE",
"25 242 OFFCURVE",
"25 142 CURVE SMOOTH",
"25 37 OFFCURVE",
"102 -10 OFFCURVE",
"207 -10 CURVE SMOOTH"
);
},
{
closed = 1;
nodes = (
"215 100 OFFCURVE",
"196 118 OFFCURVE",
"196 148 CURVE SMOOTH",
"196 182 OFFCURVE",
"216 197 OFFCURVE",
"258 197 CURVE SMOOTH",
"349 197 LINE",
"349 135 LINE",
"329 115 OFFCURVE",
"299 100 OFFCURVE",
"257 100 CURVE SMOOTH"
);
},
{
closed = 1;
nodes = (
"528 291 LINE",
"530 339 OFFCURVE",
"554 364 OFFCURVE",
"616 364 CURVE SMOOTH",
"674 364 OFFCURVE",
"695 337 OFFCURVE",
"695 300 CURVE SMOOTH",
"695 283 LINE",
"528 283 LINE"
);
}
);
width = 882;
}
);
leftKerningGroup = a;
note = ae;
unicode = 00E6;
},
{
glyphname = aeacute;
lastChange = "2015-10-23 14:03:17 +0000";
layers = (
{
layerId = "47126D52-4795-4BAD-A976-8664E9644ACA";
name = Bold;
paths = (
{
closed = 1;
nodes = (
"323 -10 OFFCURVE",
"395 24 OFFCURVE",
"445 60 CURVE",
"488 16 OFFCURVE",
"557 -10 OFFCURVE",
"636 -10 CURVE SMOOTH",
"718 -10 OFFCURVE",
"784 1 OFFCURVE",
"831 23 CURVE",
"831 136 LINE",
"797 122 OFFCURVE",
"737 111 OFFCURVE",
"682 111 CURVE SMOOTH",
"595 111 OFFCURVE",
"545 130 OFFCURVE",
"528 181 CURVE",
"857 181 LINE",
"857 264 LINE SMOOTH",
"857 400 OFFCURVE",
"764 484 OFFCURVE",
"610 484 CURVE SMOOTH",
"545 484 OFFCURVE",
"485 470 OFFCURVE",
"445 444 CURVE",
"403 471 OFFCURVE",
"353 484 OFFCURVE",
"283 484 CURVE SMOOTH",
"208 484 OFFCURVE",
"131 470 OFFCURVE",
"83 451 CURVE",
"83 338 LINE",
"134 354 OFFCURVE",
"193 363 OFFCURVE",
"245 363 CURVE SMOOTH",
"322 363 OFFCURVE",
"349 346 OFFCURVE",
"349 309 CURVE SMOOTH",
"349 300 LINE",
"226 300 LINE SMOOTH",
"91 300 OFFCURVE",
"25 242 OFFCURVE",
"25 142 CURVE SMOOTH",
"25 37 OFFCURVE",
"102 -10 OFFCURVE",
"207 -10 CURVE SMOOTH"
);
},
{
closed = 1;
nodes = (
"215 100 OFFCURVE",
"196 118 OFFCURVE",
"196 148 CURVE SMOOTH",
"196 182 OFFCURVE",
"216 197 OFFCURVE",
"258 197 CURVE SMOOTH",
"349 197 LINE",
"349 135 LINE",
"329 115 OFFCURVE",
"299 100 OFFCURVE",
"257 100 CURVE SMOOTH"
);
},
{
closed = 1;
nodes = (
"528 291 LINE",
"530 339 OFFCURVE",
"554 364 OFFCURVE",
"616 364 CURVE SMOOTH",
"674 364 OFFCURVE",
"695 337 OFFCURVE",
"695 300 CURVE SMOOTH",
"695 283 LINE",
"528 283 LINE"
);
},
{
closed = 1;
nodes = (
"499 522 LINE",
"595 728 LINE",
"449 728 LINE",
"361 522 LINE"
);
}
);
width = 882;
}
);
leftKerningGroup = a;
note = aeacute;
unicode = 01FD;
},
{
glyphname = b;
lastChange = "2015-10-23 14:03:17 +0000";
layers = (
{
layerId = "47126D52-4795-4BAD-A976-8664E9644ACA";
name = Bold;
paths = (
{
closed = 1;
nodes = (
"495 -10 OFFCURVE",
"582 71 OFFCURVE",
"582 241 CURVE SMOOTH",
"582 414 OFFCURVE",
"496 484 OFFCURVE",
"355 484 CURVE SMOOTH",
"311 484 OFFCURVE",
"265 474 OFFCURVE",
"233 457 CURVE",
"233 674 LINE",
"45 674 LINE",
"45 0 LINE",
"208 0 LINE",
"217 37 LINE",
"255 7 OFFCURVE",
"299 -10 OFFCURVE",
"361 -10 CURVE SMOOTH"
);
},
{
closed = 1;
nodes = (
"278 126 OFFCURVE",
"253 136 OFFCURVE",
"233 155 CURVE",
"233 323 LINE",
"252 340 OFFCURVE",
"277 348 OFFCURVE",
"307 348 CURVE SMOOTH",
"363 348 OFFCURVE",
"390 320 OFFCURVE",
"390 239 CURVE SMOOTH",
"390 159 OFFCURVE",
"365 126 OFFCURVE",
"307 126 CURVE SMOOTH"
);
}
);
width = 607;
}
);
note = b;
rightKerningGroup = b;
unicode = 0062;
},
{
glyphname = c;
lastChange = "2015-10-23 14:03:17 +0000";
layers = (
{
layerId = "47126D52-4795-4BAD-A976-8664E9644ACA";
name = Bold;
paths = (
{
closed = 1;
nodes = (
"373 -10 OFFCURVE",
"430 -1 OFFCURVE",
"481 22 CURVE",
"481 160 LINE",
"440 139 OFFCURVE",
"394 127 OFFCURVE",
"346 127 CURVE SMOOTH",
"257 127 OFFCURVE",
"217 159 OFFCURVE",
"217 237 CURVE SMOOTH",
"217 319 OFFCURVE",
"261 347 OFFCURVE",
"346 347 CURVE SMOOTH",
"395 347 OFFCURVE",
"442 337 OFFCURVE",
"480 319 CURVE",
"480 451 LINE",
"429 475 OFFCURVE",
"376 484 OFFCURVE",
"305 484 CURVE SMOOTH",
"137 484 OFFCURVE",
"25 405 OFFCURVE",
"25 237 CURVE SMOOTH",
"25 71 OFFCURVE",
"132 -10 OFFCURVE",
"304 -10 CURVE SMOOTH"
);
}
);
width = 506;
}
);
leftKerningGroup = c;
note = c;
rightKerningGroup = c;
unicode = 0063;
},
